<svg width="33" height="32" viewBox="0 0 33 32" fill="none" xmlns="http://www.w3.org/2000/svg">
<path d="M29 6.30469H4.5C2.567 6.30469 1 7.76972 1 9.57692V27.5742C1 29.3814 2.567 30.8465 4.5 30.8465H29C30.933 30.8465 32.5 29.3814 32.5 27.5742V9.57692C32.5 7.76972 30.933 6.30469 29 6.30469Z" stroke="#F2695C"/>
<path d="M1 12.8492C1 9.76344 1 8.22222 2.0255 7.26345C3.051 6.30469 4.6995 6.30469 8 6.30469H25.5C28.8005 6.30469 30.449 6.30469 31.4745 7.26345C32.5 8.22222 32.5 9.76344 32.5 12.8492H1Z" fill="#F2695C"/>
<path d="M8 1.39648V6.30484M25.5 1.39648V6.30484" stroke="#F2695C" stroke-linecap="round"/>
<path d="M14.125 16.1216H8.875C8.39175 16.1216 8 16.4878 8 16.9396V18.5758C8 19.0276 8.39175 19.3938 8.875 19.3938H14.125C14.6082 19.3938 15 19.0276 15 18.5758V16.9396C15 16.4878 14.6082 16.1216 14.125 16.1216Z" fill="#F2695C"/>
<path d="M14.125 22.666H8.875C8.39175 22.666 8 23.0323 8 23.4841V25.1202C8 25.572 8.39175 25.9383 8.875 25.9383H14.125C14.6082 25.9383 15 25.572 15 25.1202V23.4841C15 23.0323 14.6082 22.666 14.125 22.666Z" fill="#F2695C"/>
<path d="M24.625 16.1216H19.375C18.8918 16.1216 18.5 16.4878 18.5 16.9396V18.5758C18.5 19.0276 18.8918 19.3938 19.375 19.3938H24.625C25.1082 19.3938 25.5 19.0276 25.5 18.5758V16.9396C25.5 16.4878 25.1082 16.1216 24.625 16.1216Z" fill="#F2695C"/>
<path d="M24.625 22.666H19.375C18.8918 22.666 18.5 23.0323 18.5 23.4841V25.1202C18.5 25.572 18.8918 25.9383 19.375 25.9383H24.625C25.1082 25.9383 25.5 25.572 25.5 25.1202V23.4841C25.5 23.0323 25.1082 22.666 24.625 22.666Z" fill="#F2695C"/>
</svg>
