<svg width="24" height="27" viewBox="0 0 24 27" fill="none" xmlns="http://www.w3.org/2000/svg">
<path d="M14.6297 18.715C15.5736 18.1667 16.3039 17.3384 16.7093 16.3565C17.1147 15.3745 17.1728 14.2929 16.8749 13.2764C16.5769 12.2599 15.9393 11.3645 15.0591 10.7266C14.179 10.0888 13.1046 9.74354 12 9.74354C10.8954 9.74354 9.82104 10.0888 8.94089 10.7266C8.06074 11.3645 7.42306 12.2599 7.12512 13.2764C6.82718 14.2929 6.88533 15.3745 7.29069 16.3565C7.69606 17.3384 8.4264 18.1667 9.37031 18.715C7.54284 19.2459 5.94123 20.322 4.8 21.7856C4.71049 21.8996 4.67206 22.043 4.69315 22.1841C4.71425 22.3253 4.79315 22.4526 4.9125 22.5381C5.03185 22.6237 5.18187 22.6604 5.32955 22.6402C5.47723 22.6201 5.61049 22.5447 5.7 22.4306C6.43353 21.496 7.38471 20.7374 8.47819 20.215C9.57168 19.6925 10.7774 19.4205 12 19.4205C13.2226 19.4205 14.4283 19.6925 15.5218 20.215C16.6153 20.7374 17.5665 21.496 18.3 22.4306C18.3443 22.4871 18.3998 22.5347 18.4634 22.5706C18.527 22.6066 18.5973 22.6302 18.6705 22.6402C18.7436 22.6502 18.818 22.6463 18.8896 22.6288C18.9612 22.6113 19.0284 22.5805 19.0875 22.5381C19.1466 22.4958 19.1964 22.4427 19.234 22.382C19.2717 22.3212 19.2964 22.254 19.3068 22.1841C19.3173 22.1143 19.3132 22.0431 19.2949 21.9747C19.2766 21.9063 19.2443 21.8421 19.2 21.7856C18.0584 20.3223 16.4569 19.2464 14.6297 18.715ZM8.0625 14.5828C8.0625 13.8387 8.29343 13.1112 8.72609 12.4924C9.15875 11.8737 9.7737 11.3914 10.4932 11.1066C11.2127 10.8218 12.0044 10.7473 12.7682 10.8925C13.532 11.0377 14.2336 11.396 14.7842 11.9223C15.3349 12.4485 15.7099 13.1189 15.8618 13.8488C16.0138 14.5787 15.9358 15.3352 15.6378 16.0227C15.3398 16.7103 14.8351 17.2979 14.1876 17.7114C13.54 18.1248 12.7788 18.3455 12 18.3455C10.9557 18.3455 9.95419 17.9491 9.21577 17.2434C8.47734 16.5378 8.0625 15.5808 8.0625 14.5828ZM22.125 0.0698242H1.875C1.42745 0.0698242 0.998225 0.239718 0.681757 0.542131C0.365289 0.844545 0.1875 1.2547 0.1875 1.68238V25.3332C0.1875 25.7609 0.365289 26.1711 0.681757 26.4735C0.998225 26.7759 1.42745 26.9458 1.875 26.9458H22.125C22.5726 26.9458 23.0018 26.7759 23.3182 26.4735C23.6347 26.1711 23.8125 25.7609 23.8125 25.3332V1.68238C23.8125 1.2547 23.6347 0.844545 23.3182 0.542131C23.0018 0.239718 22.5726 0.0698242 22.125 0.0698242ZM22.6875 25.3332C22.6875 25.4758 22.6282 25.6125 22.5227 25.7133C22.4173 25.8141 22.2742 25.8707 22.125 25.8707H1.875C1.72582 25.8707 1.58274 25.8141 1.47725 25.7133C1.37176 25.6125 1.3125 25.4758 1.3125 25.3332V1.68238C1.3125 1.53982 1.37176 1.4031 1.47725 1.3023C1.58274 1.20149 1.72582 1.14486 1.875 1.14486H22.125C22.2742 1.14486 22.4173 1.20149 22.5227 1.3023C22.6282 1.4031 22.6875 1.53982 22.6875 1.68238V25.3332ZM6.9375 4.9075C6.9375 4.76494 6.99676 4.62822 7.10225 4.52741C7.20774 4.42661 7.35082 4.36998 7.5 4.36998H16.5C16.6492 4.36998 16.7923 4.42661 16.8977 4.52741C17.0032 4.62822 17.0625 4.76494 17.0625 4.9075C17.0625 5.05006 17.0032 5.18678 16.8977 5.28758C16.7923 5.38839 16.6492 5.44502 16.5 5.44502H7.5C7.35082 5.44502 7.20774 5.38839 7.10225 5.28758C6.99676 5.18678 6.9375 5.05006 6.9375 4.9075Z" fill="#F2695C"/>
</svg>
