<svg width="33" height="27" viewBox="0 0 33 27" fill="none" xmlns="http://www.w3.org/2000/svg">
<path d="M26.9062 10.8906C26.9062 11.0605 26.8388 11.2235 26.7186 11.3436C26.5985 11.4638 26.4355 11.5312 26.2656 11.5312H19.8594C19.6895 11.5312 19.5265 11.4638 19.4064 11.3436C19.2862 11.2235 19.2188 11.0605 19.2188 10.8906C19.2188 10.7207 19.2862 10.5578 19.4064 10.4376C19.5265 10.3175 19.6895 10.25 19.8594 10.25H26.2656C26.4355 10.25 26.5985 10.3175 26.7186 10.4376C26.8388 10.5578 26.9062 10.7207 26.9062 10.8906ZM26.2656 15.375H19.8594C19.6895 15.375 19.5265 15.4425 19.4064 15.5626C19.2862 15.6828 19.2188 15.8457 19.2188 16.0156C19.2188 16.1855 19.2862 16.3485 19.4064 16.4686C19.5265 16.5888 19.6895 16.6562 19.8594 16.6562H26.2656C26.4355 16.6562 26.5985 16.5888 26.7186 16.4686C26.8388 16.3485 26.9062 16.1855 26.9062 16.0156C26.9062 15.8457 26.8388 15.6828 26.7186 15.5626C26.5985 15.4425 26.4355 15.375 26.2656 15.375ZM32.0312 1.92188V24.9844C32.0312 25.4941 31.8288 25.9829 31.4683 26.3433C31.1079 26.7038 30.6191 26.9062 30.1094 26.9062H1.92188C1.41216 26.9062 0.923326 26.7038 0.562904 26.3433C0.202483 25.9829 0 25.4941 0 24.9844V1.92188C0 1.41216 0.202483 0.923325 0.562904 0.562904C0.923326 0.202482 1.41216 0 1.92188 0H30.1094C30.6191 0 31.1079 0.202482 31.4683 0.562904C31.8288 0.923325 32.0312 1.41216 32.0312 1.92188ZM30.75 1.92188C30.75 1.75197 30.6825 1.58903 30.5624 1.46888C30.4422 1.34874 30.2793 1.28125 30.1094 1.28125H1.92188C1.75197 1.28125 1.58903 1.34874 1.46888 1.46888C1.34874 1.58903 1.28125 1.75197 1.28125 1.92188V24.9844C1.28125 25.1543 1.34874 25.3172 1.46888 25.4374C1.58903 25.5575 1.75197 25.625 1.92188 25.625H30.1094C30.2793 25.625 30.4422 25.5575 30.5624 25.4374C30.6825 25.3172 30.75 25.1543 30.75 24.9844V1.92188ZM16.6354 19.6992C16.6601 19.7818 16.6679 19.8685 16.6584 19.9541C16.6488 20.0398 16.622 20.1226 16.5797 20.1977C16.5374 20.2727 16.4803 20.3385 16.412 20.391C16.3437 20.4435 16.2654 20.4816 16.182 20.5032C16.0985 20.5248 16.0116 20.5293 15.9264 20.5164C15.8412 20.5036 15.7594 20.4737 15.686 20.4286C15.6126 20.3834 15.5491 20.3239 15.4992 20.2536C15.4494 20.1833 15.4142 20.1037 15.3958 20.0195C14.9041 18.0977 12.9727 16.6562 10.8906 16.6562C8.80859 16.6562 6.88672 18.0977 6.38543 20.0195C6.34994 20.157 6.26982 20.2787 6.15764 20.3657C6.04545 20.4527 5.90757 20.4999 5.76562 20.5C5.71158 20.4998 5.65776 20.4928 5.60547 20.4792C5.44115 20.4366 5.30046 20.3305 5.21427 20.1843C5.12809 20.0381 5.10347 19.8636 5.14582 19.6992C5.37426 18.8636 5.78664 18.0897 6.35277 17.4341C6.9189 16.7785 7.62446 16.2577 8.41781 15.9099C7.61365 15.3784 7.00218 14.6018 6.67405 13.6954C6.34592 12.789 6.31859 11.801 6.59612 10.8779C6.87365 9.95474 7.44126 9.14559 8.21481 8.5704C8.98836 7.9952 9.92666 7.68458 10.8906 7.68458C11.8546 7.68458 12.7929 7.9952 13.5664 8.5704C14.34 9.14559 14.9076 9.95474 15.1851 10.8779C15.4627 11.801 15.4353 12.789 15.1072 13.6954C14.7791 14.6018 14.1676 15.3784 13.3634 15.9099C14.1573 16.2569 14.8633 16.7774 15.4295 17.4332C15.9958 18.0889 16.4078 18.8633 16.6354 19.6992ZM10.8906 15.375C11.5241 15.375 12.1434 15.1871 12.6702 14.8352C13.1969 14.4832 13.6075 13.983 13.8499 13.3977C14.0924 12.8124 14.1558 12.1683 14.0322 11.547C13.9086 10.9256 13.6035 10.3549 13.1556 9.90692C12.7076 9.45896 12.1369 9.15389 11.5155 9.0303C10.8942 8.9067 10.2501 8.97014 9.66484 9.21257C9.07955 9.45501 8.57929 9.86556 8.22732 10.3923C7.87536 10.9191 7.6875 11.5384 7.6875 12.1719C7.6875 13.0214 8.02497 13.8361 8.62567 14.4368C9.22638 15.0375 10.0411 15.375 10.8906 15.375Z" fill="#F2695C"/>
</svg>
