<svg width="31" height="25" viewBox="0 0 31 25" fill="none" xmlns="http://www.w3.org/2000/svg">
<path d="M4.91602 0.916504H25.4993C26.7591 0.916504 27.9673 1.41695 28.8581 2.30775C29.7489 3.19854 30.2493 4.40673 30.2493 5.6665V19.9165C30.2493 21.1763 29.7489 22.3845 28.8581 23.2753C27.9673 24.1661 26.7591 24.6665 25.4993 24.6665H4.91602C3.65624 24.6665 2.44806 24.1661 1.55726 23.2753C0.666461 22.3845 0.166016 21.1763 0.166016 19.9165V5.6665C0.166016 4.40673 0.666461 3.19854 1.55726 2.30775C2.44806 1.41695 3.65624 0.916504 4.91602 0.916504ZM4.91602 2.49984C4.12435 2.49984 3.42768 2.769 2.88935 3.244L15.2077 11.2082L27.526 3.244C26.9877 2.769 26.291 2.49984 25.4993 2.49984H4.91602ZM15.2077 13.124L1.95518 4.5265C1.82852 4.87484 1.74935 5.27067 1.74935 5.6665V19.9165C1.74935 20.7564 2.08298 21.5618 2.67684 22.1557C3.27071 22.7495 4.07616 23.0832 4.91602 23.0832H25.4993C26.3392 23.0832 27.1447 22.7495 27.7385 22.1557C28.3324 21.5618 28.666 20.7564 28.666 19.9165V5.6665C28.666 5.27067 28.5869 4.87484 28.4602 4.5265L15.2077 13.124Z" fill="#F2695C"/>
</svg>
