<svg width="30" height="15" viewBox="0 0 30 15" fill="none" xmlns="http://www.w3.org/2000/svg">
<path d="M29.4166 10.6426C29.3265 10.6951 29.2239 10.7223 29.1197 10.7213C29.0153 10.7214 28.9128 10.6941 28.8223 10.6419C28.7319 10.5898 28.6568 10.5148 28.6046 10.4244L25.4652 4.93221C23.599 6.29268 21.4862 7.27729 19.2442 7.8312L20.2135 13.5921C20.2392 13.7474 20.2022 13.9065 20.1106 14.0346C20.0191 14.1626 19.8804 14.249 19.7251 14.2749C19.6923 14.2806 19.659 14.2836 19.6256 14.2838C19.4853 14.2836 19.3495 14.2337 19.2425 14.1429C19.1354 14.0522 19.064 13.9264 19.0408 13.788L18.0893 8.07315C15.9633 8.43724 13.7909 8.43724 11.6649 8.07315L10.7135 13.788C10.6901 13.9279 10.6173 14.0549 10.5084 14.1458C10.3995 14.2368 10.2616 14.2857 10.1197 14.2838C10.0864 14.2836 10.0531 14.2806 10.0203 14.2749C9.86497 14.249 9.72629 14.1626 9.63471 14.0346C9.54313 13.9065 9.50615 13.7474 9.5319 13.5921L10.4938 7.82823C8.25252 7.27504 6.14017 6.29146 4.27424 4.93221L1.13479 10.4244C1.0826 10.5148 1.00751 10.5898 0.917079 10.6419C0.82665 10.6941 0.72408 10.7214 0.619707 10.7213C0.51547 10.7223 0.412902 10.6951 0.322832 10.6426C0.255117 10.6037 0.195744 10.5518 0.148114 10.4899C0.100485 10.428 0.0655345 10.3573 0.0452652 10.2819C0.0249959 10.2065 0.0198059 10.1278 0.0299925 10.0504C0.040179 9.97293 0.0655422 9.89827 0.104629 9.83065L3.32275 4.19893C2.16122 3.24316 1.10077 2.17078 0.158066 0.998619C0.102722 0.938843 0.0602699 0.868318 0.0333517 0.791431C0.00643354 0.714544 -0.00437493 0.63294 0.00159844 0.551697C0.00757181 0.470453 0.0301992 0.391309 0.0680732 0.319186C0.105947 0.247063 0.158258 0.183504 0.22175 0.132465C0.285242 0.0814269 0.358557 0.0439998 0.437135 0.0225121C0.515712 0.00102446 0.597871 -0.00406326 0.678499 0.00756443C0.759128 0.0191921 0.836502 0.047286 0.905806 0.0901002C0.975111 0.132914 1.03486 0.189532 1.08135 0.256431C3.62557 3.40479 8.08463 7.15878 14.8697 7.15878C21.6548 7.15878 26.1138 3.40479 28.6581 0.254946C28.7046 0.188048 28.7643 0.131431 28.8336 0.0886166C28.9029 0.0458024 28.9803 0.0177074 29.0609 0.00607974C29.1415 -0.00554795 29.2237 -0.00046023 29.3023 0.0210274C29.3809 0.0425151 29.4542 0.0799433 29.5177 0.130982C29.5812 0.18202 29.6335 0.245578 29.6713 0.317701C29.7092 0.389824 29.7318 0.468969 29.7378 0.550212C29.7438 0.631455 29.733 0.713059 29.7061 0.789946C29.6791 0.866833 29.6367 0.937358 29.5814 0.997134C28.6386 2.1693 27.5782 3.24168 26.4167 4.19745L29.6348 9.83065C29.6739 9.89827 29.6992 9.97293 29.7094 10.0504C29.7196 10.1278 29.7144 10.2065 29.6942 10.2819C29.6739 10.3573 29.6389 10.428 29.5913 10.4899C29.5437 10.5518 29.4843 10.6037 29.4166 10.6426Z" fill="#F2695C"/>
</svg>
