<svg width="31" height="30" viewBox="0 0 31 30" fill="none" xmlns="http://www.w3.org/2000/svg">
<path d="M30.376 27.6407C28.1748 23.8351 24.7826 21.1064 20.8239 19.8128C22.7821 18.6471 24.3034 16.8709 25.1544 14.7568C26.0053 12.6428 26.1388 10.3079 25.5343 8.11066C24.9298 5.91343 23.6207 3.97538 21.8081 2.59414C19.9956 1.2129 17.7797 0.464844 15.5008 0.464844C13.222 0.464844 11.0061 1.2129 9.19353 2.59414C7.38095 3.97538 6.0719 5.91343 5.46739 8.11066C4.86288 10.3079 4.99634 12.6428 5.84728 14.7568C6.69823 16.8709 8.21959 18.6471 10.1777 19.8128C6.21904 21.1049 2.82689 23.8337 0.625678 27.6407C0.544955 27.7723 0.491413 27.9187 0.468209 28.0714C0.445005 28.224 0.452611 28.3798 0.490576 28.5294C0.528541 28.6791 0.596098 28.8197 0.68926 28.9428C0.782421 29.0659 0.899301 29.1691 1.033 29.2464C1.1667 29.3236 1.31452 29.3733 1.46773 29.3924C1.62094 29.4116 1.77643 29.3999 1.92504 29.358C2.07366 29.3161 2.21237 29.2449 2.33301 29.1485C2.45364 29.0521 2.55375 28.9326 2.62744 28.7969C5.3504 24.091 10.1633 21.2813 15.5008 21.2813C20.8384 21.2813 25.6513 24.091 28.3742 28.7969C28.4479 28.9326 28.548 29.0521 28.6687 29.1485C28.7893 29.2449 28.928 29.3161 29.0766 29.358C29.2252 29.3999 29.3807 29.4116 29.5339 29.3924C29.6871 29.3733 29.835 29.3236 29.9687 29.2464C30.1024 29.1691 30.2192 29.0659 30.3124 28.9428C30.4056 28.8197 30.4731 28.6791 30.5111 28.5294C30.5491 28.3798 30.5567 28.224 30.5335 28.0714C30.5103 27.9187 30.4567 27.7723 30.376 27.6407ZM7.40708 10.875C7.40708 9.27423 7.88177 7.70939 8.77113 6.37838C9.66048 5.04737 10.9246 4.00997 12.4035 3.39738C13.8824 2.78478 15.5098 2.6245 17.0798 2.93679C18.6499 3.24909 20.092 4.01995 21.224 5.15188C22.3559 6.28381 23.1268 7.72598 23.4391 9.29601C23.7514 10.866 23.5911 12.4934 22.9785 13.9724C22.3659 15.4513 21.3285 16.7154 19.9975 17.6047C18.6665 18.4941 17.1016 18.9688 15.5008 18.9688C13.3549 18.9665 11.2976 18.113 9.78022 16.5956C8.26285 15.0783 7.40938 13.0209 7.40708 10.875Z" fill="#F2695C"/>
</svg>
