<svg width="27" height="27" viewBox="0 0 27 27" fill="none" xmlns="http://www.w3.org/2000/svg">
<path d="M25.9851 18.8619L19.3447 15.8905C19.0872 15.7791 18.8061 15.7336 18.5267 15.7581C18.2473 15.7827 17.9784 15.8765 17.7443 16.0311C17.7256 16.043 17.7078 16.0561 17.6909 16.0705L14.2033 19.0433C14.1257 19.0907 14.0376 19.1181 13.9469 19.1233C13.8561 19.1284 13.7655 19.1111 13.683 19.0729C11.3992 17.9704 9.0353 15.6247 7.93278 13.3676C7.89378 13.2858 7.87568 13.1956 7.8801 13.105C7.88451 13.0144 7.91131 12.9264 7.95809 12.8487L10.9394 9.30354C10.9534 9.28666 10.9661 9.26838 10.9788 9.2501C11.1329 9.01638 11.2264 8.74799 11.251 8.46911C11.2755 8.19023 11.2303 7.90963 11.1194 7.65258L8.14232 1.02344C7.99859 0.68769 7.74982 0.407628 7.43336 0.22531C7.11691 0.0429917 6.74984 -0.0317401 6.38729 0.0123366C4.6176 0.245664 2.99336 1.11522 1.81794 2.45859C0.642523 3.80195 -0.00368436 5.52726 1.58025e-05 7.31226C1.58025e-05 18.1686 8.83139 27 19.6878 27C21.4728 27.0037 23.1981 26.3575 24.5415 25.1821C25.8848 24.0067 26.7544 22.3824 26.9877 20.6127C27.0315 20.2518 26.9575 19.8864 26.7769 19.571C26.5962 19.2555 26.3185 19.0068 25.9851 18.8619ZM25.8754 20.4721C25.6768 21.9708 24.9391 23.3459 23.8004 24.3403C22.6616 25.3346 21.1996 25.8802 19.6878 25.875C9.45296 25.875 1.12503 17.5471 1.12503 7.31226C1.11979 5.80045 1.66536 4.33849 2.65973 3.1997C3.6541 2.06091 5.02919 1.32327 6.52792 1.12469C6.5504 1.12334 6.57294 1.12334 6.59542 1.12469C6.70639 1.12564 6.81461 1.15939 6.90644 1.2217C6.99828 1.284 7.06963 1.37209 7.11152 1.47485L10.0802 8.10399C10.1148 8.18501 10.1299 8.27304 10.1243 8.36097C10.1187 8.44891 10.0925 8.53429 10.0478 8.61025L7.06793 12.154C7.05386 12.1723 7.0398 12.1892 7.02714 12.2089C6.86839 12.4517 6.77489 12.7312 6.75568 13.0207C6.73646 13.3101 6.79218 13.5996 6.91745 13.8612C8.1395 16.363 10.6595 18.8647 13.1894 20.0868C13.4528 20.2112 13.744 20.2654 14.0345 20.2439C14.3251 20.2225 14.6051 20.1262 14.8474 19.9644L14.8994 19.9251L18.3912 16.955C18.4659 16.9094 18.5504 16.8822 18.6376 16.8756C18.7249 16.869 18.8125 16.8832 18.8932 16.9171L25.5322 19.8927C25.6443 19.9394 25.7382 20.021 25.8001 20.1254C25.8619 20.2298 25.8883 20.3514 25.8754 20.4721Z" fill="#F2695C"/>
</svg>
