<svg width="74" height="63" viewBox="0 0 74 63" fill="none" xmlns="http://www.w3.org/2000/svg">
<path fill-rule="evenodd" clip-rule="evenodd" d="M9.39914 0.648765L5.48812 0.94495L5.32907 3.12581L5.17003 5.30719L2.72173 5.46412L0.273438 5.62156V32.1224V58.6232L15.7402 58.883L31.2075 59.1428L32.3052 60.5344C33.9139 62.5729 36.4811 63.2853 38.7766 62.3297C39.783 61.9109 41.0012 60.9672 41.484 60.233L42.3617 58.8981L57.8201 58.7609L73.279 58.6232V32.1224V5.62156L71.1931 5.36175C69.2064 5.11441 69.0948 5.00321 68.8465 3.02345L68.5858 0.94495L64.1533 0.587449C54.7022 -0.174319 44.3229 1.73478 39.0644 5.20223L37.1303 6.47739L35.118 5.15026C31.7623 2.93719 26.1341 1.27959 20.0136 0.701246C16.9005 0.407139 14.1184 0.208124 13.8316 0.259566C13.5448 0.311009 11.5502 0.486123 9.39914 0.648765ZM9.26877 2.6223L7.31326 2.82651V25.1386V47.4513H10.6569C17.5314 47.4513 26.6347 50.0894 32.9956 53.9258L35.994 55.7341V32.1333V8.5325L34.1997 7.16848C29.5362 3.62413 18.6693 1.64281 9.26877 2.6223ZM51.6329 3.03436C46.2284 3.87459 42.0144 5.38773 39.747 7.30307L38.0476 8.73931L38.1941 32.2289L38.3406 55.7185L40.7509 54.2235C46.984 50.3575 54.2569 48.0909 61.9371 47.6212L67.2821 47.2949V25.1033V2.91173L64.0767 2.57761C59.6885 2.12086 56.8382 2.2253 51.6329 3.03436ZM2.09858 32.1224V56.8045L17.873 56.7889L33.6474 56.7728L30.5186 54.9676C24.979 51.7709 18.3663 49.9366 11.3546 49.6509L5.22739 49.4014V28.4211V7.44025H3.66298H2.09858V32.1224ZM11.8761 8.04405C11.0871 8.3314 10.4421 8.77464 10.4421 9.02978C10.4421 9.29374 11.0006 9.28127 11.74 9.0012C16.3065 7.27137 24.4185 8.15681 30.6584 11.0667C34.3989 12.8106 34.4296 12.8199 34.4296 12.1881C34.4296 11.5941 28.6669 9.03705 25.3373 8.15317C22.2893 7.34464 13.9839 7.27709 11.8761 8.04405ZM46.5538 8.94664C42.4535 10.3688 39.3173 11.9646 39.759 12.4042C39.8717 12.517 41.8282 11.8072 44.1065 10.8277C49.547 8.48781 54.7539 7.62835 59.0711 8.35634C60.8623 8.65877 62.7386 9.06875 63.2408 9.26776C63.7643 9.47561 64.1533 9.39507 64.1533 9.07914C64.1533 8.14434 60.4639 7.44596 55.5491 7.45012C51.7346 7.45324 50.0507 7.73332 46.5538 8.94664ZM68.8465 28.4138V49.3869L62.7193 49.6472C57.6548 49.8623 55.7347 50.1954 51.649 51.5672C47.3078 53.0253 41.2087 55.9549 41.2087 56.5826C41.2087 56.7047 48.0139 56.8045 56.3313 56.8045H71.4539V32.1224V7.44025H70.1502H68.8465V28.4138ZM13.8316 10.7804C13.5448 10.8942 12.6651 11.1285 11.8761 11.3021C11.0871 11.4751 10.4421 11.8716 10.4421 12.1823C10.4421 12.5123 10.8222 12.597 11.3546 12.386C15.7313 10.6505 23.5846 11.2304 29.41 13.7183C35.2082 16.1954 34.7889 16.0691 33.9911 15.0917C33.6062 14.6199 31.3769 13.4902 29.0371 12.5809C25.4812 11.1992 23.9257 10.8989 19.5678 10.7513C16.6997 10.6541 14.1184 10.6671 13.8316 10.7804ZM48.9233 11.3244C45.6683 12.2171 39.2198 15.2959 39.9963 15.5859C40.3337 15.7121 41.6014 15.3105 42.8138 14.6942C49.462 11.3146 57.041 10.4572 63.161 12.3928C63.7069 12.5653 64.1533 12.4848 64.1533 12.2135C64.1533 10.6775 53.5388 10.0581 48.9233 11.3244ZM12.6583 14.2816C11.4396 14.5534 10.4421 15.021 10.4421 15.3209C10.4421 15.641 10.8186 15.7054 11.3546 15.4778C13.027 14.7675 21.1436 14.5898 24.0879 15.1988C25.6856 15.5292 28.6664 16.5986 30.7116 17.5755C32.7562 18.5519 34.4296 19.111 34.4296 18.8179C34.4296 17.9777 27.189 14.8688 23.7739 14.2432C20.1315 13.5749 15.7558 13.5905 12.6583 14.2816ZM49.4521 14.4463C45.9494 15.3318 39.3424 18.225 39.7945 18.6756C39.9681 18.8481 42.1656 18.1092 44.6786 17.0341C48.5499 15.377 49.9814 15.0403 54.0629 14.8277C56.9148 14.6791 59.8736 14.8262 61.3186 15.1889C64.1022 15.8873 65.0466 15.5568 62.7918 14.6739C60.38 13.7293 52.8004 13.6004 49.4521 14.4463ZM12.919 17.4305C11.557 17.7137 10.4421 18.1809 10.4421 18.4693C10.4421 18.7722 10.9369 18.8424 11.6154 18.6355C14.097 17.8785 20.4548 17.7179 23.6065 18.3326C25.4004 18.6823 28.5699 19.7501 30.649 20.7052C32.7281 21.6603 34.4296 22.2111 34.4296 21.9284C34.4296 21.0918 28.1006 18.3929 24.2151 17.5724C20.1612 16.7166 16.574 16.6719 12.919 17.4305ZM50.8559 17.3469C46.718 18.0312 38.9111 21.4322 39.6918 22.21C39.819 22.3373 41.3485 21.76 43.0896 20.9271C48.1583 18.503 52.2685 17.6602 57.3742 17.998C59.8121 18.1596 62.3934 18.4542 63.1104 18.6527C64 18.8985 64.2482 18.8434 63.8926 18.4786C62.5258 17.0767 55.9438 16.5056 50.8559 17.3469ZM14.1706 20.4771C10.9432 21.032 8.45215 22.2293 11.485 21.7678C20.7369 20.3602 25.475 21.1474 34.0385 25.5143C34.2534 25.624 34.4296 25.4878 34.4296 25.2114C34.4296 24.5483 29.4955 22.2422 25.9985 21.2716C22.1981 20.2168 17.5142 19.9024 14.1706 20.4771ZM52.9418 20.236C48.2835 20.8756 39.6443 24.0906 39.6443 25.1844C39.6443 25.824 39.7178 25.8006 43.8004 23.851C49.5976 21.0825 55.0798 20.4745 62.8497 21.7393L64.4141 21.9939L62.8497 21.2659C61.1591 20.4792 55.474 19.8884 52.9418 20.236ZM12.1368 24.13C11.2045 24.3982 10.4421 24.8388 10.4421 25.1095C10.4421 25.4187 10.9234 25.4187 11.74 25.1095C16.3065 23.3797 24.4185 24.2651 30.6584 27.175C34.3785 28.9095 34.4296 28.9251 34.4296 28.3208C34.4296 27.6931 28.8609 25.1745 25.5647 24.3119C22.3806 23.4779 14.7609 23.375 12.1368 24.13ZM48.6177 24.3571C45.0269 25.3205 40.8791 27.109 40.1183 28.0225C39.2668 29.0452 39.8419 28.9262 42.6824 27.4915C46.9824 25.32 51.016 24.3919 56.0706 24.4106C58.6518 24.42 61.401 24.6886 62.1796 25.0077C63.003 25.3449 63.7174 25.3901 63.8874 25.1158C64.826 23.6021 53.5253 23.0409 48.6177 24.3571ZM12.6317 27.147C10.7857 27.6167 10.1021 28.0594 10.5438 28.4996C10.695 28.6503 11.497 28.5126 12.3251 28.193C14.5554 27.3335 21.711 27.4478 25.4265 28.4029C27.2146 28.8628 29.8777 29.8449 31.3446 30.5859C34.2106 32.033 35.3985 31.9992 33.1552 30.5344C29.8861 28.4003 24.8883 27.0566 19.5678 26.8815C16.6997 26.7869 13.5787 26.9064 12.6317 27.147ZM48.9171 27.4733C45.6469 28.2631 39.3492 31.2219 39.8581 31.729C40.0338 31.9041 41.0549 31.5622 42.127 30.9688C46.9381 28.3078 53.8611 26.9895 59.1232 27.7321C60.9453 27.9888 62.8225 28.3473 63.295 28.5276C63.7669 28.7085 64.1533 28.6248 64.1533 28.3426C64.1533 26.7557 54.2313 26.1893 48.9171 27.4733ZM12.6583 30.3551C11.4396 30.6461 10.4421 31.1294 10.4421 31.4292C10.4421 31.7503 10.8165 31.8132 11.3546 31.583C11.8568 31.3684 14.3896 31.0837 16.9839 30.9506C22.464 30.6695 26.7823 31.5529 31.4312 33.9068C33.0801 34.7418 34.4296 35.2115 34.4296 34.9512C34.4296 34.3469 29.7828 31.9925 26.6592 31.0145C23.5805 30.0506 15.5227 29.6708 12.6583 30.3551ZM48.698 30.7802C44.6447 31.8756 39.0133 34.496 39.9942 34.8312C40.33 34.9455 41.7547 34.4586 43.16 33.7493C48.4561 31.0748 56.7777 30.0148 61.7254 31.3835C64.1356 32.0507 64.9121 31.6126 62.7918 30.7823C59.9795 29.6807 52.7712 29.6801 48.698 30.7802ZM13.0494 33.5228C11.7588 33.8034 10.4681 34.2752 10.1813 34.5719C9.82309 34.9419 10.1495 35.0001 11.2243 34.7579C17.8881 33.2562 25.4687 34.125 31.3008 37.0588C33.0217 37.9245 34.4296 38.3833 34.4296 38.0783C34.4296 37.2069 28.1876 34.5194 24.2151 33.6807C20.1534 32.8234 16.5068 32.7719 13.0494 33.5228ZM49.8129 33.7628C45.8675 34.6015 39.6443 37.2978 39.6443 38.1677C39.6443 38.4628 39.8206 38.6151 40.0354 38.506C47.4434 34.7532 51.453 33.7213 57.0973 34.1141C59.4007 34.2741 61.9892 34.5641 62.8497 34.7579C63.9088 34.9969 64.2456 34.9398 63.8926 34.5812C63.1792 33.8569 58.3249 32.8925 55.6539 32.9444C54.4488 32.9673 51.8206 33.3357 49.8129 33.7628ZM13.5709 36.6405C12.2802 36.9211 10.9896 37.3929 10.7028 37.6896C10.3446 38.0596 10.6715 38.1214 11.7457 37.8866C18.2808 36.4597 25.4478 37.315 31.1652 40.2041C34.6043 41.9422 34.4296 41.8861 34.4296 41.2543C34.4296 40.454 29.2149 38.1796 24.8294 37.0666C20.4084 35.9442 17.3145 35.8273 13.5709 36.6405ZM50.1065 36.8224C46.486 37.6465 39.6443 40.5699 39.6443 41.2927C39.6443 41.9178 39.6803 41.9059 43.0907 40.1869C48.8795 37.2687 55.0944 36.5298 62.8497 37.8382C64.3974 38.0991 64.3948 38.0934 62.603 37.2719C60.0843 36.1173 54.1417 35.9032 50.1065 36.8224ZM15.1353 39.4969C12.9222 39.8669 10.4421 40.7565 10.4421 41.1799C10.4421 41.4018 11.6665 41.2667 13.1631 40.8801C14.6597 40.493 17.0971 40.1766 18.5801 40.1766C21.6677 40.1766 29.7145 42.3553 32.1367 43.8472C33.9358 44.955 34.4296 45.0761 34.4296 44.4104C34.4296 43.5952 27.4336 40.7741 23.3703 39.9516C19.4291 39.1529 17.7463 39.0604 15.1353 39.4969ZM52.681 39.4667C47.9111 40.3662 39.6443 43.4975 39.6443 44.4047C39.6443 45.0662 39.9421 44.9836 42.8404 43.5203C46.268 41.7895 52.6497 40.1766 56.0711 40.1766C57.5573 40.1766 59.8663 40.5044 61.2029 40.9056C62.5394 41.3062 63.756 41.4356 63.9067 41.1935C64.51 40.2207 55.7931 38.8801 52.681 39.4667ZM12.1368 43.3561C11.2045 43.6243 10.4421 44.0956 10.4421 44.4042C10.4421 44.7311 10.8217 44.8116 11.3546 44.597C11.8568 44.3949 13.7049 43.9766 15.4622 43.6674C19.5078 42.9555 25.6095 44.0467 30.6015 46.3746C34.4025 48.1465 34.4296 48.1549 34.4296 47.5225C34.4296 46.9535 29.3088 44.6781 25.6001 43.5988C22.4885 42.6936 14.9147 42.5569 12.1368 43.3561ZM46.5762 44.2842C42.2855 45.7474 39.3158 47.297 39.8273 47.8067C39.9775 47.9564 41.3474 47.4736 42.8706 46.7337C46.1486 45.1416 53.1185 43.2891 55.7629 43.3068C57.4566 43.3187 60.8582 43.9282 63.2408 44.6479C63.7429 44.7991 64.1533 44.7108 64.1533 44.451C64.1533 43.5479 60.0942 42.7747 55.4886 42.8001C51.8216 42.8199 49.9636 43.1296 46.5762 44.2842Z" fill="#837373"/>
</svg>
