<svg width="58" height="46" viewBox="0 0 58 46" fill="none" xmlns="http://www.w3.org/2000/svg">
<path d="M5.20711 46C3.72274 46 2.48433 45.494 1.49189 44.482C0.499445 43.47 0.00214815 42.2061 0 40.6903V5.30971C0 3.7961 0.497296 2.53328 1.49189 1.52128C2.48648 0.509285 3.72381 0.00219048 5.20389 0H52.7961C54.2783 0 55.5157 0.507094 56.5081 1.52128C57.5006 2.53548 57.9979 3.79829 58 5.30971V40.6936C58 42.205 57.5027 43.4678 56.5081 44.482C55.5135 45.4962 54.2762 46.0022 52.7961 46H5.20711ZM29 23.3811L3.22222 6.19357V40.6936C3.22222 41.2828 3.40804 41.7669 3.77967 42.1459C4.1513 42.5248 4.62711 42.7143 5.20711 42.7143H52.7961C53.374 42.7143 53.8487 42.5248 54.2203 42.1459C54.592 41.7669 54.7778 41.2817 54.7778 40.6903V6.19028L29 23.3811ZM29 19.7143L53.7853 3.28571H4.21467L29 19.7143ZM3.22222 6.19357V3.28571V40.6936C3.22222 41.2828 3.40804 41.7669 3.77967 42.1459C4.1513 42.5248 4.62711 42.7143 5.20711 42.7143H3.22222V6.19357Z" fill="#203A40"/>
</svg>
