<svg width="56" height="56" viewBox="0 0 56 56" fill="none" xmlns="http://www.w3.org/2000/svg">
<path d="M28 4.25003C32.8211 4.25058 37.5278 5.71832 41.4946 8.45818C45.4615 11.198 48.5006 15.0803 50.208 19.5888C51.9154 24.0974 52.2102 29.0189 51.0534 33.6991C49.8965 38.3793 47.3427 42.5966 43.7314 45.7905C40.1201 48.9844 35.6222 51.0036 30.8357 51.5798C26.0492 52.156 21.2007 51.2618 16.9346 49.0162C12.6685 46.7706 9.1868 43.2798 6.9523 39.0078C4.71781 34.7359 3.83632 29.885 4.425 25.1C4.48467 24.6061 4.34568 24.1086 4.03859 23.7171C3.7315 23.3257 3.28147 23.0722 2.7875 23.0125C2.29353 22.9529 1.79609 23.0919 1.40461 23.3989C1.01313 23.706 0.759674 24.1561 0.7 24.65C0.566666 25.75 0.5 26.8667 0.5 28C0.5 43.1875 12.8125 55.5 28 55.5C43.1875 55.5 55.5 43.1875 55.5 28C55.5 12.8125 43.1875 0.500029 28 0.500029C21.0391 0.489846 14.3354 3.12935 9.25 7.88253V3.62503C9.25 3.12775 9.05246 2.65083 8.70083 2.2992C8.34919 1.94757 7.87228 1.75003 7.375 1.75003C6.87772 1.75003 6.40081 1.94757 6.04917 2.2992C5.69754 2.65083 5.5 3.12775 5.5 3.62503V13.625C5.5 14.66 6.34 15.5 7.375 15.5H17.375C17.8723 15.5 18.3492 15.3025 18.7008 14.9509C19.0525 14.5992 19.25 14.1223 19.25 13.625C19.25 13.1277 19.0525 12.6508 18.7008 12.2992C18.3492 11.9476 17.8723 11.75 17.375 11.75H10.68C12.8984 9.37903 15.5807 7.48968 18.5603 6.19944C21.5399 4.9092 24.753 4.24564 28 4.25003ZM29.25 12.375C29.25 11.8777 29.0525 11.4008 28.7008 11.0492C28.3492 10.6976 27.8723 10.5 27.375 10.5C26.8777 10.5 26.4008 10.6976 26.0492 11.0492C25.6975 11.4008 25.5 11.8777 25.5 12.375V28.625C25.5 29.66 26.34 30.5 27.375 30.5H38.625C39.1223 30.5 39.5992 30.3025 39.9508 29.9509C40.3025 29.5992 40.5 29.1223 40.5 28.625C40.5 28.1277 40.3025 27.6508 39.9508 27.2992C39.5992 26.9476 39.1223 26.75 38.625 26.75H29.25V12.375Z" fill="#203A40"/>
</svg>
