<svg width="88" height="73" viewBox="0 0 88 73" fill="none" xmlns="http://www.w3.org/2000/svg">
<path d="M30.4406 7.76046C31.7172 5.41312 33.6062 3.45296 35.908 2.08701C38.2097 0.721053 40.8389 0 43.5178 0C46.1967 0 48.8259 0.721053 51.1277 2.08701C53.4295 3.45296 55.3184 5.41312 56.5951 7.76046C58.1566 6.10812 60.1853 4.96792 62.4119 4.49107C64.6386 4.01422 66.9581 4.22324 69.0628 5.09043C71.1676 5.95761 72.9581 7.44199 74.197 9.34671C75.4359 11.2514 76.0646 13.4865 75.9998 15.7555C75.935 18.0246 75.1797 20.2204 73.834 22.0517C72.4884 23.8831 70.616 25.2635 68.4652 26.0099C66.3144 26.7564 63.9867 26.8335 61.7909 26.2311C59.595 25.6288 57.6348 24.3754 56.1701 22.6371C54.8362 24.7852 52.9737 26.5579 50.7594 27.787C48.5451 29.0162 46.0524 29.661 43.5178 29.6604C40.9844 29.6607 38.4928 29.0162 36.2793 27.7878C34.0659 26.5595 32.2038 24.788 30.8698 22.6414C29.4048 24.379 27.4445 25.6319 25.2488 26.2337C23.053 26.8356 20.7256 26.7581 18.5751 26.0114C16.4246 25.2648 14.5526 23.8844 13.2072 22.0531C11.8619 20.2218 11.1067 18.0262 11.0419 15.7574C10.9771 13.4886 11.6058 11.2538 12.8444 9.34922C14.0831 7.44464 15.8733 5.96027 17.9777 5.09293C20.0821 4.22559 22.4013 4.01624 24.6278 4.49264C26.8543 4.96903 28.8787 6.10868 30.4406 7.76046ZM33.1351 12.5895C33.5735 14.2488 33.6244 15.9863 33.2838 17.6684C33.9063 19.8985 35.2445 21.8641 37.0938 23.2645C38.9431 24.6649 41.2017 25.4231 43.5242 25.4231C45.8467 25.4231 48.1053 24.6649 49.9546 23.2645C51.8039 21.8641 53.1421 19.8985 53.7646 17.6684C53.4235 15.9851 53.4729 14.2465 53.9091 12.5852C53.3938 10.2213 52.0824 8.10425 50.1928 6.58608C48.3032 5.0679 45.9492 4.24 43.5221 4.24C41.095 4.24 38.7409 5.0679 36.8513 6.58608C34.9617 8.10425 33.6503 10.2255 33.1351 12.5895ZM28.7746 12.8902C28.1744 11.3653 27.0538 10.1002 25.6099 9.31764C24.1661 8.53509 22.4916 8.2852 20.8812 8.61195C19.2707 8.93871 17.8275 9.82117 16.8055 11.104C15.7835 12.3869 15.2483 13.9879 15.294 15.6254C15.3397 17.2628 15.9635 18.8317 17.0554 20.0559C18.1474 21.2801 19.6376 22.0812 21.2638 22.3182C22.89 22.5552 24.548 22.2129 25.9459 21.3515C27.3439 20.4901 28.3921 19.1649 28.9063 17.6091C28.6098 16.0532 28.5653 14.4601 28.7746 12.8902ZM58.1378 17.6048C58.6515 19.1622 59.7 20.489 61.0987 21.3517C62.4973 22.2144 64.1565 22.5576 65.7841 22.3209C67.4117 22.0842 68.9033 21.2828 69.9964 20.0577C71.0894 18.8327 71.7138 17.2626 71.7596 15.6238C71.8054 13.9851 71.2697 12.3828 70.2467 11.099C69.2238 9.81521 67.7792 8.93228 66.1674 8.60565C64.5555 8.27903 62.8798 8.52965 61.4351 9.31339C59.9904 10.0971 58.8694 11.3637 58.2696 12.8902C58.4783 14.4587 58.4339 16.0504 58.1378 17.6048ZM13.5596 28.8005C15.0343 28.4107 16.4283 28.8936 17.3888 29.5883C17.7713 29.8637 18.2983 30.2026 18.9401 30.5118C19.4314 30.7655 19.804 31.2002 19.9787 31.7235C20.1534 32.2468 20.1165 32.8174 19.8757 33.314C19.6349 33.8105 19.2092 34.1939 18.6893 34.3825C18.1693 34.5712 17.596 34.5502 17.0913 34.3241C16.3216 33.9548 15.5863 33.5182 14.8941 33.0195C14.8251 32.9704 14.7492 32.9318 14.6688 32.9051L14.6391 32.9009C14.066 33.0533 13.4977 33.2228 12.9348 33.4092L10.0193 34.358C8.93207 34.7108 7.94937 35.3264 7.15885 36.1498C6.36833 36.9732 5.79459 37.9788 5.48881 39.0769L4.28606 47.7564C4.04806 49.4634 4.95331 50.7427 6.24106 51.0477C7.19022 51.2793 8.34197 51.5052 9.6963 51.7254C9.97201 51.7699 10.2362 51.8681 10.4739 52.0144C10.7115 52.1607 10.9179 52.3522 11.0813 52.578C11.2447 52.8037 11.3618 53.0594 11.4261 53.3303C11.4904 53.6012 11.5005 53.8821 11.4558 54.1569C11.4112 54.4317 11.3126 54.695 11.1659 54.9319C11.0191 55.1687 10.827 55.3744 10.6005 55.5373C10.3739 55.7001 10.1174 55.8169 9.84563 55.881C9.57382 55.945 9.29202 55.9551 9.0163 55.9106C7.7551 55.7104 6.50188 55.4632 5.2593 55.1693C1.45555 54.267 -0.405946 50.6368 0.0743044 47.176L1.3153 38.2551L1.3408 38.1407C1.80623 36.327 2.72443 34.6601 4.00997 33.2951C5.29551 31.9301 6.90659 30.9114 8.69331 30.3339L11.6046 29.3808C12.2562 29.169 12.9079 28.9755 13.5596 28.8005ZM74.0328 28.8005C73.3766 28.6403 72.6928 28.628 72.0311 28.7643C71.3695 28.9005 70.7466 29.1821 70.2078 29.5883C69.8253 29.8637 69.2983 30.2026 68.6566 30.5118C68.1653 30.7655 67.7926 31.2002 67.6179 31.7235C67.4432 32.2468 67.4802 32.8174 67.721 33.314C67.9618 33.8105 68.3874 34.1939 68.9073 34.3825C69.4273 34.5712 70.0006 34.5502 70.5053 34.3241C71.275 33.9548 72.0103 33.5182 72.7026 33.0195C72.7715 32.9704 72.8474 32.9318 72.9278 32.9051L72.9491 32.9009H72.9576C73.5327 33.0505 74.1008 33.22 74.6618 33.4092L77.5773 34.358C79.8128 35.0908 81.5086 36.8742 82.1078 39.0769L83.3106 47.7564C83.5486 49.4634 82.6476 50.7427 81.3556 51.0477C80.2128 51.3168 79.0602 51.5429 77.9003 51.7254C77.3435 51.8153 76.8453 52.122 76.5153 52.578C76.1853 53.0339 76.0506 53.6019 76.1408 54.1569C76.231 54.7119 76.5387 55.2084 76.9962 55.5373C77.4537 55.8662 78.0235 56.0004 78.5803 55.9106C80.031 55.6705 81.2833 55.4234 82.3373 55.1693C86.1411 54.267 88.0026 50.6368 87.5223 47.176L86.2813 38.2551L86.2558 38.1407C85.7904 36.327 84.8722 34.6601 83.5866 33.2951C82.3011 31.9301 80.69 30.9114 78.9033 30.3339L75.9921 29.3808C75.3457 29.17 74.6895 28.9765 74.0328 28.8005Z" fill="#203A40"/>
<path d="M51.1294 35.6761C52.6551 34.6679 54.7844 33.9393 56.9816 34.5535C57.6446 34.7399 58.3062 34.9418 58.9664 35.1593L63.0421 36.4936C65.407 37.259 67.5394 38.6079 69.241 40.4149C70.9426 42.222 72.1581 44.4285 72.7746 46.8293L72.8044 46.9437L74.5299 59.3805C75.1546 63.8706 72.7449 68.4878 67.9254 69.6315C63.0379 70.7921 55.1244 72.0206 43.5176 72.0206C31.9151 72.0206 23.9974 70.7921 19.1099 69.6315C14.2904 68.4878 11.8806 63.8706 12.5054 59.3805L14.2309 46.9437L14.2606 46.8293C14.8771 44.4285 16.0927 42.222 17.7943 40.4149C19.4958 38.6079 21.6282 37.259 23.9931 36.4936L28.0731 35.1593C28.7304 34.9418 29.3906 34.7399 30.0536 34.5535C32.2509 33.9351 34.3801 34.6679 35.9059 35.6761C37.5336 36.752 40.2111 38.0736 43.5176 38.0736C46.8241 38.0736 49.5059 36.752 51.1294 35.6761ZM55.8256 38.6285C55.2221 38.4591 54.3806 38.6116 53.4796 39.2046C51.4524 40.5474 47.9546 42.3096 43.5176 42.3096C39.0806 42.3096 35.5829 40.5474 33.5556 39.2046C32.6589 38.6116 31.8131 38.4591 31.2096 38.6285C30.6004 38.798 29.997 38.9815 29.3991 39.1792L25.3191 40.5178C23.6542 41.058 22.1506 42.0032 20.9441 43.2678C19.7376 44.5325 18.8662 46.0768 18.4086 47.7612L16.7129 59.9608C16.3304 62.7015 17.7881 64.9592 20.0959 65.5099C24.6306 66.5901 32.2169 67.7846 43.5176 67.7846C54.8184 67.7846 62.4046 66.5901 66.9394 65.5099C69.2471 64.9592 70.7006 62.7015 70.3224 59.9608L68.6266 47.7612C68.169 46.0768 67.2976 44.5325 66.0911 43.2678C64.8846 42.0032 63.381 41.058 61.7161 40.5178L57.6361 39.1834C57.0383 38.9858 56.4348 38.8022 55.8256 38.6328" fill="#203A40"/>
</svg>
