<svg width="107" height="111" viewBox="0 0 107 111" fill="none" xmlns="http://www.w3.org/2000/svg">
<path d="M47.5262 47.5779V26.7617H59.4212V47.5779H80.2374V59.4729H59.4212L59.4182 80.2891H47.5232V59.4729H26.707V47.5779H47.5262Z" fill="#203A40"/>
<path d="M47.5262 47.5779V26.7617H59.4212V47.5779H80.2374V59.4729H59.4212L59.4182 80.2891H47.5232V59.4729H26.707V47.5779H47.5262Z" stroke="black"/>
<path d="M23.2091 92.1576C30.4888 98.7326 38.4644 104.163 47.4689 108.445C52.2923 110.735 58.0137 110.526 62.6379 107.889C70.438 103.44 77.2271 98.0843 83.7901 92.1576C97.7043 79.5906 105.814 62.2983 106.346 44.0603L106.967 22.7951C107.039 20.3209 106.97 14.8671 106.97 14.8671C103.846 14.3744 100.711 13.9521 97.5675 13.6003L97.5401 13.597C87.8252 12.4324 78.1529 11.2729 69.6649 6.08265L63.6074 2.38034C61.0345 0.823192 58.0845 0 55.0772 0C52.0698 0 49.1198 0.823192 46.547 2.38034L40.7452 5.92801C31.0309 11.863 19.1938 12.9875 7.73695 14.0758L7.73371 14.0761C5.13764 14.3229 2.5594 14.5697 0.0317199 14.8671C0.0317199 14.8671 -0.0396499 20.3536 0.0317199 22.8635L0.653232 44.0603C1.18553 62.2983 9.29493 79.5906 23.2091 92.1576ZM5.94947 20.2228C5.94947 21.1744 5.95839 22.0516 5.97921 22.691L6.59774 43.8878C7.08246 60.4516 14.4484 76.2303 27.1939 87.7446C34.0692 93.9508 41.566 99.0508 50.0233 103.071C51.5462 103.788 53.2186 104.131 54.9008 104.071C56.5831 104.01 58.2265 103.548 59.6939 102.723C66.9944 98.5601 73.4296 93.5017 79.8053 87.7446C92.5508 76.2303 99.9167 60.4546 100.401 43.8878L101.023 22.6226C101.041 21.9565 101.053 21.0198 101.053 20.0206C99.661 19.8441 98.2435 19.6697 96.8003 19.4972L96.6397 19.4794C93.3363 19.1084 90.0424 18.6573 86.7609 18.1263C80.0878 16.9963 73.1055 15.1555 66.5633 11.1588L60.5057 7.45354C58.8668 6.46711 56.9901 5.94589 55.0772 5.94589C53.1643 5.94589 51.2875 6.46711 49.6486 7.45354L43.8468 11.0012C36.9478 15.215 29.335 17.2134 21.9988 18.3939C17.4969 19.1178 12.6516 19.5825 8.10508 20.0185L7.95972 20.0325L5.94947 20.2228Z" fill="#203A40"/>
<path d="M23.2091 92.1576C30.4888 98.7326 38.4644 104.163 47.4689 108.445C52.2923 110.735 58.0137 110.526 62.6379 107.889C70.438 103.44 77.2271 98.0843 83.7901 92.1576C97.7043 79.5906 105.814 62.2983 106.346 44.0603L106.967 22.7951C107.039 20.3209 106.97 14.8671 106.97 14.8671C103.846 14.3744 100.711 13.9521 97.5675 13.6003L97.5401 13.597C87.8252 12.4324 78.1529 11.2729 69.6649 6.08265L63.6074 2.38034C61.0345 0.823192 58.0845 0 55.0772 0C52.0698 0 49.1198 0.823192 46.547 2.38034L40.7452 5.92801C31.0309 11.863 19.1938 12.9875 7.73695 14.0758L7.73371 14.0761C5.13764 14.3229 2.5594 14.5697 0.0317199 14.8671C0.0317199 14.8671 -0.0396499 20.3536 0.0317199 22.8635L0.653232 44.0603C1.18553 62.2983 9.29493 79.5906 23.2091 92.1576ZM5.94947 20.2228C5.94947 21.1744 5.95839 22.0516 5.97921 22.691L6.59774 43.8878C7.08246 60.4516 14.4484 76.2303 27.1939 87.7446C34.0692 93.9508 41.566 99.0508 50.0233 103.071C51.5462 103.788 53.2186 104.131 54.9008 104.071C56.5831 104.01 58.2265 103.548 59.6939 102.723C66.9944 98.5601 73.4296 93.5017 79.8053 87.7446C92.5508 76.2303 99.9167 60.4546 100.401 43.8878L101.023 22.6226C101.041 21.9565 101.053 21.0198 101.053 20.0206C99.661 19.8441 98.2435 19.6697 96.8003 19.4972L96.6397 19.4794C93.3363 19.1084 90.0424 18.6573 86.7609 18.1263C80.0878 16.9963 73.1055 15.1555 66.5633 11.1588L60.5057 7.45354C58.8668 6.46711 56.9901 5.94589 55.0772 5.94589C53.1643 5.94589 51.2875 6.46711 49.6486 7.45354L43.8468 11.0012C36.9478 15.215 29.335 17.2134 21.9988 18.3939C17.4969 19.1178 12.6516 19.5825 8.10508 20.0185L7.95972 20.0325L5.94947 20.2228Z" stroke="black"/>
</svg>
