<svg width="101" height="92" viewBox="0 0 101 92" fill="none" xmlns="http://www.w3.org/2000/svg">
<path d="M49.213 2.00113C45.7996 1.93291 42.9709 4.96593 42.8949 8.77032C42.8189 12.58 45.5218 15.7232 48.9325 15.7914C52.3458 15.8649 55.1771 12.8345 55.2558 9.0222C55.3318 5.21518 52.6263 2.06672 49.213 2.00113ZM67.538 10.9165C66.9759 10.9049 66.415 10.9756 65.8733 11.1264C62.3656 12.0605 59.4137 14.3457 55.9086 17.7644C52.663 20.9339 49.1553 22.9384 47.4513 21.5504C42.2185 17.2895 35.5754 10.6515 32.356 11.9188C30.07 12.8213 30.416 15.146 32.2984 17.565C34.8806 20.8027 42.1215 26.2758 41.7047 29.4426C41.0493 34.4539 38.3857 36.9727 35.7694 40.2366C34.5844 41.7163 34.3091 43.2328 34.608 44.4371C32.3115 46.3341 29.9704 48.4147 27.8338 50.1516C25.8859 51.7363 21.8696 49.4432 18.16 45.8303C14.1516 41.9236 10.7776 39.3156 6.76915 38.2478C1.07239 36.7365 0.280669 42.59 5.47145 46.3551C9.17578 49.047 13.3127 49.4694 16.0575 53.7435C18.0657 56.8709 16.996 61.0112 14.9931 63.9418C11.8472 68.5491 7.94101 71.4982 6.57253 77.5327C5.83848 80.773 8.61214 82.0796 12.3506 80.9383C16.6552 79.6212 18.5061 74.1586 24.9343 67.0011C25.5818 66.2822 26.675 66.214 27.4169 67.0903L35.9765 77.2231C37.151 78.556 38.4093 79.0597 39.5157 78.9889C38.8812 79.7681 38.2206 80.5421 37.5573 81.3633C34.0444 85.7449 38.5404 90.4493 42.1137 86.3904L49.601 77.5117C50.2459 76.7456 51.208 76.8086 51.7717 77.4382C57.3924 83.7063 59.0152 88.492 62.7772 89.6438C66.0489 90.6461 68.4766 89.4969 67.8316 86.6554C66.804 82.1085 64.1273 79.5556 61.6446 76.3599C62.7116 76.3783 63.9097 75.8614 65.0265 74.5941L73.5834 64.4587C74.3227 63.5824 75.4238 63.6506 76.0714 64.3695C82.4995 71.527 84.3504 76.9896 88.6524 78.3067C92.3935 79.4506 95.1698 78.1414 94.4331 74.9011C93.0646 68.8666 89.1584 65.9096 86.0099 61.305C84.0069 58.3769 82.9373 54.2367 84.9455 51.1119C87.6903 46.8352 91.8246 46.4154 95.5263 43.7261C100.717 39.9584 99.9306 34.1049 94.2338 35.6188C90.228 36.684 86.8462 39.292 82.8377 43.1987C79.1281 46.8116 75.1171 49.1047 73.1692 47.52C69.9525 44.9042 65.986 41.8633 62.979 39.1503C61.2881 37.6286 60.0691 35.6582 58.677 33.6248C56.9257 31.0614 55.9898 27.4328 57.7463 24.6937C60.1451 20.9522 63.7655 20.5849 67.0058 18.2288C70.9776 15.3427 70.9461 11.0556 67.538 10.9165ZM75.1852 25.2053C71.2817 25.1266 68.0519 28.5899 67.9627 32.9348C67.8736 37.2796 70.9671 40.8715 74.8707 40.9502C78.7742 41.0289 82.0014 37.5656 82.0932 33.2181C82.1797 28.8706 79.0888 25.284 75.1852 25.2053ZM25.8125 27.8343C21.9116 27.913 18.8181 31.4996 18.9072 35.8497C18.9937 40.1998 22.2314 43.6579 26.135 43.5792C30.0359 43.5005 33.1294 39.9112 33.0403 35.5637C32.9511 31.2162 29.7187 27.7503 25.8125 27.8343ZM48.9351 35.8235C49.3388 35.8235 49.7216 36.0019 49.989 36.3089C55.6097 42.5795 57.2246 47.3626 60.9892 48.5144C61.9933 48.824 64.8535 52.4237 65.3306 53.1111C62.7772 54.2997 60.3968 56.2596 57.6913 58.8964C54.4457 62.0606 50.938 64.073 49.234 62.6851C45.4169 59.576 40.8527 55.2154 37.4131 53.565C39.9613 50.7236 43.4454 47.7351 45.1547 45.5968C47.2206 42.9416 47.661 40.394 45.3645 39.2842L47.8104 36.3876C47.9436 36.2162 48.113 36.0765 48.3066 35.9785C48.5002 35.8805 48.713 35.8267 48.9298 35.8209L48.9351 35.8235ZM51.0009 43.1331C47.5876 43.0649 44.7562 46.0979 44.6828 49.9076C44.6094 53.7172 47.3123 56.8526 50.723 56.9287C54.1337 56.9942 56.9625 53.9639 57.0411 50.1568C57.1145 46.3472 54.4142 43.2014 51.0009 43.1331ZM34.3904 59.0591C37.1877 62.3283 43.8937 67.5232 43.4926 70.572C43.3345 71.8235 43.01 73.0482 42.5279 74.2137C42.3002 73.2115 41.8405 72.2768 41.1856 71.485C38.1917 67.7594 35.1481 64.8759 34.3957 59.1536L34.3904 59.0591ZM65.1917 61.4021C63.8468 64.2436 61.8177 66.3609 59.8174 68.8534C59.3298 69.4656 58.9715 70.0726 58.7425 70.6743C58.4279 69.003 58.5983 67.2897 59.5369 65.8283C61.0653 63.4407 63.0865 62.4306 65.1917 61.4021Z" stroke="#203A40" stroke-width="4" stroke-linecap="round" stroke-linejoin="round"/>
</svg>
