<svg width="35" height="34" viewBox="0 0 35 34" fill="none" xmlns="http://www.w3.org/2000/svg">
<path d="M13.6089 0.283203C6.29464 0.283203 0.34375 6.10473 0.34375 13.26C0.34375 20.4152 6.29464 26.2367 13.6089 26.2367C16.6519 26.2367 19.4502 25.2183 21.6909 23.5262L31.3317 32.9575C31.9979 33.6092 33.0779 33.6092 33.7441 32.9575C34.4103 32.3057 34.4103 31.2492 33.7441 30.5975L24.1033 21.1663C25.833 18.9743 26.874 16.2369 26.874 13.26C26.874 6.10472 20.9231 0.283203 13.6089 0.283203ZM13.6089 3.16693C19.2974 3.16693 23.9262 7.6951 23.9262 13.26C23.9262 18.8248 19.2974 23.353 13.6089 23.353C7.92036 23.353 3.29156 18.8248 3.29156 13.26C3.29156 7.6951 7.92036 3.16693 13.6089 3.16693Z" fill="#203A40"/>
</svg>
