<svg width="44" height="44" viewBox="0 0 44 44" fill="none" xmlns="http://www.w3.org/2000/svg">
<path d="M15.6842 0.516602H3.55091C2.74642 0.516602 1.97488 0.836184 1.40602 1.40504C0.837161 1.9739 0.517578 2.74544 0.517578 3.54994V15.6833C0.517578 16.4878 0.837161 17.2593 1.40602 17.8282C1.97488 18.397 2.74642 18.7166 3.55091 18.7166H15.6842C16.4887 18.7166 17.2603 18.397 17.8291 17.8282C18.398 17.2593 18.7176 16.4878 18.7176 15.6833V3.54994C18.7176 2.74544 18.398 1.9739 17.8291 1.40504C17.2603 0.836184 16.4887 0.516602 15.6842 0.516602ZM39.9509 0.516602H27.8176C27.0131 0.516602 26.2416 0.836184 25.6727 1.40504C25.1038 1.9739 24.7842 2.74544 24.7842 3.54994V15.6833C24.7842 16.4878 25.1038 17.2593 25.6727 17.8282C26.2416 18.397 27.0131 18.7166 27.8176 18.7166H39.9509C40.7554 18.7166 41.5269 18.397 42.0958 17.8282C42.6647 17.2593 42.9842 16.4878 42.9842 15.6833V3.54994C42.9842 2.74544 42.6647 1.9739 42.0958 1.40504C41.5269 0.836184 40.7554 0.516602 39.9509 0.516602ZM39.9509 24.7833H27.8176C27.0131 24.7833 26.2416 25.1029 25.6727 25.6717C25.1038 26.2406 24.7842 27.0121 24.7842 27.8166V39.9499C24.7842 40.7544 25.1038 41.526 25.6727 42.0948C26.2416 42.6637 27.0131 42.9833 27.8176 42.9833H39.9509C40.7554 42.9833 41.5269 42.6637 42.0958 42.0948C42.6647 41.526 42.9842 40.7544 42.9842 39.9499V27.8166C42.9842 27.0121 42.6647 26.2406 42.0958 25.6717C41.5269 25.1029 40.7554 24.7833 39.9509 24.7833ZM15.6842 24.7833H3.55091C2.74642 24.7833 1.97488 25.1029 1.40602 25.6717C0.837161 26.2406 0.517578 27.0121 0.517578 27.8166V39.9499C0.517578 40.7544 0.837161 41.526 1.40602 42.0948C1.97488 42.6637 2.74642 42.9833 3.55091 42.9833H15.6842C16.4887 42.9833 17.2603 42.6637 17.8291 42.0948C18.398 41.526 18.7176 40.7544 18.7176 39.9499V27.8166C18.7176 27.0121 18.398 26.2406 17.8291 25.6717C17.2603 25.1029 16.4887 24.7833 15.6842 24.7833Z" stroke="#203A40" stroke-width="0.8"/>
</svg>
