<svg width="43" height="41" viewBox="0 0 43 41" fill="none" xmlns="http://www.w3.org/2000/svg">
<path d="M42 20.4989H14.6187M4.95373 20.4989H1M4.95373 20.4989C4.95373 19.2159 5.46275 17.9854 6.3688 17.0782C7.27485 16.171 8.50373 15.6613 9.78508 15.6613C11.0664 15.6613 12.2953 16.171 13.2014 17.0782C14.1074 17.9854 14.6164 19.2159 14.6164 20.4989C14.6164 21.7819 14.1074 23.0123 13.2014 23.9196C12.2953 24.8268 11.0664 25.3364 9.78508 25.3364C8.50373 25.3364 7.27485 24.8268 6.3688 23.9196C5.46275 23.0123 4.95373 21.7819 4.95373 20.4989ZM42 35.1602H29.2612M29.2612 35.1602C29.2612 36.4435 28.7509 37.6754 27.8447 38.5828C26.9384 39.4902 25.7093 40 24.4276 40C23.1463 40 21.9174 39.4881 21.0113 38.5809C20.1053 37.6737 19.5963 36.4432 19.5963 35.1602M29.2612 35.1602C29.2612 33.8769 28.7509 32.6473 27.8447 31.7399C26.9384 30.8325 25.7093 30.3227 24.4276 30.3227C23.1463 30.3227 21.9174 30.8323 21.0113 31.7396C20.1053 32.6468 19.5963 33.8772 19.5963 35.1602M19.5963 35.1602H1M42 5.83755H35.1187M25.4537 5.83755H1M25.4537 5.83755C25.4537 4.55455 25.9627 3.3241 26.8688 2.41689C27.7749 1.50967 29.0037 1 30.2851 1C30.9195 1 31.5478 1.12513 32.134 1.36824C32.7201 1.61135 33.2527 1.96768 33.7014 2.41689C34.15 2.86609 34.5059 3.39938 34.7487 3.9863C34.9915 4.57322 35.1164 5.20228 35.1164 5.83755C35.1164 6.47283 34.9915 7.10189 34.7487 7.68881C34.5059 8.27572 34.15 8.80901 33.7014 9.25822C33.2527 9.70743 32.7201 10.0638 32.134 10.3069C31.5478 10.55 30.9195 10.6751 30.2851 10.6751C29.0037 10.6751 27.7749 10.1654 26.8688 9.25822C25.9627 8.351 25.4537 7.12055 25.4537 5.83755Z" stroke="white" stroke-width="0.75" stroke-miterlimit="10" stroke-linecap="round"/>
</svg>
