<svg width="47" height="47" viewBox="0 0 47 47" fill="none" xmlns="http://www.w3.org/2000/svg">
<path d="M0.832031 22.385C0.832031 19.7505 1.38258 19.2 4.01703 19.2H43.147C45.7815 19.2 46.332 19.7505 46.332 22.385V25.115C46.332 27.7495 45.7815 28.3 43.147 28.3H4.01703C1.38258 28.3 0.832031 27.7495 0.832031 25.115V22.385ZM0.832031 4.185C0.832031 1.55055 1.38258 1 4.01703 1H43.147C45.7815 1 46.332 1.55055 46.332 4.185V6.915C46.332 9.54945 45.7815 10.1 43.147 10.1H4.01703C1.38258 10.1 0.832031 9.54945 0.832031 6.915V4.185ZM0.832031 40.585C0.832031 37.9506 1.38258 37.4 4.01703 37.4H43.147C45.7815 37.4 46.332 37.9506 46.332 40.585V43.315C46.332 45.9495 45.7815 46.5 43.147 46.5H4.01703C1.38258 46.5 0.832031 45.9495 0.832031 43.315V40.585Z" stroke="#F2695C" stroke-width="0.75" stroke-linecap="round" stroke-linejoin="round"/>
</svg>
