<svg width="59" height="59" viewBox="0 0 59 59" fill="none" xmlns="http://www.w3.org/2000/svg">
<path d="M25.9149 8.31494e-07C25.287 0.000334338 24.7516 0.45516 24.6497 1.07478L23.4021 8.71346C21.9018 9.14988 20.4713 9.73874 19.123 10.4722L12.8197 5.97014C12.3101 5.60625 11.6122 5.66343 11.1687 6.10543L6.17809 11.091C5.73787 11.5315 5.67764 12.2246 6.03529 12.7345L10.4697 19.0779C9.72492 20.434 9.12302 21.8727 8.67588 23.387L1.06976 24.6522C0.452134 24.7563 -7.48239e-05 25.2911 2.13916e-06 25.9174V32.9724C-0.00112665 33.5947 0.444592 34.1281 1.05724 34.2375L8.66836 35.5854C9.11308 37.0971 9.71116 38.5368 10.4572 39.8945L5.96764 46.1753C5.60375 46.6849 5.66093 47.3827 6.10293 47.8263L11.091 52.8169C11.5305 53.2565 12.222 53.3178 12.732 52.9622L19.0879 48.5128C20.4402 49.2505 21.8742 49.8437 23.3795 50.284L24.6497 57.9327C24.7526 58.5514 25.2878 59.0049 25.9149 59.005H32.9698C33.593 59.0059 34.1266 58.5589 34.235 57.9453L35.5954 50.2665C37.0945 49.8195 38.5218 49.2175 39.867 48.4752L46.2655 52.9647C46.7754 53.3224 47.4685 53.2621 47.909 52.8219L52.8971 47.8288C53.341 47.3839 53.3973 46.6828 53.0298 46.1728L48.4677 39.8394C49.1971 38.5007 49.7848 37.0819 50.2214 35.5929L57.9403 34.24C58.5539 34.1317 59.0009 33.598 59 32.9748V25.9199C58.9997 25.292 58.5448 24.7566 57.9252 24.6547L50.2189 23.3945C49.7794 21.9073 49.1901 20.491 48.4602 19.1531L52.9597 12.742C53.3174 12.2321 53.2571 11.539 52.8169 11.0985L47.8263 6.11043C47.3814 5.66646 46.6803 5.61023 46.1703 5.97764L39.8544 10.5198C38.5088 9.78047 37.0805 9.18167 35.5779 8.7385L34.235 1.06224C34.1278 0.447605 33.5938 -0.000704663 32.9699 8.31494e-07H25.9149ZM27.0072 2.56544H31.8926L33.1703 9.85839C33.2571 10.3581 33.6303 10.7597 34.1223 10.8831C35.9983 11.3506 37.7602 12.0916 39.3684 13.0652C39.8079 13.3315 40.3639 13.3098 40.7814 13.0101L46.7841 8.69593L50.2389 12.1507L45.9649 18.2412C45.6732 18.6562 45.6536 19.2042 45.9148 19.6391C46.8787 21.2437 47.6098 22.9945 48.0769 24.8602C48.2011 25.3568 48.6088 25.732 49.114 25.8147L56.4345 27.0122V31.8976L49.099 33.1853C48.5989 33.2738 48.1981 33.6491 48.0769 34.1423C47.6152 36.0056 46.8837 37.7564 45.9198 39.3609C45.6553 39.8003 45.678 40.355 45.9774 40.7714L50.3116 46.7866L46.8568 50.2439L40.7764 45.9774C40.3592 45.6851 39.8086 45.6674 39.3734 45.9323C37.7732 46.9059 36.0095 47.6504 34.1398 48.1244C33.6502 48.2479 33.2786 48.647 33.1903 49.1441L31.8951 56.4395H27.0022L25.7947 49.1767C25.7106 48.6717 25.3345 48.265 24.8376 48.142C22.9605 47.6793 21.1907 46.9394 19.5715 45.9674C19.1372 45.7073 18.5905 45.7269 18.176 46.0175L12.1432 50.2439L8.68592 46.7816L12.95 40.8215C13.2478 40.4041 13.2685 39.8494 13.0026 39.411C12.02 37.7874 11.2769 36.0177 10.8079 34.1323C10.6854 33.6417 10.2861 33.2689 9.78826 33.1803L2.56546 31.8976V27.0047L9.78325 25.8046C10.2875 25.721 10.694 25.346 10.8179 24.8501C11.2909 22.9582 12.0337 21.1888 13.0126 19.5689C13.2763 19.1344 13.2587 18.5851 12.9675 18.1685L8.75356 12.1457L12.2134 8.68839L18.1936 12.9624C18.6093 13.2589 19.1613 13.2806 19.599 13.0176C21.2097 12.0502 22.9836 11.3162 24.8627 10.8555C25.362 10.7325 25.7397 10.3233 25.8222 9.81577L27.0072 2.56544ZM29.5 19.2408C23.8478 19.2408 19.2383 23.8503 19.2383 29.5025C19.2383 35.1547 23.8478 39.7642 29.5 39.7642C35.1522 39.7642 39.7617 35.1547 39.7617 29.5025C39.7617 23.8503 35.1522 19.2408 29.5 19.2408ZM29.5 21.8062C33.7657 21.8062 37.1963 25.2368 37.1963 29.5025C37.1963 33.7682 33.7657 37.1988 29.5 37.1988C25.2343 37.1988 21.8037 33.7682 21.8037 29.5025C21.8037 25.2368 25.2343 21.8062 29.5 21.8062Z" fill="#203A40"/>
</svg>
