<svg width="27" height="27" viewBox="0 0 27 27" fill="none" xmlns="http://www.w3.org/2000/svg">
<path d="M10.5652 5.59762e-06C4.73965 5.59762e-06 0 4.73965 0 10.5652C0 16.3907 4.73965 21.1303 10.5652 21.1303C12.9888 21.1303 15.2175 20.3012 17.0022 18.9235L24.6807 26.602C25.2113 27.1327 26.0714 27.1327 26.602 26.602C27.1327 26.0714 27.1327 25.2113 26.602 24.6807L18.9235 17.0022C20.3012 15.2175 21.1303 12.9888 21.1303 10.5652C21.1303 4.73965 16.3907 5.59762e-06 10.5652 5.59762e-06ZM10.5652 2.34782C15.0958 2.34782 18.7825 6.03447 18.7825 10.5652C18.7825 15.0959 15.0958 18.7825 10.5652 18.7825C6.03446 18.7825 2.34781 15.0959 2.34781 10.5652C2.34781 6.03447 6.03446 2.34782 10.5652 2.34782Z" fill="#203A40"/>
</svg>
