<svg width="54" height="61" viewBox="0 0 54 61" fill="none" xmlns="http://www.w3.org/2000/svg">
<path d="M27 0C24.1724 0 21.8571 2.18795 21.8571 4.86C21.8571 5.48649 21.9877 6.09399 22.2188 6.64453C14.9866 8.41957 10.2857 14.3569 10.2857 21.87C10.2857 31.3859 7.81474 35.7191 5.46429 38.1586C4.28907 39.3783 3.1289 40.1187 2.12946 40.8164C1.62724 41.1629 1.17021 41.5093 0.763393 41.9555C0.35658 42.4016 0 43.0376 0 43.74C0 45.4106 1.08482 46.8297 2.61161 47.7647C4.13839 48.6997 6.14229 49.3024 8.55804 49.777C11.692 50.3893 15.5591 50.712 19.808 50.8781C19.4866 51.685 19.2857 52.5535 19.2857 53.46C19.2857 57.4704 22.7561 60.75 27 60.75C31.2439 60.75 34.7143 57.4704 34.7143 53.46C34.7143 52.5488 34.5184 51.6802 34.192 50.8781C38.4408 50.712 42.308 50.3893 45.442 49.777C47.8577 49.3024 49.8616 48.6997 51.3884 47.7647C52.9152 46.8297 54 45.4106 54 43.74C54 43.0376 53.6434 42.4016 53.2366 41.9555C52.8298 41.5093 52.3728 41.1629 51.8705 40.8164C50.8711 40.1187 49.7109 39.3783 48.5357 38.1586C46.1853 35.7191 43.7143 31.3859 43.7143 21.87C43.7143 14.3617 39.0033 8.42906 31.7812 6.64453C32.0123 6.09399 32.1429 5.48649 32.1429 4.86C32.1429 2.18795 29.8276 0 27 0ZM27 2.43C28.4364 2.43 29.5714 3.50261 29.5714 4.86C29.5714 6.21739 28.4364 7.29 27 7.29C25.5636 7.29 24.4286 6.21739 24.4286 4.86C24.4286 3.50261 25.5636 2.43 27 2.43ZM30.0134 8.73281C36.8689 9.88612 41.1429 14.8932 41.1429 21.87C41.1429 31.7941 43.8147 36.8914 46.6071 39.7913C48.0033 41.2388 49.4146 42.1453 50.3438 42.7908C50.8058 43.1135 51.1523 43.384 51.308 43.5502C51.4637 43.7163 51.4286 43.702 51.4286 43.74C51.4286 44.4994 51.0569 45.0547 49.9821 45.7144C48.9074 46.3741 47.1596 46.9863 44.9196 47.423C40.4397 48.301 34.0614 48.6 27 48.6C19.9386 48.6 13.5603 48.301 9.08036 47.423C6.8404 46.9863 5.09264 46.3741 4.01786 45.7144C2.94308 45.0547 2.57143 44.4994 2.57143 43.74C2.57143 43.702 2.53628 43.7163 2.69196 43.5502C2.84765 43.384 3.1942 43.1135 3.65625 42.7908C4.58538 42.1453 5.99665 41.2388 7.39286 39.7913C10.1853 36.8914 12.8571 31.7941 12.8571 21.87C12.8571 14.898 17.1362 9.92883 23.9866 8.77078C24.8404 9.36404 25.87 9.72 27 9.72C28.1401 9.72 29.1596 9.33556 30.0134 8.73281ZM22.5804 50.9541C24.0218 50.9825 25.4883 51.03 27 51.03C28.5117 51.03 29.9782 50.9825 31.4196 50.9541C31.8767 51.685 32.1429 52.5488 32.1429 53.46C32.1429 56.1605 29.8577 58.32 27 58.32C24.1423 58.32 21.8571 56.1605 21.8571 53.46C21.8571 52.5393 22.1133 51.685 22.5804 50.9541Z" fill="#203A40"/>
</svg>
