<svg width="31" height="25" viewBox="0 0 31 25" fill="none" xmlns="http://www.w3.org/2000/svg">
<path d="M5.04175 0.916016H25.6251C26.8849 0.916016 28.093 1.41646 28.9838 2.30726C29.8746 3.19806 30.3751 4.40624 30.3751 5.66602V19.916C30.3751 21.1758 29.8746 22.384 28.9838 23.2748C28.093 24.1656 26.8849 24.666 25.6251 24.666H5.04175C3.78197 24.666 2.57379 24.1656 1.68299 23.2748C0.792193 22.384 0.291748 21.1758 0.291748 19.916V5.66602C0.291748 4.40624 0.792193 3.19806 1.68299 2.30726C2.57379 1.41646 3.78197 0.916016 5.04175 0.916016ZM5.04175 2.49935C4.25008 2.49935 3.55341 2.76852 3.01508 3.24352L15.3334 11.2077L27.6518 3.24352C27.1134 2.76852 26.4167 2.49935 25.6251 2.49935H5.04175ZM15.3334 13.1235L2.08091 4.52602C1.95425 4.87435 1.87508 5.27018 1.87508 5.66602V19.916C1.87508 20.7559 2.20871 21.5613 2.80258 22.1552C3.39644 22.7491 4.2019 23.0827 5.04175 23.0827H25.6251C26.4649 23.0827 27.2704 22.7491 27.8643 22.1552C28.4581 21.5613 28.7917 20.7559 28.7917 19.916V5.66602C28.7917 5.27018 28.7126 4.87435 28.5859 4.52602L15.3334 13.1235Z" fill="#F2695C"/>
</svg>
