<svg width="30" height="15" viewBox="0 0 30 15" fill="none" xmlns="http://www.w3.org/2000/svg">
<path d="M29.5416 10.6426C29.4515 10.6951 29.3489 10.7223 29.2447 10.7213C29.1403 10.7214 29.0378 10.6941 28.9473 10.6419C28.8569 10.5898 28.7818 10.5148 28.7296 10.4244L25.5902 4.93221C23.724 6.29268 21.6112 7.27729 19.3692 7.8312L20.3385 13.5921C20.3642 13.7474 20.3272 13.9065 20.2356 14.0346C20.1441 14.1626 20.0054 14.249 19.8501 14.2749C19.8173 14.2806 19.784 14.2836 19.7506 14.2838C19.6103 14.2836 19.4745 14.2337 19.3675 14.1429C19.2604 14.0522 19.189 13.9264 19.1658 13.788L18.2143 8.07315C16.0883 8.43724 13.9159 8.43724 11.7899 8.07315L10.8385 13.788C10.8151 13.9279 10.7423 14.0549 10.6334 14.1458C10.5245 14.2368 10.3866 14.2857 10.2447 14.2838C10.2114 14.2836 10.1781 14.2806 10.1453 14.2749C9.98996 14.249 9.85129 14.1626 9.75971 14.0346C9.66813 13.9065 9.63115 13.7474 9.65689 13.5921L10.6188 7.82823C8.37752 7.27504 6.26517 6.29146 4.39924 4.93221L1.25979 10.4244C1.2076 10.5148 1.13251 10.5898 1.04208 10.6419C0.95165 10.6941 0.84908 10.7214 0.744707 10.7213C0.64047 10.7223 0.537902 10.6951 0.447832 10.6426C0.380117 10.6037 0.320744 10.5518 0.273114 10.4899C0.225485 10.428 0.190535 10.3573 0.170265 10.2819C0.149996 10.2065 0.144806 10.1278 0.154992 10.0504C0.165179 9.97293 0.190542 9.89827 0.229629 9.83065L3.44775 4.19893C2.28622 3.24316 1.22577 2.17078 0.283066 0.998619C0.227722 0.938843 0.18527 0.868318 0.158352 0.791431C0.131434 0.714544 0.120625 0.63294 0.126598 0.551697C0.132572 0.470453 0.155199 0.391309 0.193073 0.319186C0.230947 0.247063 0.283258 0.183504 0.34675 0.132465C0.410242 0.0814269 0.483557 0.0439998 0.562135 0.0225121C0.640712 0.00102446 0.722871 -0.00406326 0.803499 0.00756443C0.884128 0.0191921 0.961502 0.047286 1.03081 0.0901002C1.10011 0.132914 1.15986 0.189532 1.20635 0.256431C3.75057 3.40479 8.20963 7.15878 14.9947 7.15878C21.7798 7.15878 26.2388 3.40479 28.7831 0.254946C28.8295 0.188048 28.8893 0.131431 28.9586 0.0886166C29.0279 0.0458024 29.1053 0.0177074 29.1859 0.00607974C29.2665 -0.00554795 29.3487 -0.00046023 29.4273 0.0210274C29.5059 0.0425151 29.5792 0.0799433 29.6427 0.130982C29.7062 0.18202 29.7585 0.245578 29.7963 0.317701C29.8342 0.389824 29.8568 0.468969 29.8628 0.550212C29.8688 0.631455 29.858 0.713059 29.8311 0.789946C29.8041 0.866833 29.7617 0.937358 29.7063 0.997134C28.7636 2.1693 27.7032 3.24168 26.5417 4.19745L29.7598 9.83065C29.7989 9.89827 29.8242 9.97293 29.8344 10.0504C29.8446 10.1278 29.8394 10.2065 29.8191 10.2819C29.7989 10.3573 29.7639 10.428 29.7163 10.4899C29.6687 10.5518 29.6093 10.6037 29.5416 10.6426Z" fill="#F2695C"/>
</svg>
    