<svg width="31" height="25" viewBox="0 0 31 25" fill="none" xmlns="http://www.w3.org/2000/svg">
<path d="M10.9676 14.2316C10.8291 14.7587 10.8056 15.3058 10.8983 15.8413C10.9911 16.3768 11.1983 16.89 11.5079 17.3511C11.8176 17.8122 12.2235 18.2122 12.7021 18.5276C13.1808 18.8431 13.7227 19.0679 14.2964 19.189C14.87 19.3101 15.4641 19.325 16.0441 19.2329C16.6241 19.1408 17.1784 18.9436 17.6751 18.6526C18.1717 18.3616 18.6006 17.9827 18.9371 17.5377C19.2736 17.0928 19.5108 16.5908 19.6351 16.0608C19.7736 15.5337 19.7971 14.9866 19.7044 14.4511C19.6117 13.9157 19.4045 13.4025 19.0948 12.9413C18.7852 12.4802 18.3792 12.0803 17.9006 11.7648C17.4219 11.4493 16.88 11.2245 16.3064 11.1034C15.7327 10.9823 15.1386 10.9674 14.5586 11.0595C13.9787 11.1516 13.4243 11.3488 12.9277 11.6398C12.4311 11.9308 12.0021 12.3098 11.6656 12.7547C11.3292 13.1996 11.0919 13.7016 10.9676 14.2316Z" stroke="#F2695C" stroke-width="0.857143" stroke-linecap="round" stroke-linejoin="round"/>
<path d="M4.11277 10.7016L0.437988 7.02211M11.1041 6.18768L9.60727 1.34375M26.8875 10.7016L30.5623 7.02446M19.8962 6.18768L21.393 1.34375M15.5001 5.54418C5.63077 5.54418 1.48692 14.4212 1.48692 14.605C1.48692 14.7889 5.63077 23.6635 15.5001 23.6635C25.3695 23.6635 29.5133 14.7889 29.5133 14.605C29.5133 14.4212 25.3695 5.54418 15.5001 5.54418Z" stroke="#F2695C" stroke-width="0.857143" stroke-linecap="round" stroke-linejoin="round"/>
</svg>
