<svg width="28" height="32" viewBox="0 0 28 32" fill="none" xmlns="http://www.w3.org/2000/svg">
<path d="M13.625 22.5C14.2217 22.5 14.794 22.2629 15.216 21.841C15.6379 21.419 15.875 20.8467 15.875 20.25C15.875 19.6533 15.6379 19.081 15.216 18.659C14.794 18.2371 14.2217 18 13.625 18C13.0283 18 12.456 18.2371 12.034 18.659C11.6121 19.081 11.375 19.6533 11.375 20.25C11.375 20.8467 11.6121 21.419 12.034 21.841C12.456 22.2629 13.0283 22.5 13.625 22.5ZM6.875 6.75C6.875 4.95979 7.58616 3.2429 8.85203 1.97703C10.1179 0.711159 11.8348 0 13.625 0C15.4152 0 17.1321 0.711159 18.398 1.97703C19.6638 3.2429 20.375 4.95979 20.375 6.75V7.875H22.0625C23.4052 7.875 24.6928 8.40837 25.6422 9.35777C26.5916 10.3072 27.125 11.5948 27.125 12.9375V26.4375C27.125 27.7802 26.5916 29.0678 25.6422 30.0172C24.6928 30.9666 23.4052 31.5 22.0625 31.5H5.1875C3.84484 31.5 2.55717 30.9666 1.60777 30.0172C0.658369 29.0678 0.125 27.7802 0.125 26.4375V12.9375C0.125 11.5948 0.658369 10.3072 1.60777 9.35777C2.55717 8.40837 3.84484 7.875 5.1875 7.875H6.875V6.75ZM19.25 6.75C19.25 5.25816 18.6574 3.82742 17.6025 2.77252C16.5476 1.71763 15.1168 1.125 13.625 1.125C12.1332 1.125 10.7024 1.71763 9.64752 2.77252C8.59263 3.82742 8 5.25816 8 6.75V7.875H19.25V6.75ZM5.1875 9C4.14321 9 3.14169 9.41484 2.40327 10.1533C1.66484 10.8917 1.25 11.8932 1.25 12.9375V26.4375C1.25 27.4818 1.66484 28.4833 2.40327 29.2217C3.14169 29.9602 4.14321 30.375 5.1875 30.375H22.0625C23.1068 30.375 24.1083 29.9602 24.8467 29.2217C25.5852 28.4833 26 27.4818 26 26.4375V12.9375C26 11.8932 25.5852 10.8917 24.8467 10.1533C24.1083 9.41484 23.1068 9 22.0625 9H5.1875Z" fill="#F2695C"/>
</svg>
