<svg width="47" height="39" viewBox="0 0 47 39" fill="none" xmlns="http://www.w3.org/2000/svg">
<path fill-rule="evenodd" clip-rule="evenodd" d="M5.8192 0.242991L3.32525 0.424139L3.22383 1.75796L3.12241 3.09211L1.56121 3.18808L0 3.28438V19.4924V35.7004L9.86271 35.8593L19.7257 36.0182L20.4257 36.8693C21.4516 38.1161 23.0886 38.5518 24.5524 37.9673C25.1941 37.7112 25.9709 37.1341 26.2788 36.685L26.8385 35.8686L36.6959 35.7847L46.5536 35.7004V19.4924V3.28438L45.2235 3.12548C43.9565 2.9742 43.8854 2.90619 43.7271 1.69536L43.5608 0.424139L40.7344 0.20549C34.7077 -0.260412 28.0891 0.907202 24.7359 3.02791L23.5026 3.8078L22.2194 2.99613C20.0796 1.6426 16.4906 0.628805 12.5878 0.275088C10.6026 0.0952109 8.82855 -0.0265078 8.64566 0.00495488C8.46277 0.0364175 7.19086 0.143518 5.8192 0.242991ZM5.73606 1.45001L4.48909 1.57491V15.2211V28.8676H6.62125C11.0049 28.8676 16.8098 30.4811 20.866 32.8275L22.778 33.9334V19.4991V5.06472L21.6338 4.23048C18.66 2.06274 11.7305 0.850951 5.73606 1.45001ZM32.7504 1.70203C29.3041 2.21592 26.617 3.14137 25.1712 4.31279L24.0875 5.19121L24.1809 19.5576L24.2744 33.9239L25.8113 33.0096C29.786 30.6451 34.4237 29.2589 39.3211 28.9716L42.7295 28.772V15.1995V1.62703L40.6855 1.42268C37.8873 1.14333 36.0697 1.20721 32.7504 1.70203ZM1.16384 19.4924V34.5881L11.2227 34.5786L21.2816 34.5687L19.2865 33.4647C15.7541 31.5095 11.5373 30.3877 7.06617 30.2129L3.15899 30.0604V17.2287V4.39669H2.16142H1.16384V19.4924ZM7.39869 4.76598C6.89558 4.94173 6.48425 5.21282 6.48425 5.36886C6.48425 5.5303 6.84038 5.52268 7.3119 5.35138C10.2238 4.29341 15.3966 4.83495 19.3756 6.61465C21.7608 7.6812 21.7804 7.68692 21.7804 7.30047C21.7804 6.93722 18.1057 5.37331 15.9825 4.83272C14.0389 4.33822 8.74276 4.29691 7.39869 4.76598ZM29.5116 5.31801C26.897 6.18784 24.8972 7.16382 25.1788 7.43268C25.2507 7.50164 26.4983 7.06752 27.9511 6.46846C31.4203 5.03739 34.7406 4.51174 37.4936 4.95698C38.6358 5.14195 39.8322 5.39269 40.1525 5.51441C40.4863 5.64153 40.7344 5.59227 40.7344 5.39905C40.7344 4.82732 38.3818 4.40019 35.2477 4.40273C32.8153 4.40464 31.7416 4.57594 29.5116 5.31801ZM43.7271 17.2242V30.0515L39.8199 30.2107C36.5904 30.3423 35.3661 30.546 32.7607 31.385C29.9925 32.2767 26.1033 34.0685 26.1033 34.4524C26.1033 34.5271 30.4427 34.5881 35.7465 34.5881H45.3897V19.4924V4.39669H44.5584H43.7271V17.2242ZM8.64566 6.43954C8.46277 6.50914 7.9018 6.65247 7.39869 6.75862C6.89558 6.86445 6.48425 7.10693 6.48425 7.29698C6.48425 7.49878 6.72666 7.55059 7.06617 7.42156C9.85705 6.36009 14.8649 6.71476 18.5795 8.23641C22.2769 9.75138 22.0095 9.67416 21.5008 9.07636C21.2554 8.7878 19.8338 8.09689 18.3418 7.54073C16.0743 6.69569 15.0824 6.512 12.3034 6.42175C10.4746 6.36232 8.82855 6.37026 8.64566 6.43954ZM31.0226 6.77228C28.947 7.31827 24.835 9.20126 25.3301 9.3786C25.5453 9.45582 26.3536 9.21016 27.1268 8.83324C31.3661 6.76624 36.1991 6.24187 40.1016 7.42569C40.4497 7.5312 40.7344 7.48194 40.7344 7.31605C40.7344 6.37662 33.9658 5.99779 31.0226 6.77228ZM7.89748 8.58091C7.12037 8.74712 6.48425 9.03314 6.48425 9.21652C6.48425 9.41228 6.72433 9.45169 7.06617 9.31249C8.13258 8.87806 13.3083 8.76937 15.1858 9.14183C16.2046 9.34396 18.1053 9.998 19.4095 10.5955C20.7133 11.1926 21.7804 11.5346 21.7804 11.3553C21.7804 10.8415 17.1633 8.94003 14.9856 8.55739C12.6629 8.14869 9.87268 8.15823 7.89748 8.58091ZM31.3598 8.68165C29.1262 9.22319 24.9131 10.9927 25.2014 11.2683C25.3122 11.3738 26.7134 10.9219 28.3159 10.2643C30.7845 9.25084 31.6973 9.0449 34.3 8.91492C36.1186 8.82403 38.0053 8.91397 38.9268 9.1358C40.7018 9.56292 41.304 9.3608 39.8661 8.82085C38.3282 8.24308 33.495 8.16427 31.3598 8.68165ZM8.06374 10.5068C7.19519 10.68 6.48425 10.9657 6.48425 11.1421C6.48425 11.3274 6.79981 11.3703 7.23243 11.2438C8.81492 10.7808 12.8691 10.6825 14.8789 11.0585C16.0227 11.2724 18.0438 11.9255 19.3696 12.5096C20.6954 13.0937 21.7804 13.4306 21.7804 13.2577C21.7804 12.7461 17.7446 11.0954 15.2669 10.5936C12.6819 10.0701 10.3944 10.0428 8.06374 10.5068ZM32.255 10.4556C29.6164 10.8742 24.6381 12.9542 25.1359 13.43C25.2171 13.5078 26.1924 13.1548 27.3027 12.6453C30.5348 11.1628 33.1558 10.6473 36.4115 10.8538C37.9661 10.9527 39.6121 11.1329 40.0693 11.2543C40.6366 11.4046 40.7949 11.3709 40.5681 11.1478C39.6966 10.2904 35.4994 9.94111 32.255 10.4556ZM8.8618 12.3701C6.8038 12.7095 5.21533 13.4417 7.1493 13.1595C13.049 12.2986 16.0703 12.7801 21.531 15.4509C21.668 15.5179 21.7804 15.4347 21.7804 15.2656C21.7804 14.8601 18.6341 13.4497 16.4041 12.856C13.9807 12.2109 10.994 12.0186 8.8618 12.3701ZM33.5851 12.2226C30.6146 12.6138 25.1057 14.5801 25.1057 15.2491C25.1057 15.6403 25.1526 15.626 27.7559 14.4336C31.4526 12.7403 34.9484 12.3685 39.9031 13.142L40.9006 13.2978L39.9031 12.8525C38.825 12.3714 35.1998 12.01 33.5851 12.2226ZM7.56495 14.6043C6.9704 14.7682 6.48425 15.0377 6.48425 15.2033C6.48425 15.3924 6.79117 15.3924 7.3119 15.2033C10.2238 14.1453 15.3966 14.6869 19.3756 16.4666C21.7478 17.5274 21.7804 17.537 21.7804 17.1673C21.7804 16.7834 18.2294 15.243 16.1275 14.7155C14.0971 14.2054 9.23822 14.1425 7.56495 14.6043ZM30.8278 14.7431C28.538 15.3323 25.8931 16.4262 25.4079 16.9849C24.8649 17.6104 25.2317 17.5376 27.043 16.6601C29.785 15.332 32.3571 14.7644 35.5802 14.7759C37.2262 14.7816 38.9793 14.9459 39.4758 15.141C40.0008 15.3473 40.4564 15.3749 40.5648 15.2071C41.1633 14.2814 33.9572 13.9381 30.8278 14.7431ZM7.88052 16.4494C6.70338 16.7367 6.26744 17.0075 6.54909 17.2767C6.64552 17.3688 7.15695 17.2846 7.685 17.0892C9.10721 16.5635 13.6701 16.6334 16.0394 17.2176C17.1796 17.4988 18.8778 18.0995 19.8132 18.5527C21.6408 19.4377 22.3983 19.4171 20.9677 18.5212C18.8831 17.216 15.6962 16.3941 12.3034 16.287C10.4746 16.2292 8.48439 16.3023 7.88052 16.4494ZM31.0186 16.649C28.9334 17.1321 24.9175 18.9417 25.242 19.2518C25.3541 19.3589 26.0052 19.1498 26.6888 18.7869C29.7567 17.1594 34.1713 16.3531 37.5268 16.8073C38.6887 16.9643 39.8858 17.1836 40.187 17.2938C40.488 17.4044 40.7344 17.3533 40.7344 17.1807C40.7344 16.2101 34.4074 15.8637 31.0186 16.649ZM7.89748 18.4116C7.12037 18.5895 6.48425 18.8851 6.48425 19.0685C6.48425 19.2649 6.723 19.3033 7.06617 19.1625C7.38639 19.0313 9.00146 18.8571 10.6558 18.7758C14.1503 18.6038 16.9039 19.1441 19.8684 20.5837C20.9198 21.0945 21.7804 21.3818 21.7804 21.2225C21.7804 20.8529 18.8173 19.413 16.8255 18.8148C14.8622 18.2253 9.72404 17.993 7.89748 18.4116ZM30.879 18.6715C28.2943 19.3414 24.7033 20.9441 25.3288 21.1491C25.5429 21.219 26.4514 20.9213 27.3476 20.4875C30.7247 18.8517 36.0311 18.2034 39.1861 19.0405C40.7231 19.4485 41.2182 19.1806 39.8661 18.6728C38.0728 17.999 33.4763 17.9987 30.879 18.6715ZM8.14687 20.3489C7.32387 20.5205 6.50087 20.8091 6.31798 20.9905C6.08954 21.2168 6.2977 21.2524 6.98304 21.1043C11.2324 20.1859 16.0663 20.7172 19.7853 22.5115C20.8826 23.041 21.7804 23.3216 21.7804 23.1351C21.7804 22.6021 17.8001 20.9584 15.2669 20.4455C12.6769 19.9211 10.3515 19.8897 8.14687 20.3489ZM31.5899 20.4957C29.074 21.0087 25.1057 22.6577 25.1057 23.1897C25.1057 23.3703 25.2181 23.4634 25.3551 23.3966C30.0789 21.1015 32.6357 20.4703 36.235 20.7106C37.7037 20.8084 39.3544 20.9858 39.9031 21.1043C40.5784 21.2505 40.7932 21.2155 40.5681 20.9963C40.1132 20.5532 37.0177 19.9634 35.3145 19.9952C34.5461 20.0092 32.8701 20.2345 31.5899 20.4957ZM8.4794 22.2557C7.6564 22.4273 6.8334 22.7159 6.65051 22.8974C6.42206 23.1236 6.63056 23.1615 7.31556 23.0178C11.4828 22.1451 16.053 22.6682 19.6988 24.4352C21.8918 25.4983 21.7804 25.464 21.7804 25.0775C21.7804 24.5881 18.4552 23.1971 15.6586 22.5163C12.8395 21.8299 10.8666 21.7584 8.4794 22.2557ZM31.7771 22.3669C29.4684 22.871 25.1057 24.659 25.1057 25.101C25.1057 25.4833 25.1286 25.476 27.3033 24.4247C30.9947 22.6399 34.9577 22.188 39.9031 22.9883C40.89 23.1478 40.8883 23.1443 39.7458 22.6419C38.1397 21.9357 34.3502 21.8048 31.7771 22.3669ZM9.47698 24.0027C8.06574 24.229 6.48425 24.773 6.48425 25.0321C6.48425 25.1678 7.26502 25.0851 8.21937 24.8487C9.17371 24.6119 10.7279 24.4184 11.6736 24.4184C13.6425 24.4184 18.7737 25.7509 20.3183 26.6633C21.4655 27.3409 21.7804 27.415 21.7804 27.0078C21.7804 26.5092 17.3193 24.7839 14.7282 24.2808C12.215 23.7923 11.1419 23.7357 9.47698 24.0027ZM33.4188 23.9843C30.3772 24.5344 25.1057 26.4495 25.1057 27.0043C25.1057 27.4089 25.2955 27.3584 27.1437 26.4634C29.3294 25.4048 33.3989 24.4184 35.5806 24.4184C36.5283 24.4184 38.0007 24.6189 38.8529 24.8643C39.7052 25.1093 40.481 25.1884 40.5771 25.0403C40.9618 24.4454 35.4033 23.6255 33.4188 23.9843ZM7.56495 26.363C6.9704 26.527 6.48425 26.8153 6.48425 27.004C6.48425 27.2039 6.72633 27.2532 7.06617 27.1219C7.38639 26.9983 8.56486 26.7425 9.68547 26.5534C12.2652 26.118 16.1561 26.7854 19.3393 28.2091C21.7631 29.2929 21.7804 29.2979 21.7804 28.9112C21.7804 28.5632 18.515 27.1715 16.1501 26.5114C14.1659 25.9578 9.33632 25.8742 7.56495 26.363ZM29.5259 26.9306C26.7899 27.8256 24.8962 28.7733 25.2224 29.085C25.3182 29.1765 26.1917 28.8813 27.163 28.4288C29.2533 27.455 33.6978 26.322 35.384 26.3328C36.4641 26.3401 38.6331 26.7129 40.1525 27.1531C40.4727 27.2456 40.7344 27.1915 40.7344 27.0326C40.7344 26.4803 38.146 26.0074 35.2091 26.023C32.8708 26.035 31.686 26.2245 29.5259 26.9306Z" fill="#837373"/>
</svg>
