<svg width="23" height="23" viewBox="0 0 23 23" fill="none" xmlns="http://www.w3.org/2000/svg">
<path d="M15.625 22.3937L7.375 19.5062L1.93275 21.61C1.58075 21.7411 1.25396 21.703 0.952375 21.4958C0.650792 21.2887 0.5 20.9972 0.5 20.6213V3.80509C0.5 3.55943 0.559583 3.3353 0.67875 3.13272C0.797917 2.93014 0.971167 2.78943 1.1985 2.71059L7.375 0.605469L15.625 3.49297L21.0672 1.38922C21.4193 1.25814 21.746 1.28289 22.0476 1.46347C22.3492 1.64405 22.5 1.91355 22.5 2.27197V19.3C22.5 19.5631 22.4271 19.7913 22.2814 19.9847C22.1365 20.1791 21.9413 20.3156 21.6956 20.3945L15.625 22.3937ZM14.9375 20.7162V4.62872L8.0625 2.22934V18.3168L14.9375 20.7162ZM16.3125 20.7162L21.125 19.1308V2.83709L16.3125 4.63009V20.7162ZM1.875 20.1621L6.6875 18.3168V2.22934L1.875 3.86834V20.1621Z" fill="#F2695C"/>
</svg>
