<svg width="33" height="33" viewBox="0 0 33 33" fill="none" xmlns="http://www.w3.org/2000/svg">
<path d="M29 6.25H4.5C2.567 6.25 1 7.817 1 9.75V29C1 30.933 2.567 32.5 4.5 32.5H29C30.933 32.5 32.5 30.933 32.5 29V9.75C32.5 7.817 30.933 6.25 29 6.25Z" stroke="#F2695C"/>
<path d="M1 13.25C1 9.9495 1 8.301 2.0255 7.2755C3.051 6.25 4.6995 6.25 8 6.25H25.5C28.8005 6.25 30.449 6.25 31.4745 7.2755C32.5 8.301 32.5 9.9495 32.5 13.25H1Z" fill="#F2695C"/>
<path d="M8 1V6.25M25.5 1V6.25" stroke="#F2695C" stroke-linecap="round"/>
<path d="M14.125 16.75H8.875C8.39175 16.75 8 17.1418 8 17.625V19.375C8 19.8582 8.39175 20.25 8.875 20.25H14.125C14.6082 20.25 15 19.8582 15 19.375V17.625C15 17.1418 14.6082 16.75 14.125 16.75Z" fill="#F2695C"/>
<path d="M14.125 23.75H8.875C8.39175 23.75 8 24.1418 8 24.625V26.375C8 26.8582 8.39175 27.25 8.875 27.25H14.125C14.6082 27.25 15 26.8582 15 26.375V24.625C15 24.1418 14.6082 23.75 14.125 23.75Z" fill="#F2695C"/>
<path d="M24.625 16.75H19.375C18.8918 16.75 18.5 17.1418 18.5 17.625V19.375C18.5 19.8582 18.8918 20.25 19.375 20.25H24.625C25.1082 20.25 25.5 19.8582 25.5 19.375V17.625C25.5 17.1418 25.1082 16.75 24.625 16.75Z" fill="#F2695C"/>
<path d="M24.625 23.75H19.375C18.8918 23.75 18.5 24.1418 18.5 24.625V26.375C18.5 26.8582 18.8918 27.25 19.375 27.25H24.625C25.1082 27.25 25.5 26.8582 25.5 26.375V24.625C25.5 24.1418 25.1082 23.75 24.625 23.75Z" fill="#F2695C"/>
</svg>