<svg width="33" height="31" viewBox="0 0 33 31" fill="none" xmlns="http://www.w3.org/2000/svg">
<path d="M29 5.9082H4.5C2.567 5.9082 1 7.37323 1 9.18044V27.1777C1 28.9849 2.567 30.45 4.5 30.45H29C30.933 30.45 32.5 28.9849 32.5 27.1777V9.18044C32.5 7.37323 30.933 5.9082 29 5.9082Z" stroke="#F2695C"/>
<path d="M1 12.4527C1 9.36696 1 7.82573 2.0255 6.86697C3.051 5.9082 4.6995 5.9082 8 5.9082H25.5C28.8005 5.9082 30.449 5.9082 31.4745 6.86697C32.5 7.82573 32.5 9.36696 32.5 12.4527H1Z" fill="#F2695C"/>
<path d="M8 1V5.90835M25.5 1V5.90835" stroke="#F2695C" stroke-linecap="round"/>
<path d="M14.125 15.7246H8.875C8.39175 15.7246 8 16.0909 8 16.5427V18.1788C8 18.6306 8.39175 18.9968 8.875 18.9968H14.125C14.6082 18.9968 15 18.6306 15 18.1788V16.5427C15 16.0909 14.6082 15.7246 14.125 15.7246Z" fill="#F2695C"/>
<path d="M14.125 22.2695H8.875C8.39175 22.2695 8 22.6358 8 23.0876V24.7237C8 25.1755 8.39175 25.5418 8.875 25.5418H14.125C14.6082 25.5418 15 25.1755 15 24.7237V23.0876C15 22.6358 14.6082 22.2695 14.125 22.2695Z" fill="#F2695C"/>
<path d="M24.625 15.7246H19.375C18.8918 15.7246 18.5 16.0909 18.5 16.5427V18.1788C18.5 18.6306 18.8918 18.9968 19.375 18.9968H24.625C25.1082 18.9968 25.5 18.6306 25.5 18.1788V16.5427C25.5 16.0909 25.1082 15.7246 24.625 15.7246Z" fill="#F2695C"/>
<path d="M24.625 22.2695H19.375C18.8918 22.2695 18.5 22.6358 18.5 23.0876V24.7237C18.5 25.1755 18.8918 25.5418 19.375 25.5418H24.625C25.1082 25.5418 25.5 25.1755 25.5 24.7237V23.0876C25.5 22.6358 25.1082 22.2695 24.625 22.2695Z" fill="#F2695C"/>
</svg>
