<svg width="28" height="28" viewBox="0 0 28 28" fill="none" xmlns="http://www.w3.org/2000/svg">
<path fill-rule="evenodd" clip-rule="evenodd" d="M16.1 0C13.4064 0 11.2 2.2008 11.2 4.88628C11.2 5.27828 11.2476 5.65907 11.3361 6.02503L9.56648 6.84683L0.99484 2.86524C0.904449 2.8232 0.806122 2.80096 0.70644 2.8C0.613974 2.79915 0.522256 2.81662 0.436583 2.85142C0.350911 2.88622 0.272982 2.93765 0.207297 3.00273C0.141612 3.06782 0.0894739 3.14527 0.0538936 3.23062C0.0183133 3.31597 -3.91277e-06 3.40753 6.2693e-10 3.5L6.2693e-10 23.1812C2.23863e-05 23.3146 0.0381708 23.4452 0.109952 23.5577C0.181733 23.6701 0.284157 23.7597 0.40516 23.8159L9.27164 27.9347C9.36597 27.9786 9.46889 28.0009 9.57292 28C9.67277 27.9992 9.7713 27.977 9.86188 27.935L18.4335 23.9531L27.0052 27.9347C27.1118 27.9843 27.2292 28.0061 27.3466 27.9983C27.4639 27.9905 27.5774 27.9532 27.6765 27.89C27.7757 27.8267 27.8573 27.7395 27.9138 27.6364C27.9703 27.5333 28 27.4176 28 27.3V7.61879C28 7.48538 27.9618 7.35475 27.89 7.24229C27.8183 7.12983 27.7158 7.04023 27.5948 6.98403L20.8905 3.8696C20.4176 1.66712 18.4439 0 16.1 0ZM16.1 2.28984C17.5504 2.28984 18.7037 3.44008 18.7037 4.88628C18.7037 6.33247 17.5501 7.48243 16.1 7.48243C14.6496 7.48243 13.4963 6.33247 13.4963 4.88628C13.4963 3.44008 14.6499 2.28984 16.1 2.28984ZM1.4 4.59704L9.037 8.14463L9.14088 26.3306L1.4 22.7337V4.59704ZM20.9644 5.44739L26.6 8.06539V26.2029L18.8502 22.603L18.7779 9.99795L20.4515 7.15035C20.5274 7.01315 20.587 6.86727 20.6391 6.71775C20.8046 6.31101 20.9141 5.88364 20.9644 5.44739ZM11.8628 7.32423C11.9356 7.44911 12.0114 7.57147 12.0946 7.68907L15.5022 13.5789C15.9793 14.2024 16.2966 14.084 16.6933 13.5461L17.9463 11.4139L18.0102 22.6055L9.98088 26.3359L9.87756 8.24627L11.8628 7.32423Z" fill="#F2695C"/>
</svg>
