<svg width="20" height="20" viewBox="0 0 20 20" fill="none" xmlns="http://www.w3.org/2000/svg">
<path d="M8.3665 14.092L15.8285 6.63002L15.0037 5.80402L8.3665 12.44L5.0415 9.11502L4.2155 9.94102L8.3665 14.092ZM2.55184 19.3327C2.01439 19.3327 1.566 19.153 1.20667 18.7937C0.847337 18.4344 0.667282 17.9856 0.666504 17.4474V2.55135C0.666504 2.0139 0.846559 1.56552 1.20667 1.20618C1.56678 0.846849 2.01517 0.666793 2.55184 0.666016H17.449C17.9857 0.666016 18.4341 0.846071 18.7942 1.20618C19.1543 1.56629 19.334 2.01468 19.3332 2.55135V17.4485C19.3332 17.9852 19.1535 18.4336 18.7942 18.7937C18.4348 19.1538 17.9861 19.3335 17.4478 19.3327H2.55184ZM2.55184 18.166H17.449C17.6279 18.166 17.7924 18.0914 17.9425 17.942C18.0926 17.7927 18.1673 17.6278 18.1665 17.4474V2.55135C18.1665 2.37168 18.0918 2.20679 17.9425 2.05668C17.7932 1.90657 17.6283 1.8319 17.4478 1.83268H2.55184C2.37217 1.83268 2.20728 1.90735 2.05717 2.05668C1.90706 2.20602 1.83239 2.3709 1.83317 2.55135V17.4485C1.83317 17.6274 1.90784 17.7919 2.05717 17.942C2.2065 18.0921 2.371 18.1668 2.55067 18.166" fill="#FF725E"/>
</svg>
