                        <svg width="33" height="27" viewBox="0 0 33 27" fill="none" xmlns="http://www.w3.org/2000/svg">
                            <path d="M27.3906 10.9375C27.3906 11.1074 27.3231 11.2704 27.203 11.3905C27.0828 11.5106 26.9199 11.5781 26.75 11.5781H20.3438C20.1738 11.5781 20.0109 11.5106 19.8908 11.3905C19.7706 11.2704 19.7031 11.1074 19.7031 10.9375C19.7031 10.7676 19.7706 10.6046 19.8908 10.4845C20.0109 10.3644 20.1738 10.2969 20.3438 10.2969H26.75C26.9199 10.2969 27.0828 10.3644 27.203 10.4845C27.3231 10.6046 27.3906 10.7676 27.3906 10.9375ZM26.75 15.4219H20.3438C20.1738 15.4219 20.0109 15.4894 19.8908 15.6095C19.7706 15.7296 19.7031 15.8926 19.7031 16.0625C19.7031 16.2324 19.7706 16.3953 19.8908 16.5155C20.0109 16.6356 20.1738 16.7031 20.3438 16.7031H26.75C26.9199 16.7031 27.0828 16.6356 27.203 16.5155C27.3231 16.3953 27.3906 16.2324 27.3906 16.0625C27.3906 15.8926 27.3231 15.7296 27.203 15.6095C27.0828 15.4894 26.9199 15.4219 26.75 15.4219ZM32.5156 1.96875V25.0312C32.5156 25.541 32.3131 26.0298 31.9527 26.3902C31.5923 26.7506 31.1035 26.9531 30.5938 26.9531H2.40625C1.89654 26.9531 1.4077 26.7506 1.04728 26.3902C0.686858 26.0298 0.484375 25.541 0.484375 25.0312V1.96875C0.484375 1.45904 0.686858 0.9702 1.04728 0.609779C1.4077 0.249357 1.89654 0.046875 2.40625 0.046875H30.5938C31.1035 0.046875 31.5923 0.249357 31.9527 0.609779C32.3131 0.9702 32.5156 1.45904 32.5156 1.96875ZM31.2344 1.96875C31.2344 1.79885 31.1669 1.6359 31.0467 1.51576C30.9266 1.39562 30.7637 1.32812 30.5938 1.32812H2.40625C2.23635 1.32812 2.0734 1.39562 1.95326 1.51576C1.83312 1.6359 1.76562 1.79885 1.76562 1.96875V25.0312C1.76562 25.2012 1.83312 25.3641 1.95326 25.4842C2.0734 25.6044 2.23635 25.6719 2.40625 25.6719H30.5938C30.7637 25.6719 30.9266 25.6044 31.0467 25.4842C31.1669 25.3641 31.2344 25.2012 31.2344 25.0312V1.96875ZM17.1198 19.7461C17.1445 19.8287 17.1523 19.9153 17.1427 20.001C17.1332 20.0866 17.1064 20.1695 17.0641 20.2445C17.0218 20.3196 16.9647 20.3853 16.8964 20.4378C16.828 20.4903 16.7498 20.5285 16.6664 20.5501C16.5829 20.5716 16.496 20.5761 16.4108 20.5633C16.3256 20.5505 16.2438 20.5206 16.1704 20.4755C16.097 20.4303 16.0335 20.3708 15.9836 20.3005C15.9337 20.2302 15.8986 20.1506 15.8802 20.0664C15.3885 18.1445 13.457 16.7031 11.375 16.7031C9.29297 16.7031 7.37109 18.1445 6.86981 20.0664C6.83432 20.2038 6.75419 20.3256 6.64201 20.4126C6.52983 20.4995 6.39194 20.5468 6.25 20.5469C6.19595 20.5467 6.14214 20.5397 6.08984 20.5261C5.92553 20.4835 5.78483 20.3774 5.69865 20.2312C5.61247 20.0849 5.58785 19.9105 5.6302 19.7461C5.85864 18.9105 6.27101 18.1366 6.83714 17.481C7.40327 16.8253 8.10883 16.3046 8.90219 15.9568C8.09803 15.4252 7.48656 14.6487 7.15843 13.7423C6.8303 12.8359 6.80297 11.8479 7.0805 10.9248C7.35803 10.0016 7.92564 9.19247 8.69919 8.61727C9.47273 8.04208 10.411 7.73146 11.375 7.73146C12.339 7.73146 13.2773 8.04208 14.0508 8.61727C14.8244 9.19247 15.392 10.0016 15.6695 10.9248C15.947 11.8479 15.9197 12.8359 15.5916 13.7423C15.2634 14.6487 14.652 15.4252 13.8478 15.9568C14.6417 16.3038 15.3477 16.8243 15.9139 17.4801C16.4801 18.1358 16.8922 18.9101 17.1198 19.7461ZM11.375 15.4219C12.0085 15.4219 12.6278 15.234 13.1546 14.8821C13.6813 14.5301 14.0919 14.0298 14.3343 13.4445C14.5767 12.8592 14.6402 12.2152 14.5166 11.5939C14.393 10.9725 14.0879 10.4018 13.64 9.9538C13.192 9.50583 12.6212 9.20077 11.9999 9.07717C11.3786 8.95358 10.7345 9.01701 10.1492 9.25945C9.56392 9.50189 9.06366 9.91244 8.7117 10.4392C8.35973 10.9659 8.17188 11.5852 8.17188 12.2188C8.17188 13.0683 8.50935 13.883 9.11005 14.4837C9.71075 15.0844 10.5255 15.4219 11.375 15.4219Z" fill="#F2695C"/>
                        </svg>