<svg width="59" height="56" viewBox="0 0 59 56" fill="none" xmlns="http://www.w3.org/2000/svg">
<path d="M25.9149 0.000977339C25.287 0.00128861 24.7516 0.425793 24.6497 1.0041L23.4021 8.13354C21.9018 8.54087 20.4713 9.09047 19.123 9.77501L12.8197 5.57311C12.3101 5.23347 11.6122 5.28684 11.1687 5.69938L6.17809 10.3526C5.73787 10.7637 5.67764 11.4106 6.03529 11.8865L10.4697 17.807C9.72492 19.0727 9.12302 20.4155 8.67588 21.8289L1.06976 23.0097C0.452134 23.1068 -7.48239e-05 23.606 2.13916e-06 24.1906V30.7752C-0.00112665 31.356 0.444592 31.8539 1.05724 31.956L8.66836 33.214C9.11308 34.625 9.71116 35.9686 10.4572 37.2359L5.96764 43.0979C5.60375 43.5736 5.66093 44.2249 6.10293 44.6389L11.091 49.2967C11.5305 49.7071 12.222 49.7642 12.732 49.4324L19.0879 45.2796C20.4402 45.9682 21.8742 46.5218 23.3795 46.9327L24.6497 54.0715C24.7526 54.6489 25.2878 55.0722 25.9149 55.0723H32.9698C33.593 55.0732 34.1266 54.656 34.235 54.0832L35.5954 46.9164C37.0945 46.4991 38.5218 45.9373 39.867 45.2445L46.2655 49.4347C46.7754 49.7685 47.4685 49.7123 47.909 49.3014L52.8971 44.6412C53.341 44.2259 53.3973 43.5716 53.0298 43.0956L48.4677 37.1844C49.1971 35.935 49.7848 34.6108 50.2214 33.221L57.9403 31.9583C58.5539 31.8572 59.0009 31.3591 59 30.7775V24.1929C58.9997 23.6068 58.5448 23.1071 57.9252 23.012L50.2189 21.8359C49.7794 20.4478 49.1901 19.1259 48.4602 17.8772L52.9597 11.8935C53.3174 11.4176 53.2571 10.7707 52.8169 10.3596L47.8263 5.70405C47.3814 5.28967 46.6803 5.2372 46.1703 5.58011L39.8544 9.81943C38.5088 9.12941 37.0805 8.57053 35.5779 8.15691L34.235 0.992405C34.1278 0.418741 33.5938 0.000318877 32.9699 0.000977339H25.9149ZM27.0072 2.39538H31.8926L33.1703 9.20214C33.2571 9.66856 33.6303 10.0434 34.1223 10.1585C35.9983 10.5948 37.7602 11.2865 39.3684 12.1951C39.8079 12.4437 40.3639 12.4235 40.7814 12.1437L46.7841 8.11718L50.2389 11.3417L45.9649 17.0261C45.6732 17.4135 45.6536 17.9249 45.9148 18.3308C46.8787 19.8284 47.6098 21.4625 48.0769 23.2038C48.2011 23.6673 48.6088 24.0175 49.114 24.0947L56.4345 25.2124V29.772L49.099 30.9739C48.5989 31.0566 48.1981 31.4068 48.0769 31.8671C47.6152 33.6062 46.8837 35.2403 45.9198 36.7378C45.6553 37.1479 45.678 37.6656 45.9774 38.0543L50.3116 43.6685L46.8568 46.8953L40.7764 42.9132C40.3592 42.6405 39.8086 42.6239 39.3734 42.8711C37.7732 43.7798 36.0095 44.4747 34.1398 44.9171C33.6502 45.0323 33.2786 45.4048 33.1903 45.8688L31.8951 52.6779H27.0022L25.7947 45.8992C25.7106 45.4279 25.3345 45.0483 24.8376 44.9335C22.9605 44.5017 21.1907 43.8111 19.5715 42.9038C19.1372 42.6611 18.5905 42.6794 18.176 42.9506L12.1432 46.8953L8.68592 43.6638L12.95 38.101C13.2478 37.7114 13.2685 37.1937 13.0026 36.7845C12.02 35.2692 11.2769 33.6175 10.8079 31.8578C10.6854 31.3999 10.2861 31.052 9.78826 30.9692L2.56546 29.772V25.2054L9.78325 24.0853C10.2875 24.0073 10.694 23.6573 10.8179 23.1944C11.2909 21.4287 12.0337 19.7772 13.0126 18.2653C13.2763 17.8598 13.2587 17.3471 12.9675 16.9582L8.75356 11.337L12.2134 8.11014L18.1936 12.0993C18.6093 12.376 19.1613 12.3962 19.599 12.1507C21.2097 11.2478 22.9836 10.5628 24.8627 10.1328C25.362 10.018 25.7397 9.63608 25.8222 9.16236L27.0072 2.39538ZM29.5 17.959C23.8478 17.959 19.2383 22.2613 19.2383 27.5366C19.2383 32.812 23.8478 37.1143 29.5 37.1143C35.1522 37.1143 39.7617 32.812 39.7617 27.5366C39.7617 22.2613 35.1522 17.959 29.5 17.959ZM29.5 20.3534C33.7657 20.3534 37.1963 23.5553 37.1963 27.5366C37.1963 31.518 33.7657 34.7199 29.5 34.7199C25.2343 34.7199 21.8037 31.518 21.8037 27.5366C21.8037 23.5553 25.2343 20.3534 29.5 20.3534Z" fill="#203A40"/>
</svg>
