                        <svg width="31" height="25" viewBox="0 0 31 25" fill="none" xmlns="http://www.w3.org/2000/svg">
                            <path d="M4.9165 0.916016H25.4998C26.7596 0.916016 27.9678 1.41646 28.8586 2.30726C29.7494 3.19806 30.2498 4.40624 30.2498 5.66602V19.916C30.2498 21.1758 29.7494 22.384 28.8586 23.2748C27.9678 24.1656 26.7596 24.666 25.4998 24.666H4.9165C3.65673 24.666 2.44854 24.1656 1.55775 23.2748C0.666949 22.384 0.166504 21.1758 0.166504 19.916V5.66602C0.166504 4.40624 0.666949 3.19806 1.55775 2.30726C2.44854 1.41646 3.65673 0.916016 4.9165 0.916016ZM4.9165 2.49935C4.12484 2.49935 3.42817 2.76852 2.88984 3.24352L15.2082 11.2077L27.5265 3.24352C26.9882 2.76852 26.2915 2.49935 25.4998 2.49935H4.9165ZM15.2082 13.1235L1.95567 4.52602C1.829 4.87435 1.74984 5.27018 1.74984 5.66602V19.916C1.74984 20.7559 2.08347 21.5613 2.67733 22.1552C3.2712 22.7491 4.07665 23.0827 4.9165 23.0827H25.4998C26.3397 23.0827 27.1451 22.7491 27.739 22.1552C28.3329 21.5613 28.6665 20.7559 28.6665 19.916V5.66602C28.6665 5.27018 28.5873 4.87435 28.4607 4.52602L15.2082 13.1235Z" fill="#F2695C"/>
                        </svg> 