                    <svg width="27" height="33" viewBox="0 0 27 33" fill="none" xmlns="http://www.w3.org/2000/svg">
                        <path d="M11.875 7.5625H10.25V9.1875H11.875V7.5625ZM13.5 7.5625H15.125V9.1875H13.5V7.5625ZM18.375 7.5625H16.75V9.1875H18.375V7.5625ZM10.25 10.8125H11.875V12.4375H10.25V10.8125ZM15.125 10.8125H13.5V12.4375H15.125V10.8125ZM16.75 10.8125H18.375V12.4375H16.75V10.8125ZM11.875 14.0625H10.25V15.6875H11.875V14.0625ZM13.5 14.0625H15.125V15.6875H13.5V14.0625ZM18.375 14.0625H16.75V15.6875H18.375V14.0625ZM10.25 17.3125H11.875V18.9375H10.25V17.3125ZM15.125 17.3125H13.5V18.9375H15.125V17.3125ZM10.25 20.5625H11.875V22.1875H10.25V20.5625ZM15.125 20.5625H13.5V22.1875H15.125V20.5625ZM10.25 23.8125H11.875V25.4375H10.25V23.8125ZM15.125 23.8125H13.5V25.4375H15.125V23.8125ZM10.25 27.0625H11.875V28.6875H10.25V27.0625ZM15.125 27.0625H13.5V28.6875H15.125V27.0625ZM19.1875 21.375H21.625V19.75H19.1875V21.375ZM21.625 24.625H19.1875V23H21.625V24.625ZM19.1875 27.875H21.625V26.25H19.1875V27.875Z" fill="#F2695C"/>
                        <path fill-rule="evenodd" clip-rule="evenodd" d="M7.8125 0.25L20.8125 5.125V16.5H24.0625C24.278 16.5 24.4847 16.5856 24.637 16.738C24.7894 16.8903 24.875 17.097 24.875 17.3125V31.125H25.6875C25.903 31.125 26.1097 31.2106 26.262 31.363C26.4144 31.5153 26.5 31.722 26.5 31.9375C26.5 32.153 26.4144 32.3597 26.262 32.512C26.1097 32.6644 25.903 32.75 25.6875 32.75H1.3125C1.09701 32.75 0.890349 32.6644 0.737976 32.512C0.585603 32.3597 0.5 32.153 0.5 31.9375C0.5 31.722 0.585603 31.5153 0.737976 31.363C0.890349 31.2106 1.09701 31.125 1.3125 31.125H2.125V14.0625C2.125 13.847 2.2106 13.6403 2.36298 13.488C2.51535 13.3356 2.72201 13.25 2.9375 13.25H4.5625V7.5625H6.1875V13.25H7.8125V0.25ZM9.4375 2.59488L19.1875 6.25112V16.5H16.75C16.5345 16.5 16.3278 16.5856 16.1755 16.738C16.0231 16.8903 15.9375 17.097 15.9375 17.3125V31.125H9.4375V2.59488ZM3.75 14.875V31.125H7.8125V14.875H3.75ZM23.25 31.125H21.625V29.5H19.1875V31.125H17.5625V18.125H23.25V31.125Z" fill="#F2695C"/>
                    </svg>  