<svg width="52" height="47" viewBox="0 0 52 47" fill="none" xmlns="http://www.w3.org/2000/svg">
<path d="M25.961 0.601358C25.7337 0.60852 25.5145 0.680847 25.3347 0.808071L0.417501 18.5607C-0.0546151 18.8967 -0.138922 19.5187 0.229181 19.9497C0.597284 20.3808 1.27842 20.4578 1.75054 20.1217L3.25074 19.0533V45.0591C3.25081 45.6054 3.7358 46.0482 4.3341 46.0483H19.3191C19.4361 46.0659 19.5555 46.0659 19.6725 46.0483H32.3194C32.4364 46.0659 32.5558 46.0659 32.6728 46.0483H47.6684C48.2667 46.0482 48.7517 45.6054 48.7518 45.0591V19.0533L50.252 20.1217C50.5574 20.3391 50.9666 20.3913 51.3256 20.2585C51.6845 20.1257 51.9386 19.8282 51.9921 19.478C52.0456 19.1277 51.8904 18.7781 51.585 18.5607L43.335 12.6837V5.49302H36.8348V8.05091L26.6678 0.808071C26.4662 0.665357 26.2159 0.592159 25.961 0.601358ZM26.0012 2.84434L46.585 17.5097V44.07H33.5847V25.2761H18.4177V44.07H5.41744V17.5097L26.0012 2.84434ZM39.0015 7.47133H41.1682V11.1401L39.0015 9.59452V7.47133ZM20.5844 27.2544H31.418V44.07H20.5844V27.2544Z" fill="#203A40"/>
</svg>