<svg width="52" height="49" viewBox="0 0 52 49" fill="none" xmlns="http://www.w3.org/2000/svg">
<path d="M25.961 0.00082771C25.7337 0.00850071 25.5145 0.0859937 25.3347 0.222306L0.417501 19.2429C-0.0546151 19.603 -0.138922 20.2694 0.229181 20.7312C0.597284 21.1931 1.27842 21.2755 1.75054 20.9154L3.25074 19.7708V47.6342C3.25081 48.2194 3.7358 48.6939 4.3341 48.694H19.3191C19.4361 48.7129 19.5555 48.7129 19.6725 48.694H32.3194C32.4364 48.7129 32.5558 48.7129 32.6728 48.694H47.6684C48.2667 48.6939 48.7517 48.2194 48.7518 47.6342V19.7708L50.252 20.9154C50.5574 21.1484 50.9666 21.2043 51.3256 21.062C51.6845 20.9198 51.9386 20.601 51.9921 20.2258C52.0456 19.8505 51.8904 19.4759 51.585 19.2429L43.335 12.9462V5.2419H36.8348V7.98249L26.6678 0.222306C26.4662 0.0693971 26.2159 -0.00902849 25.961 0.00082771ZM26.0012 2.40402L46.585 18.1169V46.5743H33.5847V26.438H18.4177V46.5743H5.41744V18.1169L26.0012 2.40402ZM39.0015 7.36151H41.1682V11.2923L39.0015 9.63636V7.36151ZM20.5844 28.5576H31.418V46.5743H20.5844V28.5576Z" fill="#203A40"/>
</svg>
