<svg width="53" height="50" viewBox="0 0 53 50" fill="none" xmlns="http://www.w3.org/2000/svg">
<path d="M26.086 0.000846104C25.8587 0.00868961 25.6395 0.0879047 25.4597 0.227246L0.542501 19.6706C0.0703849 20.0387 -0.013922 20.7198 0.354181 21.1919C0.722284 21.664 1.40342 21.7483 1.87554 21.3802L3.37574 20.2101V48.6927C3.37581 49.291 3.8608 49.776 4.4591 49.7761H19.4441C19.5611 49.7954 19.6805 49.7954 19.7975 49.7761H32.4444C32.5614 49.7954 32.6808 49.7954 32.7978 49.7761H47.7934C48.3917 49.776 48.8767 49.291 48.8768 48.6927V20.2101L50.377 21.3802C50.6824 21.6184 51.0916 21.6755 51.4506 21.5301C51.8095 21.3847 52.0636 21.0588 52.1171 20.6752C52.1706 20.2916 52.0154 19.9087 51.71 19.6706L43.46 13.2339V5.35838H36.9598V8.15988L26.7928 0.227246C26.5912 0.0709393 26.3409 -0.00922912 26.086 0.000846104ZM26.1262 2.45745L46.71 18.5195V47.6093H33.7097V27.0255H18.5427V47.6093H5.54244V18.5195L26.1262 2.45745ZM39.1265 7.5251H41.2932V11.5433L39.1265 9.8505V7.5251ZM20.7094 29.1922H31.543V47.6093H20.7094V29.1922Z" fill="#F2695C"/>
</svg>
