<svg width="21" height="28" viewBox="0 0 21 28" fill="none" xmlns="http://www.w3.org/2000/svg">
<path d="M0 3.5C1.56073e-05 2.88564 0.161745 2.2821 0.468933 1.75005C0.776122 1.218 1.21795 0.776181 1.75 0.469V24.5C1.75 24.9641 1.93437 25.4093 2.26256 25.7374C2.59075 26.0656 3.03587 26.25 3.5 26.25H17.5C17.9641 26.25 18.4092 26.0656 18.7374 25.7374C19.0656 25.4093 19.25 24.9641 19.25 24.5V3.5C19.25 3.03587 19.0656 2.59075 18.7374 2.26256C18.4092 1.93437 17.9641 1.75 17.5 1.75H14V0H17.5C18.4283 0 19.3185 0.368749 19.9749 1.02513C20.6313 1.6815 21 2.57174 21 3.5V24.5C21 25.4283 20.6313 26.3185 19.9749 26.9749C19.3185 27.6313 18.4283 28 17.5 28H3.5C2.57174 28 1.6815 27.6313 1.02513 26.9749C0.368749 26.3185 0 25.4283 0 24.5V3.5ZM3.5 0V11.375C3.5 11.5375 3.54525 11.6968 3.63068 11.835C3.71611 11.9732 3.83835 12.085 3.98369 12.1576C4.12903 12.2303 4.29174 12.2611 4.45358 12.2465C4.61542 12.2319 4.77 12.1725 4.9 12.075L7.875 9.84375L10.85 12.075C10.98 12.1725 11.1346 12.2319 11.2964 12.2465C11.4583 12.2611 11.621 12.2303 11.7663 12.1576C11.9117 12.085 12.0339 11.9732 12.1193 11.835C12.2048 11.6968 12.25 11.5375 12.25 11.375V0H3.5ZM5.25 9.625V1.75H10.5V9.625L8.4 8.05C8.24854 7.93641 8.06432 7.875 7.875 7.875C7.68568 7.875 7.50146 7.93641 7.35 8.05L5.25 9.625Z" fill="#F2695C"/>
</svg>