                    <svg width="19" height="25" viewBox="0 0 19 25" fill="none" xmlns="http://www.w3.org/2000/svg">
                        <path d="M1.7502 0.874609C1.7502 0.669067 1.66854 0.471942 1.5232 0.326602C1.37786 0.181261 1.18074 0.0996094 0.975195 0.0996094C0.769653 0.0996094 0.572528 0.181261 0.427188 0.326602C0.281847 0.471942 0.200195 0.669067 0.200195 0.874609V24.1246C0.200195 24.3302 0.281847 24.5273 0.427188 24.6726C0.572528 24.818 0.769653 24.8996 0.975195 24.8996C1.18074 24.8996 1.37786 24.818 1.5232 24.6726C1.66854 24.5273 1.7502 24.3302 1.7502 24.1246V0.874609ZM18.8002 0.874609C18.8002 0.669067 18.7185 0.471942 18.5732 0.326602C18.4279 0.181261 18.2307 0.0996094 18.0252 0.0996094C17.8197 0.0996094 17.6225 0.181261 17.4772 0.326602C17.3318 0.471942 17.2502 0.669067 17.2502 0.874609V24.1246C17.2502 24.3302 17.3318 24.5273 17.4772 24.6726C17.6225 24.818 17.8197 24.8996 18.0252 24.8996C18.2307 24.8996 18.4279 24.818 18.5732 24.6726C18.7185 24.5273 18.8002 24.3302 18.8002 24.1246V0.874609ZM10.2752 0.874609C10.2752 0.669067 10.1935 0.471942 10.0482 0.326602C9.90286 0.181261 9.70574 0.0996094 9.5002 0.0996094C9.29465 0.0996094 9.09753 0.181261 8.95219 0.326602C8.80685 0.471942 8.7252 0.669067 8.7252 0.874609V5.52461C8.7252 5.73015 8.80685 5.92728 8.95219 6.07262C9.09753 6.21796 9.29465 6.29961 9.5002 6.29961C9.70574 6.29961 9.90286 6.21796 10.0482 6.07262C10.1935 5.92728 10.2752 5.73015 10.2752 5.52461V0.874609ZM8.7252 14.8246C8.7252 15.0302 8.80685 15.2273 8.95219 15.3726C9.09753 15.518 9.29465 15.5996 9.5002 15.5996C9.70574 15.5996 9.90286 15.518 10.0482 15.3726C10.1935 15.2273 10.2752 15.0302 10.2752 14.8246V10.1746C10.2752 9.96907 10.1935 9.77194 10.0482 9.6266C9.90286 9.48126 9.70574 9.39961 9.5002 9.39961C9.29465 9.39961 9.09753 9.48126 8.95219 9.6266C8.80685 9.77194 8.7252 9.96907 8.7252 10.1746V14.8246ZM8.7252 19.4746C8.7252 19.2691 8.80685 19.0719 8.95219 18.9266C9.09753 18.7813 9.29465 18.6996 9.5002 18.6996C9.70574 18.6996 9.90286 18.7813 10.0482 18.9266C10.1935 19.0719 10.2752 19.2691 10.2752 19.4746V24.1246C10.2752 24.3302 10.1935 24.5273 10.0482 24.6726C9.90286 24.818 9.70574 24.8996 9.5002 24.8996C9.29465 24.8996 9.09753 24.818 8.95219 24.6726C8.80685 24.5273 8.7252 24.3302 8.7252 24.1246V19.4746Z" fill="#F2695C"/>
                    </svg> 