<svg width="27" height="27" viewBox="0 0 27 27" fill="none" xmlns="http://www.w3.org/2000/svg">
<path d="M10.5652 0.867193C4.73965 0.867193 0 5.29086 0 10.728C0 16.1651 4.73965 20.5888 10.5652 20.5888C12.9888 20.5888 15.2175 19.8149 17.0022 18.5291L24.6807 25.6958C25.2113 26.191 26.0714 26.191 26.602 25.6958C27.1326 25.2005 27.1326 24.3977 26.602 23.9025L18.9235 16.7359C20.3012 15.0702 21.1303 12.9901 21.1303 10.728C21.1303 5.29086 16.3907 0.867193 10.5652 0.867193ZM10.5652 3.05848C15.0958 3.05848 18.7825 6.49936 18.7825 10.728C18.7825 14.9566 15.0958 18.3975 10.5652 18.3975C6.03446 18.3975 2.34781 14.9566 2.34781 10.728C2.34781 6.49936 6.03446 3.05848 10.5652 3.05848Z" fill="#203A40"/>
</svg>