<svg width="19" height="24" viewBox="0 0 19 24" fill="none" xmlns="http://www.w3.org/2000/svg">
<path d="M10.1704 7.04536C10.1704 6.8133 10.2626 6.59074 10.4267 6.42664C10.5908 6.26255 10.8134 6.17036 11.0454 6.17036H17.1494C17.3224 6.17051 17.4914 6.22191 17.6351 6.31807C17.7789 6.41423 17.8909 6.55083 17.9571 6.71062C18.0233 6.87041 18.0406 7.04622 18.0069 7.21585C17.9732 7.38548 17.89 7.54133 17.7678 7.66369L14.5291 10.9035C15.1708 11.0167 15.7623 11.1987 16.2698 11.467C17.3256 12.0235 18.0244 12.965 18.0244 14.288C18.0244 15.415 17.4749 16.3297 16.6571 16.9364C15.8556 17.5325 14.8056 17.8347 13.7159 17.8347C12.1211 17.8347 11.0629 17.2187 10.6044 16.9527C10.4038 16.8359 10.2577 16.6442 10.1984 16.4197C10.1391 16.1952 10.1715 15.9564 10.2883 15.7557C10.4051 15.555 10.5968 15.409 10.8213 15.3497C11.0458 15.2904 11.2846 15.3227 11.4853 15.4395C11.8714 15.6647 12.5971 16.0847 13.7159 16.0847C14.5011 16.0847 15.1661 15.8654 15.6141 15.5329C16.0458 15.212 16.2744 14.792 16.2744 14.288C16.2744 13.7047 16.0189 13.3127 15.4543 13.0152C14.8266 12.6839 13.8501 12.4984 12.5714 12.4984C12.3985 12.4982 12.2295 12.4468 12.0857 12.3507C11.942 12.2545 11.8299 12.1179 11.7638 11.9581C11.6976 11.7983 11.6803 11.6225 11.714 11.4529C11.7477 11.2832 11.8309 11.1274 11.9531 11.005L15.0366 7.92036H11.0454C10.8134 7.92036 10.5908 7.82817 10.4267 7.66408C10.2626 7.49998 10.1704 7.27742 10.1704 7.04536ZM4.1936 15.7499C3.84574 15.7091 3.49399 15.7812 3.19023 15.9555C2.88647 16.1299 2.64681 16.3972 2.5066 16.7182C2.40911 16.9253 2.23438 17.0859 2.01986 17.1657C1.80533 17.2454 1.5681 17.2379 1.35902 17.1449C1.14994 17.0518 0.985656 16.8804 0.901393 16.6677C0.817131 16.4549 0.819597 16.2175 0.908263 16.0065C1.1999 15.3457 1.6954 14.7955 2.32224 14.4365C2.94908 14.0775 3.67435 13.9286 4.39193 14.0115C5.0791 14.0815 5.72076 14.3884 6.20843 14.8784C6.71476 15.3987 7.0076 16.1127 7.0076 16.9527C7.0076 18.8672 5.5446 19.7959 4.53426 20.4364C3.9066 20.8342 3.1576 21.246 2.7901 21.9215H6.37526C6.60733 21.9215 6.82989 22.0137 6.99398 22.1778C7.15807 22.3419 7.25026 22.5645 7.25026 22.7965C7.25026 23.0286 7.15807 23.2512 6.99398 23.4152C6.82989 23.5793 6.60733 23.6715 6.37526 23.6715H1.7086C1.47653 23.6715 1.25397 23.5793 1.08988 23.4152C0.925783 23.2512 0.833596 23.0286 0.833596 22.7965C0.833596 20.6977 2.39343 19.7282 3.45043 19.0515C4.65443 18.2827 5.25876 17.8487 5.25876 16.9515C5.25876 16.5374 5.12343 16.2702 4.95543 16.0975C4.74939 15.8976 4.47958 15.7748 4.1936 15.7499ZM4.4666 0.442027C4.60312 0.51781 4.71688 0.628745 4.79606 0.763322C4.87525 0.897899 4.91698 1.05121 4.91693 1.20736V8.49903H6.3776C6.60966 8.49903 6.83222 8.59121 6.99631 8.75531C7.16041 8.9194 7.2526 9.14196 7.2526 9.37403C7.2526 9.60609 7.16041 9.82865 6.99631 9.99274C6.83222 10.1568 6.60966 10.249 6.3776 10.249H1.7086C1.47653 10.249 1.25397 10.1568 1.08988 9.99274C0.925783 9.82865 0.833596 9.60609 0.833596 9.37403C0.833596 9.14196 0.925783 8.9194 1.08988 8.75531C1.25397 8.59121 1.47653 8.49903 1.7086 8.49903H3.16693V2.78586L2.17176 3.40769C1.97497 3.53069 1.73738 3.57047 1.51126 3.51829C1.28514 3.46611 1.08901 3.32623 0.966012 3.12944C0.843018 2.93265 0.803237 2.69506 0.855419 2.46894C0.907601 2.24282 1.04747 2.04669 1.24426 1.92369L3.5776 0.46536C3.71017 0.382373 3.86256 0.336436 4.01891 0.332333C4.17526 0.328229 4.32985 0.366108 4.4666 0.442027Z" fill="#F2695C"/>
</svg>
