<svg width="30" height="25" viewBox="0 0 30 25" fill="none" xmlns="http://www.w3.org/2000/svg">
<path d="M11.1151 14.2316C10.9874 14.7587 10.9657 15.3058 11.0512 15.8413C11.1366 16.3768 11.3275 16.89 11.6128 17.3511C11.8981 17.8122 12.2722 18.2122 12.7132 18.5276C13.1542 18.8431 13.6535 19.0679 14.1821 19.189C14.7106 19.3101 15.258 19.325 15.7924 19.2329C16.3268 19.1408 16.8376 18.9436 17.2951 18.6526C17.7527 18.3616 18.1479 17.9827 18.4579 17.5377C18.768 17.0928 18.9865 16.5908 19.1011 16.0608C19.2287 15.5337 19.2504 14.9866 19.1649 14.4511C19.0795 13.9157 18.8886 13.4025 18.6033 12.9413C18.318 12.4802 17.9439 12.0803 17.5029 11.7648C17.0619 11.4493 16.5626 11.2245 16.034 11.1034C15.5055 10.9823 14.9581 10.9674 14.4237 11.0595C13.8893 11.1516 13.3785 11.3488 12.921 11.6398C12.4634 11.9308 12.0682 12.3098 11.7582 12.7547C11.4482 13.1996 11.2296 13.7016 11.1151 14.2316Z" stroke="#F2695C" stroke-width="0.857143" stroke-linecap="round" stroke-linejoin="round"/>
<path d="M4.79896 10.7016L1.41309 7.02211M11.2406 6.18768L9.86148 1.34375M25.7831 10.7016L29.169 7.02446M19.3415 6.18768L20.7206 1.34375M15.291 5.54418C6.19761 5.54418 2.37955 14.4212 2.37955 14.605C2.37955 14.7889 6.19761 23.6635 15.291 23.6635C24.3845 23.6635 28.2025 14.7889 28.2025 14.605C28.2025 14.4212 24.3845 5.54418 15.291 5.54418Z" stroke="#F2695C" stroke-width="0.857143" stroke-linecap="round" stroke-linejoin="round"/>
</svg>
