<svg width="31" height="31" viewBox="0 0 31 31" fill="none" xmlns="http://www.w3.org/2000/svg">
<path d="M15.5189 0.905808C15.5274 1.03291 15.5107 1.16042 15.4698 1.28107C15.429 1.40172 15.3647 1.51313 15.2808 1.60895C15.1969 1.70476 15.0949 1.78311 14.9807 1.8395C14.8664 1.8959 14.7422 1.92924 14.6151 1.93762C12.0123 2.11065 9.51437 3.02989 7.42025 4.58537C5.32613 6.14086 3.72447 8.26672 2.80688 10.7086C1.88929 13.1506 1.69463 15.8051 2.24619 18.3548C2.79774 20.9044 4.07215 23.2412 5.91697 25.0856C7.76178 26.9299 10.0989 28.2037 12.6487 28.7546C15.1984 29.3054 17.8529 29.1101 20.2946 28.1918C22.7362 27.2736 24.8616 25.6713 26.4166 23.5768C27.9715 21.4822 28.89 18.984 29.0623 16.3811C29.0706 16.254 29.1039 16.1298 29.1601 16.0155C29.2164 15.9013 29.2947 15.7992 29.3904 15.7152C29.4861 15.6312 29.5974 15.5668 29.718 15.5259C29.8386 15.4849 29.9661 15.468 30.0932 15.4763C30.2203 15.4846 30.3445 15.5178 30.4587 15.5741C30.573 15.6304 30.675 15.7086 30.7591 15.8043C30.8431 15.9001 30.9074 16.0114 30.9484 16.132C30.9894 16.2526 31.0062 16.3801 30.9979 16.5072C30.8013 19.4821 29.7518 22.3375 27.9748 24.7315C26.1979 27.1256 23.7688 28.957 20.9783 30.0067C18.1877 31.0563 15.1538 31.2797 12.2396 30.6501C9.32536 30.0206 6.65423 28.5647 4.54578 26.4568C2.43734 24.3488 0.980863 21.678 0.350625 18.7639C-0.279614 15.8498 -0.0569272 12.8158 0.992041 10.025C2.04101 7.23412 3.87183 4.80459 6.26547 3.02707C8.6591 1.24955 11.5142 0.199304 14.4891 0.00200078C14.7454 -0.0144859 14.9979 0.071426 15.191 0.240877C15.384 0.410328 15.502 0.64947 15.5189 0.905808ZM17.4681 1.03575C17.4933 0.910765 17.543 0.791979 17.6142 0.686193C17.6854 0.580406 17.7767 0.489698 17.883 0.41926C17.9893 0.348822 18.1084 0.300036 18.2336 0.275696C18.3587 0.251355 18.4875 0.251938 18.6124 0.27741C19.6998 0.498513 20.7394 0.827581 21.7311 1.26462C21.8516 1.3129 21.9613 1.38491 22.0535 1.47636C22.1456 1.56781 22.2185 1.67685 22.2678 1.797C22.317 1.91716 22.3417 2.04598 22.3402 2.17583C22.3387 2.30568 22.3112 2.43391 22.2592 2.55291C22.2072 2.67192 22.1319 2.77928 22.0377 2.86861C21.9434 2.95795 21.8322 3.02745 21.7106 3.07299C21.589 3.11853 21.4595 3.13918 21.3297 3.13372C21.2 3.12826 21.0727 3.0968 20.9553 3.0412C20.0786 2.65816 19.1639 2.36886 18.2265 2.17812C18.1016 2.15267 17.9831 2.10289 17.8775 2.0316C17.7719 1.96032 17.6814 1.86893 17.6112 1.76267C17.541 1.6564 17.4923 1.53734 17.4681 1.41228C17.4439 1.28722 17.4446 1.15862 17.4701 1.03382M29.745 9.28251C29.6941 9.16573 29.6207 9.06013 29.5289 8.97173C29.4372 8.88334 29.3289 8.81388 29.2103 8.76732C29.0917 8.72077 28.9651 8.69802 28.8377 8.7004C28.7103 8.70277 28.5847 8.73021 28.4679 8.78115C28.3511 8.83209 28.2455 8.90553 28.1571 8.99728C28.0687 9.08904 27.9993 9.1973 27.9527 9.3159C27.9062 9.43449 27.8834 9.56109 27.8858 9.68848C27.8882 9.81586 27.9156 9.94153 27.9665 10.0583C28.3454 10.9182 28.6305 11.8213 28.8219 12.7678C28.8733 13.0198 29.0227 13.2411 29.2373 13.383C29.4519 13.5248 29.7141 13.5756 29.9661 13.5242C30.2182 13.4728 30.4395 13.3233 30.5813 13.1087C30.7232 12.8941 30.774 12.6319 30.7225 12.3799C30.506 11.3161 30.1783 10.2779 29.745 9.28251ZM24.0798 3.68123C24.2447 3.48406 24.4812 3.36043 24.7372 3.33752C24.9933 3.31461 25.2479 3.39429 25.4452 3.55904C26.2003 4.18744 26.8901 4.88178 27.5146 5.64207C27.5955 5.74051 27.6562 5.85391 27.6932 5.97581C27.7303 6.0977 27.7429 6.2257 27.7305 6.35249C27.7181 6.47928 27.6808 6.60238 27.6208 6.71476C27.5608 6.82715 27.4793 6.92661 27.3808 7.00748C27.2824 7.08834 27.169 7.14903 27.0471 7.18607C26.9252 7.22311 26.7972 7.23578 26.6704 7.22335C26.5436 7.21092 26.4205 7.17364 26.3081 7.11364C26.1957 7.05364 26.0963 6.97209 26.0154 6.87365C25.4707 6.20935 24.8642 5.59825 24.2039 5.04858C24.1059 4.96703 24.0249 4.86695 23.9656 4.75405C23.9062 4.64115 23.8698 4.51767 23.8582 4.39066C23.8467 4.26365 23.8604 4.13561 23.8984 4.01388C23.9364 3.89214 23.9981 3.7791 24.0798 3.68123ZM15.5151 6.75728C15.5151 6.50009 15.4129 6.25343 15.231 6.07156C15.0492 5.8897 14.8025 5.78753 14.5453 5.78753C14.2881 5.78753 14.0415 5.8897 13.8596 6.07156C13.6777 6.25343 13.5756 6.50009 13.5756 6.75728V16.4548C13.5756 16.712 13.6777 16.9586 13.8596 17.1405C14.0415 17.3224 14.2881 17.4245 14.5453 17.4245H20.3638C20.621 17.4245 20.8676 17.3224 21.0495 17.1405C21.2313 16.9586 21.3335 16.712 21.3335 16.4548C21.3335 16.1976 21.2313 15.9509 21.0495 15.7691C20.8676 15.5872 20.621 15.485 20.3638 15.485H15.5151V6.75728Z" fill="#F2695C"/>
</svg>