<svg width="31" height="31" viewBox="0 0 31 31" fill="none" xmlns="http://www.w3.org/2000/svg">
<path d="M15.5 0C12.4344 0 9.43763 0.909059 6.88867 2.61222C4.33971 4.31538 2.35303 6.73615 1.17987 9.5684C0.00671591 12.4007 -0.300236 15.5172 0.297835 18.5239C0.895906 21.5306 2.37214 24.2924 4.53985 26.4601C6.70756 28.6279 9.4694 30.1041 12.4761 30.7022C15.4828 31.3002 18.5993 30.9933 21.4316 29.8201C24.2638 28.647 26.6846 26.6603 28.3878 24.1113C30.0909 21.5624 31 18.5656 31 15.5C30.9957 11.3905 29.3612 7.45051 26.4554 4.54464C23.5495 1.63876 19.6095 0.00433973 15.5 0ZM15.5 28.6154C12.906 28.6154 10.3703 27.8462 8.21349 26.405C6.05667 24.9639 4.37564 22.9156 3.38297 20.519C2.3903 18.1225 2.13057 15.4854 2.63663 12.9413C3.14269 10.3972 4.39181 8.06024 6.22603 6.22602C8.06025 4.3918 10.3972 3.14268 12.9413 2.63662C15.4855 2.13056 18.1225 2.39029 20.519 3.38296C22.9156 4.37564 24.9639 6.05667 26.405 8.21348C27.8462 10.3703 28.6154 12.906 28.6154 15.5C28.6114 18.9772 27.2284 22.3109 24.7696 24.7696C22.3109 27.2284 18.9772 28.6114 15.5 28.6154ZM25.0385 15.5C25.0385 15.8162 24.9128 16.1195 24.6892 16.3431C24.4656 16.5667 24.1624 16.6923 23.8462 16.6923H15.5C15.1838 16.6923 14.8805 16.5667 14.6569 16.3431C14.4333 16.1195 14.3077 15.8162 14.3077 15.5V7.15384C14.3077 6.83763 14.4333 6.53436 14.6569 6.31076C14.8805 6.08716 15.1838 5.96154 15.5 5.96154C15.8162 5.96154 16.1195 6.08716 16.3431 6.31076C16.5667 6.53436 16.6923 6.83763 16.6923 7.15384V14.3077H23.8462C24.1624 14.3077 24.4656 14.4333 24.6892 14.6569C24.9128 14.8805 25.0385 15.1838 25.0385 15.5Z" fill="#F2695C"/>
</svg>
