<svg width="29" height="34" viewBox="0 0 29 34" fill="none" xmlns="http://www.w3.org/2000/svg">
<path d="M14.9395 22.5C14.9395 23.0967 14.721 23.669 14.3323 24.091C13.9435 24.5129 13.4162 24.75 12.8664 24.75C12.3165 24.75 11.7892 24.5129 11.4004 24.091C11.0117 23.669 10.7933 23.0967 10.7933 22.5C10.7933 21.9033 11.0117 21.331 11.4004 20.909C11.7892 20.4871 12.3165 20.25 12.8664 20.25C13.4162 20.25 13.9435 20.4871 14.3323 20.909C14.721 21.331 14.9395 21.9033 14.9395 22.5ZM18.0491 6.1875C18.0491 4.84484 18.5405 3.55717 19.4153 2.60777C20.2901 1.65837 21.4765 1.125 22.7136 1.125C23.9507 1.125 25.1371 1.65837 26.0119 2.60777C26.8866 3.55717 27.3781 4.84484 27.3781 6.1875V8.4375C27.3781 8.58668 27.4327 8.72976 27.5299 8.83525C27.6271 8.94074 27.7589 9 27.8964 9C28.0338 9 28.1656 8.94074 28.2628 8.83525C28.36 8.72976 28.4146 8.58668 28.4146 8.4375V6.1875C28.4146 4.54647 27.814 2.97266 26.7448 1.81228C25.6757 0.651895 24.2256 0 22.7136 0C21.2016 0 19.7515 0.651895 18.6824 1.81228C17.6132 2.97266 17.0126 4.54647 17.0126 6.1875V10.125H5.09222C3.85512 10.125 2.66869 10.6584 1.79393 11.6078C0.919169 12.5572 0.427734 13.8448 0.427734 15.1875V28.6875C0.427734 30.0302 0.919169 31.3178 1.79393 32.2672C2.66869 33.2166 3.85512 33.75 5.09222 33.75H20.6405C21.8776 33.75 23.064 33.2166 23.9388 32.2672C24.8135 31.3178 25.305 30.0302 25.305 28.6875V15.1875C25.305 13.8448 24.8135 12.5572 23.9388 11.6078C23.064 10.6584 21.8776 10.125 20.6405 10.125H18.0491V6.1875ZM20.6405 11.25C21.6027 11.25 22.5255 11.6648 23.2058 12.4033C23.8862 13.1417 24.2684 14.1432 24.2684 15.1875V28.6875C24.2684 29.7318 23.8862 30.7333 23.2058 31.4717C22.5255 32.2102 21.6027 32.625 20.6405 32.625H5.09222C4.13003 32.625 3.20725 32.2102 2.52688 31.4717C1.84651 30.7333 1.46429 29.7318 1.46429 28.6875V15.1875C1.46429 14.1432 1.84651 13.1417 2.52688 12.4033C3.20725 11.6648 4.13003 11.25 5.09222 11.25H20.6405Z" fill="#F2695C"/>
</svg>
