<svg width="27" height="32" viewBox="0 0 27 32" fill="none" xmlns="http://www.w3.org/2000/svg">
<path d="M13.5 22.5C14.0967 22.5 14.669 22.2629 15.091 21.841C15.5129 21.419 15.75 20.8467 15.75 20.25C15.75 19.6533 15.5129 19.081 15.091 18.659C14.669 18.2371 14.0967 18 13.5 18C12.9033 18 12.331 18.2371 11.909 18.659C11.4871 19.081 11.25 19.6533 11.25 20.25C11.25 20.8467 11.4871 21.419 11.909 21.841C12.331 22.2629 12.9033 22.5 13.5 22.5ZM6.75 6.75C6.75 4.95979 7.46116 3.2429 8.72703 1.97703C9.9929 0.711159 11.7098 0 13.5 0C15.2902 0 17.0071 0.711159 18.273 1.97703C19.5388 3.2429 20.25 4.95979 20.25 6.75V7.875H21.9375C23.2802 7.875 24.5678 8.40837 25.5172 9.35777C26.4666 10.3072 27 11.5948 27 12.9375V26.4375C27 27.7802 26.4666 29.0678 25.5172 30.0172C24.5678 30.9666 23.2802 31.5 21.9375 31.5H5.0625C3.71984 31.5 2.43217 30.9666 1.48277 30.0172C0.533369 29.0678 0 27.7802 0 26.4375V12.9375C0 11.5948 0.533369 10.3072 1.48277 9.35777C2.43217 8.40837 3.71984 7.875 5.0625 7.875H6.75V6.75ZM19.125 6.75C19.125 5.25816 18.5324 3.82742 17.4775 2.77252C16.4226 1.71763 14.9918 1.125 13.5 1.125C12.0082 1.125 10.5774 1.71763 9.52252 2.77252C8.46763 3.82742 7.875 5.25816 7.875 6.75V7.875H19.125V6.75ZM5.0625 9C4.01821 9 3.01669 9.41484 2.27827 10.1533C1.53984 10.8917 1.125 11.8932 1.125 12.9375V26.4375C1.125 27.4818 1.53984 28.4833 2.27827 29.2217C3.01669 29.9602 4.01821 30.375 5.0625 30.375H21.9375C22.9818 30.375 23.9833 29.9602 24.7217 29.2217C25.4602 28.4833 25.875 27.4818 25.875 26.4375V12.9375C25.875 11.8932 25.4602 10.8917 24.7217 10.1533C23.9833 9.41484 22.9818 9 21.9375 9H5.0625Z" fill="#F2695C"/>
</svg>
