<svg width="18" height="10" viewBox="0 0 18 10" fill="none" xmlns="http://www.w3.org/2000/svg">
<path d="M16.2008 0.205598L8.70385 7.5136L1.20685 0.205598C1.07291 0.0747535 0.893094 0.00149989 0.705849 0.00149989C0.518605 0.00149989 0.33879 0.0747535 0.20485 0.205598C0.139993 0.269144 0.088468 0.344993 0.053293 0.428702C0.018118 0.512411 0 0.602298 0 0.693098C0 0.783897 0.018118 0.873784 0.053293 0.957493C0.088468 1.0412 0.139993 1.11705 0.20485 1.1806L8.18035 8.9566C8.32041 9.09312 8.50826 9.16953 8.70385 9.16953C8.89944 9.16953 9.08729 9.09312 9.22735 8.9566L17.2028 1.1821C17.2682 1.1185 17.3201 1.04247 17.3555 0.958482C17.391 0.874495 17.4092 0.784259 17.4092 0.693098C17.4092 0.601937 17.391 0.5117 17.3555 0.427713C17.3201 0.343726 17.2682 0.267692 17.2028 0.204098C17.0689 0.0732529 16.8891 0 16.7018 0C16.5146 0 16.3348 0.0732529 16.2008 0.204098V0.205598Z" fill="#203A40"/>
</svg>
