<svg width="10" height="18" viewBox="0 0 10 18" fill="none" xmlns="http://www.w3.org/2000/svg">
<path d="M9.0112 16.4977L1.7032 9.00072L9.0112 1.50372C9.14204 1.36978 9.2153 1.18997 9.2153 1.00272C9.2153 0.81548 9.14204 0.635665 9.0112 0.501725C8.94765 0.436868 8.8718 0.385343 8.78809 0.350168C8.70439 0.314993 8.6145 0.296875 8.5237 0.296875C8.4329 0.296875 8.34301 0.314993 8.2593 0.350168C8.17559 0.385343 8.09975 0.436868 8.0362 0.501725L0.2602 8.47722C0.123678 8.61728 0.0472717 8.80514 0.0472717 9.00072C0.0472717 9.19631 0.123678 9.38416 0.2602 9.52422L8.0347 17.4997C8.09829 17.565 8.17433 17.617 8.25831 17.6524C8.3423 17.6878 8.43254 17.7061 8.5237 17.7061C8.61486 17.7061 8.7051 17.6878 8.78908 17.6524C8.87307 17.617 8.94911 17.565 9.0127 17.4997C9.14354 17.3658 9.2168 17.186 9.2168 16.9987C9.2168 16.8115 9.14354 16.6317 9.0127 16.4977H9.0112Z" fill="white"/>
</svg>