<svg width="10" height="19" viewBox="0 0 10 19" fill="none" xmlns="http://www.w3.org/2000/svg">
<path d="M0.325715 2.08821L7.63371 9.58521L0.325715 17.0822C0.194871 17.2162 0.121617 17.396 0.121617 17.5832C0.121617 17.7705 0.194871 17.9503 0.325715 18.0842C0.389262 18.1491 0.46511 18.2006 0.548819 18.2358C0.632529 18.2709 0.722416 18.2891 0.813215 18.2891C0.904014 18.2891 0.993901 18.2709 1.07761 18.2358C1.16132 18.2006 1.23717 18.1491 1.30071 18.0842L9.07671 10.1087C9.21323 9.96865 9.28964 9.7808 9.28964 9.58521C9.28964 9.38963 9.21323 9.20177 9.07671 9.06171L1.30222 1.08621C1.23862 1.0209 1.16259 0.968985 1.0786 0.933538C0.994612 0.898092 0.904376 0.879829 0.813215 0.879829C0.722054 0.879829 0.631817 0.898092 0.54783 0.933538C0.463843 0.968985 0.387809 1.0209 0.324215 1.08621C0.19337 1.22016 0.120117 1.39997 0.120117 1.58721C0.120117 1.77446 0.19337 1.95427 0.324215 2.08821H0.325715Z" fill="#203A40"/>
</svg>