<svg width="54" height="57" viewBox="0 0 54 57" fill="none" xmlns="http://www.w3.org/2000/svg">
<path d="M27 0.000976562C24.1724 0.000976562 21.8571 2.04306 21.8571 4.53698C21.8571 5.1217 21.9877 5.6887 22.2187 6.20254C14.9866 7.85925 10.2857 13.4008 10.2857 20.413C10.2857 29.2945 7.81474 33.3388 5.46429 35.6157C4.28907 36.7541 3.1289 37.4451 2.12946 38.0963C1.62724 38.4197 1.17021 38.743 0.763393 39.1594C0.35658 39.5758 0 40.1694 0 40.825C0 42.3842 1.08482 43.7087 2.61161 44.5814C4.13839 45.454 6.14229 46.0166 8.55804 46.4595C11.692 47.031 15.5591 47.3322 19.808 47.4872C19.4866 48.2403 19.2857 49.0509 19.2857 49.897C19.2857 53.6401 22.7561 56.701 27 56.701C31.2439 56.701 34.7143 53.6401 34.7143 49.897C34.7143 49.0465 34.5184 48.2359 34.192 47.4872C38.4409 47.3322 42.308 47.031 45.442 46.4595C47.8577 46.0166 49.8616 45.454 51.3884 44.5814C52.9152 43.7087 54 42.3842 54 40.825C54 40.1694 53.6434 39.5758 53.2366 39.1594C52.8298 38.743 52.3728 38.4197 51.8705 38.0963C50.8711 37.4451 49.7109 36.7541 48.5357 35.6157C46.1853 33.3388 43.7143 29.2945 43.7143 20.413C43.7143 13.4052 39.0034 7.8681 31.7812 6.20254C32.0123 5.6887 32.1429 5.1217 32.1429 4.53698C32.1429 2.04306 29.8276 0.000976562 27 0.000976562ZM27 2.26898C28.4364 2.26898 29.5714 3.27008 29.5714 4.53698C29.5714 5.80387 28.4364 6.80498 27 6.80498C25.5636 6.80498 24.4286 5.80387 24.4286 4.53698C24.4286 3.27008 25.5636 2.26898 27 2.26898ZM30.0134 8.1516C36.8689 9.22802 41.1429 13.9013 41.1429 20.413C41.1429 29.6755 43.8147 34.4329 46.6071 37.1395C48.0034 38.4905 49.4146 39.3366 50.3437 39.939C50.8058 40.2403 51.1523 40.4928 51.308 40.6478C51.4637 40.8028 51.4286 40.7895 51.4286 40.825C51.4286 41.5337 51.0569 42.052 49.9821 42.6677C48.9074 43.2835 47.1596 43.8549 44.9196 44.2624C40.4397 45.0819 34.0614 45.361 27 45.361C19.9386 45.361 13.5603 45.0819 9.08036 44.2624C6.8404 43.8549 5.09264 43.2835 4.01786 42.6677C2.94308 42.052 2.57143 41.5337 2.57143 40.825C2.57143 40.7895 2.53628 40.8028 2.69196 40.6478C2.84765 40.4928 3.1942 40.2403 3.65625 39.939C4.58538 39.3366 5.99665 38.4905 7.39286 37.1395C10.1853 34.4329 12.8571 29.6755 12.8571 20.413C12.8571 13.9058 17.1362 9.26789 23.9866 8.18704C24.8404 8.74075 25.87 9.07298 27 9.07298C28.1401 9.07298 29.1596 8.71417 30.0134 8.1516ZM22.5804 47.5581C24.0218 47.5847 25.4883 47.629 27 47.629C28.5117 47.629 29.9782 47.5847 31.4196 47.5581C31.8767 48.2403 32.1429 49.0465 32.1429 49.897C32.1429 52.4175 29.8577 54.433 27 54.433C24.1423 54.433 21.8571 52.4175 21.8571 49.897C21.8571 49.0376 22.1133 48.2403 22.5804 47.5581Z" fill="#203A40"/>
</svg>