    	<svg width="53" height="36" viewBox="0 0 53 36" fill="none" xmlns="http://www.w3.org/2000/svg">
			<path d="M1.27083 0.00011251C1.12112 -0.00199578 0.972491 0.025545 0.833569 0.0811351C0.694648 0.136725 0.568206 0.219256 0.461594 0.32393C0.354981 0.428605 0.270323 0.553335 0.21254 0.690874C0.154756 0.828412 0.125 0.976016 0.125 1.12511C0.125 1.2742 0.154756 1.4218 0.21254 1.55934C0.270323 1.69688 0.354981 1.82161 0.461594 1.92628C0.568206 2.03096 0.694648 2.11349 0.833569 2.16908C0.972491 2.22467 1.12112 2.25221 1.27083 2.2501H50.9792C51.1289 2.25221 51.2775 2.22467 51.4164 2.16908C51.5553 2.11349 51.6818 2.03096 51.7884 1.92628C51.895 1.82161 51.9797 1.69688 52.0375 1.55934C52.0952 1.4218 52.125 1.2742 52.125 1.12511C52.125 0.976016 52.0952 0.828412 52.0375 0.690874C51.9797 0.553335 51.895 0.428605 51.7884 0.32393C51.6818 0.219256 51.5553 0.136725 51.4164 0.0811351C51.2775 0.025545 51.1289 -0.00199578 50.9792 0.00011251H1.27083ZM1.27083 16.875C1.12112 16.8729 0.972491 16.9004 0.833569 16.956C0.694648 17.0116 0.568206 17.0942 0.461594 17.1988C0.354981 17.3035 0.270323 17.4282 0.21254 17.5658C0.154756 17.7033 0.125 17.8509 0.125 18C0.125 18.1491 0.154756 18.2967 0.21254 18.4342C0.270323 18.5718 0.354981 18.6965 0.461594 18.8012C0.568206 18.9058 0.694648 18.9884 0.833569 19.044C0.972491 19.0996 1.12112 19.1271 1.27083 19.125H50.9792C51.1289 19.1271 51.2775 19.0996 51.4164 19.044C51.5553 18.9884 51.6818 18.9058 51.7884 18.8012C51.895 18.6965 51.9797 18.5718 52.0375 18.4342C52.0952 18.2967 52.125 18.1491 52.125 18C52.125 17.8509 52.0952 17.7033 52.0375 17.5658C51.9797 17.4282 51.895 17.3035 51.7884 17.1988C51.6818 17.0942 51.5553 17.0116 51.4164 16.956C51.2775 16.9004 51.1289 16.8729 50.9792 16.875H1.27083ZM1.27083 33.7499C1.12112 33.7478 0.972491 33.7753 0.833569 33.8309C0.694648 33.8865 0.568206 33.969 0.461594 34.0737C0.354981 34.1784 0.270323 34.3031 0.21254 34.4407C0.154756 34.5782 0.125 34.7258 0.125 34.8749C0.125 35.024 0.154756 35.1716 0.21254 35.3091C0.270323 35.4467 0.354981 35.5714 0.461594 35.6761C0.568206 35.7807 0.694648 35.8633 0.833569 35.9189C0.972491 35.9744 1.12112 36.002 1.27083 35.9999H50.9792C51.1289 36.002 51.2775 35.9744 51.4164 35.9189C51.5553 35.8633 51.6818 35.7807 51.7884 35.6761C51.895 35.5714 51.9797 35.4467 52.0375 35.3091C52.0952 35.1716 52.125 35.024 52.125 34.8749C52.125 34.7258 52.0952 34.5782 52.0375 34.4407C51.9797 34.3031 51.895 34.1784 51.7884 34.0737C51.6818 33.969 51.5553 33.8865 51.4164 33.8309C51.2775 33.7753 51.1289 33.7478 50.9792 33.7499H1.27083Z" fill="#F2695C"/>
		</svg>