<svg width="52" height="36" viewBox="0 0 52 36" fill="none" xmlns="http://www.w3.org/2000/svg">
<path d="M1.14583 0.000110064C0.996122 -0.00195239 0.847491 0.0249897 0.708569 0.0793713C0.569648 0.133753 0.443206 0.21449 0.336594 0.316888C0.229981 0.419287 0.145323 0.541306 0.0875396 0.675855C0.0297563 0.810403 0 0.954798 0 1.10065C0 1.2465 0.0297563 1.39089 0.0875396 1.52544C0.145323 1.65999 0.229981 1.78201 0.336594 1.88441C0.443206 1.9868 0.569648 2.06754 0.708569 2.12192C0.847491 2.1763 0.996122 2.20325 1.14583 2.20118H50.8542C51.0039 2.20325 51.1525 2.1763 51.2914 2.12192C51.4303 2.06754 51.5568 1.9868 51.6634 1.88441C51.77 1.78201 51.8547 1.65999 51.9125 1.52544C51.9702 1.39089 52 1.2465 52 1.10065C52 0.954798 51.9702 0.810403 51.9125 0.675855C51.8547 0.541306 51.77 0.419287 51.6634 0.316888C51.5568 0.21449 51.4303 0.133753 51.2914 0.0793713C51.1525 0.0249897 51.0039 -0.00195239 50.8542 0.000110064H1.14583ZM1.14583 16.5082C0.996122 16.5061 0.847491 16.533 0.708569 16.5874C0.569648 16.6418 0.443206 16.7225 0.336594 16.8249C0.229981 16.9273 0.145323 17.0494 0.0875396 17.1839C0.0297563 17.3185 0 17.4628 0 17.6087C0 17.7545 0.0297563 17.8989 0.0875396 18.0335C0.145323 18.168 0.229981 18.2901 0.336594 18.3925C0.443206 18.4949 0.569648 18.5756 0.708569 18.63C0.847491 18.6844 0.996122 18.7113 1.14583 18.7092H50.8542C51.0039 18.7113 51.1525 18.6844 51.2914 18.63C51.4303 18.5756 51.5568 18.4949 51.6634 18.3925C51.77 18.2901 51.8547 18.168 51.9125 18.0335C51.9702 17.8989 52 17.7545 52 17.6087C52 17.4628 51.9702 17.3185 51.9125 17.1839C51.8547 17.0494 51.77 16.9273 51.6634 16.8249C51.5568 16.7225 51.4303 16.6418 51.2914 16.5874C51.1525 16.533 51.0039 16.5061 50.8542 16.5082H1.14583ZM1.14583 33.0162C0.996122 33.0141 0.847491 33.0411 0.708569 33.0955C0.569648 33.1499 0.443206 33.2306 0.336594 33.333C0.229981 33.4354 0.145323 33.5574 0.0875396 33.692C0.0297563 33.8265 0 33.9709 0 34.1167C0 34.2626 0.0297563 34.407 0.0875396 34.5415C0.145323 34.6761 0.229981 34.7981 0.336594 34.9005C0.443206 35.0029 0.569648 35.0836 0.708569 35.138C0.847491 35.1924 0.996122 35.2193 1.14583 35.2173H50.8542C51.0039 35.2193 51.1525 35.1924 51.2914 35.138C51.4303 35.0836 51.5568 35.0029 51.6634 34.9005C51.77 34.7981 51.8547 34.6761 51.9125 34.5415C51.9702 34.407 52 34.2626 52 34.1167C52 33.9709 51.9702 33.8265 51.9125 33.692C51.8547 33.5574 51.77 33.4354 51.6634 33.333C51.5568 33.2306 51.4303 33.1499 51.2914 33.0955C51.1525 33.0411 51.0039 33.0141 50.8542 33.0162H1.14583Z" fill="#203A40"/>
</svg>