<svg width="52" height="34" viewBox="0 0 52 34" fill="none" xmlns="http://www.w3.org/2000/svg">
<path d="M1.14583 0.200298C0.996122 0.198373 0.847491 0.223519 0.708569 0.274275C0.569648 0.325031 0.443206 0.400386 0.336594 0.495958C0.229981 0.59153 0.145323 0.705414 0.0875396 0.830993C0.0297563 0.956572 0 1.09134 0 1.22747C0 1.36359 0.0297563 1.49836 0.0875396 1.62394C0.145323 1.74952 0.229981 1.8634 0.336594 1.95897C0.443206 2.05455 0.569648 2.1299 0.708569 2.18066C0.847491 2.23141 0.996122 2.25656 1.14583 2.25463H50.8542C51.0039 2.25656 51.1525 2.23141 51.2914 2.18066C51.4303 2.1299 51.5568 2.05455 51.6634 1.95897C51.77 1.8634 51.8547 1.74952 51.9125 1.62394C51.9702 1.49836 52 1.36359 52 1.22747C52 1.09134 51.9702 0.956572 51.9125 0.830993C51.8547 0.705414 51.77 0.59153 51.6634 0.495958C51.5568 0.400386 51.4303 0.325031 51.2914 0.274275C51.1525 0.223519 51.0039 0.198373 50.8542 0.200298H1.14583ZM1.14583 15.6078C0.996122 15.6059 0.847491 15.631 0.708569 15.6818C0.569648 15.7325 0.443206 15.8079 0.336594 15.9035C0.229981 15.999 0.145323 16.1129 0.0875396 16.2385C0.0297563 16.3641 0 16.4989 0 16.635C0 16.7711 0.0297563 16.9059 0.0875396 17.0315C0.145323 17.157 0.229981 17.2709 0.336594 17.3665C0.443206 17.4621 0.569648 17.5374 0.708569 17.5882C0.847491 17.6389 0.996122 17.6641 1.14583 17.6621H50.8542C51.0039 17.6641 51.1525 17.6389 51.2914 17.5882C51.4303 17.5374 51.5568 17.4621 51.6634 17.3665C51.77 17.2709 51.8547 17.157 51.9125 17.0315C51.9702 16.9059 52 16.7711 52 16.635C52 16.4989 51.9702 16.3641 51.9125 16.2385C51.8547 16.1129 51.77 15.999 51.6634 15.9035C51.5568 15.8079 51.4303 15.7325 51.2914 15.6818C51.1525 15.631 51.0039 15.6059 50.8542 15.6078H1.14583ZM1.14583 31.0153C0.996122 31.0134 0.847491 31.0385 0.708569 31.0893C0.569648 31.1401 0.443206 31.2154 0.336594 31.311C0.229981 31.4066 0.145323 31.5204 0.0875396 31.646C0.0297563 31.7716 0 31.9064 0 32.0425C0 32.1786 0.0297563 32.3134 0.0875396 32.439C0.145323 32.5645 0.229981 32.6784 0.336594 32.774C0.443206 32.8696 0.569648 32.9449 0.708569 32.9957C0.847491 33.0464 0.996122 33.0716 1.14583 33.0697H50.8542C51.0039 33.0716 51.1525 33.0464 51.2914 32.9957C51.4303 32.9449 51.5568 32.8696 51.6634 32.774C51.77 32.6784 51.8547 32.5645 51.9125 32.439C51.9702 32.3134 52 32.1786 52 32.0425C52 31.9064 51.9702 31.7716 51.9125 31.646C51.8547 31.5204 51.77 31.4066 51.6634 31.311C51.5568 31.2154 51.4303 31.1401 51.2914 31.0893C51.1525 31.0385 51.0039 31.0134 50.8542 31.0153H1.14583Z" fill="#203A40"/>
</svg>