                    <svg width="440" height="149" viewBox="0 0 440 149" fill="none" xmlns="http://www.w3.org/2000/svg">
                        <path d="M4.57031 0.135742H20.708C23.8981 0.135742 26.4697 1.03906 28.4229 2.8457C30.376 4.63607 31.3525 7.15885 31.3525 10.4141C31.3525 13.2135 30.4818 15.6549 28.7402 17.7383C26.9987 19.8053 24.3213 20.8389 20.708 20.8389H9.42871V36H4.57031V0.135742ZM26.4453 10.4385C26.4453 7.80176 25.4688 6.01139 23.5156 5.06738C22.4414 4.56283 20.9684 4.31055 19.0967 4.31055H9.42871V16.7373H19.0967C21.2777 16.7373 23.0436 16.2734 24.3945 15.3457C25.7617 14.418 26.4453 12.7822 26.4453 10.4385ZM40.2393 29.042C40.2393 30.3115 40.7031 31.3125 41.6309 32.0449C42.5586 32.7773 43.6572 33.1436 44.9268 33.1436C46.473 33.1436 47.9704 32.7855 49.4189 32.0693C51.8604 30.8812 53.0811 28.9362 53.0811 26.2344V22.6943C52.5439 23.0361 51.8522 23.321 51.0059 23.5488C50.1595 23.7767 49.3294 23.9395 48.5156 24.0371L45.8545 24.3789C44.2594 24.5905 43.0632 24.9242 42.2656 25.3799C40.9147 26.1449 40.2393 27.3656 40.2393 29.042ZM50.8838 20.1553C51.8929 20.0251 52.5684 19.6019 52.9102 18.8857C53.1055 18.4951 53.2031 17.9336 53.2031 17.2012C53.2031 15.7038 52.666 14.6214 51.5918 13.9541C50.5339 13.2705 49.012 12.9287 47.0264 12.9287C44.7314 12.9287 43.1038 13.5472 42.1436 14.7842C41.6064 15.4678 41.2565 16.485 41.0938 17.8359H36.9922C37.0736 14.6133 38.1152 12.3753 40.1172 11.1221C42.1354 9.85254 44.471 9.21777 47.124 9.21777C50.2002 9.21777 52.6986 9.80371 54.6191 10.9756C56.5234 12.1475 57.4756 13.9704 57.4756 16.4443V31.5078C57.4756 31.9635 57.5651 32.3298 57.7441 32.6064C57.9395 32.8831 58.3382 33.0215 58.9404 33.0215C59.1357 33.0215 59.3555 33.0133 59.5996 32.9971C59.8438 32.9645 60.1042 32.9238 60.3809 32.875V36.1221C59.6973 36.3174 59.1764 36.4395 58.8184 36.4883C58.4603 36.5371 57.972 36.5615 57.3535 36.5615C55.8398 36.5615 54.7412 36.0244 54.0576 34.9502C53.6995 34.3805 53.4473 33.5749 53.3008 32.5332C52.4056 33.7051 51.1198 34.7223 49.4434 35.585C47.7669 36.4476 45.9196 36.8789 43.9014 36.8789C41.4762 36.8789 39.4906 36.1465 37.9443 34.6816C36.4144 33.2005 35.6494 31.3532 35.6494 29.1396C35.6494 26.7145 36.4062 24.8346 37.9199 23.5C39.4336 22.1654 41.4193 21.3434 43.877 21.0342L50.8838 20.1553ZM67.3145 27.7969C67.4447 29.2617 67.8109 30.3848 68.4131 31.166C69.5199 32.582 71.4404 33.29 74.1748 33.29C75.8024 33.29 77.2347 32.9401 78.4717 32.2402C79.7087 31.5241 80.3271 30.4255 80.3271 28.9443C80.3271 27.8213 79.8307 26.9668 78.8379 26.3809C78.2031 26.0228 76.9499 25.6077 75.0781 25.1357L71.5869 24.2568C69.3571 23.7035 67.7132 23.085 66.6553 22.4014C64.7673 21.2132 63.8232 19.5693 63.8232 17.4697C63.8232 14.9958 64.7103 12.9938 66.4844 11.4639C68.2747 9.93392 70.6755 9.16895 73.6865 9.16895C77.6253 9.16895 80.4655 10.3245 82.207 12.6357C83.2975 14.1006 83.8265 15.6794 83.7939 17.3721H79.6436C79.5622 16.3792 79.2122 15.4759 78.5938 14.6621C77.5846 13.5065 75.835 12.9287 73.3447 12.9287C71.6846 12.9287 70.4232 13.2461 69.5605 13.8809C68.7142 14.5156 68.291 15.3538 68.291 16.3955C68.291 17.5348 68.8525 18.4463 69.9756 19.1299C70.6266 19.5368 71.5869 19.8949 72.8564 20.2041L75.7617 20.9121C78.9193 21.6771 81.0352 22.4176 82.1094 23.1338C83.8184 24.2568 84.6729 26.0228 84.6729 28.4316C84.6729 30.7591 83.7858 32.7692 82.0117 34.4619C80.2539 36.1546 77.5684 37.001 73.9551 37.001C70.0651 37.001 67.3063 36.1221 65.6787 34.3643C64.0674 32.5902 63.2048 30.401 63.0908 27.7969H67.3145ZM92.3145 27.7969C92.4447 29.2617 92.8109 30.3848 93.4131 31.166C94.5199 32.582 96.4404 33.29 99.1748 33.29C100.802 33.29 102.235 32.9401 103.472 32.2402C104.709 31.5241 105.327 30.4255 105.327 28.9443C105.327 27.8213 104.831 26.9668 103.838 26.3809C103.203 26.0228 101.95 25.6077 100.078 25.1357L96.5869 24.2568C94.3571 23.7035 92.7132 23.085 91.6553 22.4014C89.7673 21.2132 88.8232 19.5693 88.8232 17.4697C88.8232 14.9958 89.7103 12.9938 91.4844 11.4639C93.2747 9.93392 95.6755 9.16895 98.6865 9.16895C102.625 9.16895 105.465 10.3245 107.207 12.6357C108.298 14.1006 108.826 15.6794 108.794 17.3721H104.644C104.562 16.3792 104.212 15.4759 103.594 14.6621C102.585 13.5065 100.835 12.9287 98.3447 12.9287C96.6846 12.9287 95.4232 13.2461 94.5605 13.8809C93.7142 14.5156 93.291 15.3538 93.291 16.3955C93.291 17.5348 93.8525 18.4463 94.9756 19.1299C95.6266 19.5368 96.5869 19.8949 97.8564 20.2041L100.762 20.9121C103.919 21.6771 106.035 22.4176 107.109 23.1338C108.818 24.2568 109.673 26.0228 109.673 28.4316C109.673 30.7591 108.786 32.7692 107.012 34.4619C105.254 36.1546 102.568 37.001 98.9551 37.001C95.0651 37.001 92.3063 36.1221 90.6787 34.3643C89.0674 32.5902 88.2048 30.401 88.0908 27.7969H92.3145ZM125.078 33.168C127.992 33.168 129.985 32.0693 131.06 29.8721C132.15 27.6585 132.695 25.2008 132.695 22.499C132.695 20.0576 132.305 18.0719 131.523 16.542C130.286 14.1331 128.154 12.9287 125.127 12.9287C122.441 12.9287 120.488 13.9541 119.268 16.0049C118.047 18.0557 117.437 20.5296 117.437 23.4268C117.437 26.21 118.047 28.5293 119.268 30.3848C120.488 32.2402 122.425 33.168 125.078 33.168ZM125.249 9.0957C128.618 9.0957 131.466 10.2188 133.794 12.4648C136.121 14.7109 137.285 18.015 137.285 22.377C137.285 26.5924 136.26 30.0755 134.209 32.8262C132.158 35.5768 128.976 36.9521 124.663 36.9521C121.066 36.9521 118.21 35.7396 116.094 33.3145C113.978 30.873 112.92 27.6016 112.92 23.5C112.92 19.1055 114.035 15.6061 116.265 13.002C118.494 10.3978 121.489 9.0957 125.249 9.0957ZM154.79 36C154.953 32.9889 155.571 30.3685 156.646 28.1387C157.736 25.9089 159.852 23.8825 162.993 22.0596L167.681 19.3496C169.78 18.1289 171.253 17.0872 172.1 16.2246C173.434 14.8737 174.102 13.3275 174.102 11.5859C174.102 9.55143 173.491 7.9401 172.271 6.75195C171.05 5.54753 169.422 4.94531 167.388 4.94531C164.377 4.94531 162.293 6.08464 161.138 8.36328C160.519 9.58398 160.177 11.2767 160.112 13.4414H155.645C155.693 10.3978 156.255 7.91569 157.329 5.99512C159.233 2.6097 162.594 0.916992 167.412 0.916992C171.416 0.916992 174.338 1.99935 176.177 4.16406C178.032 6.32878 178.96 8.73763 178.96 11.3906C178.96 14.1901 177.975 16.5827 176.006 18.5684C174.867 19.724 172.824 21.1237 169.878 22.7676L166.533 24.623C164.938 25.502 163.685 26.3402 162.773 27.1377C161.146 28.5537 160.12 30.1243 159.697 31.8496H178.789V36H154.79ZM197.051 19.8135H209.307V24.3301H197.051V19.8135ZM229.814 0.135742H255.962V4.53027H234.551V15.4189H254.351V19.5693H234.551V31.7275H256.328V36H229.814V0.135742ZM262.114 9.85254H266.289V13.5635C267.526 12.0335 268.836 10.9349 270.22 10.2676C271.603 9.60026 273.141 9.2666 274.834 9.2666C278.545 9.2666 281.051 10.5605 282.354 13.1484C283.07 14.5645 283.428 16.5908 283.428 19.2275V36H278.96V19.5205C278.96 17.9255 278.724 16.6396 278.252 15.6631C277.471 14.0355 276.055 13.2217 274.004 13.2217C272.962 13.2217 272.108 13.3275 271.44 13.5391C270.236 13.8971 269.178 14.6133 268.267 15.6875C267.534 16.5501 267.054 17.4453 266.826 18.373C266.615 19.2845 266.509 20.5947 266.509 22.3037V36H262.114V9.85254ZM292.729 23.2314C292.729 26.0309 293.324 28.3747 294.512 30.2627C295.7 32.1507 297.604 33.0947 300.225 33.0947C302.259 33.0947 303.927 32.224 305.229 30.4824C306.548 28.7246 307.207 26.21 307.207 22.9385C307.207 19.6344 306.532 17.193 305.181 15.6143C303.83 14.0192 302.161 13.2217 300.176 13.2217C297.962 13.2217 296.164 14.068 294.78 15.7607C293.413 17.4535 292.729 19.9437 292.729 23.2314ZM299.346 9.38867C301.348 9.38867 303.024 9.81185 304.375 10.6582C305.156 11.1465 306.043 12.001 307.036 13.2217V0.0136719H311.26V36H307.305V32.3623C306.279 33.9736 305.067 35.1374 303.667 35.8535C302.267 36.5697 300.664 36.9277 298.857 36.9277C295.944 36.9277 293.421 35.707 291.289 33.2656C289.157 30.8079 288.091 27.5446 288.091 23.4756C288.091 19.667 289.059 16.3711 290.996 13.5879C292.949 10.7884 295.732 9.38867 299.346 9.38867ZM328.667 9.2666C330.522 9.2666 332.321 9.70605 334.062 10.585C335.804 11.4476 337.131 12.5706 338.042 13.9541C338.921 15.2725 339.507 16.8105 339.8 18.5684C340.06 19.7728 340.19 21.6934 340.19 24.3301H321.025C321.107 26.9831 321.733 29.1152 322.905 30.7266C324.077 32.3216 325.892 33.1191 328.35 33.1191C330.645 33.1191 332.476 32.3623 333.843 30.8486C334.624 29.9697 335.177 28.9525 335.503 27.7969H339.824C339.71 28.7572 339.328 29.8314 338.677 31.0195C338.042 32.1914 337.326 33.1517 336.528 33.9004C335.194 35.2025 333.542 36.0814 331.572 36.5371C330.514 36.7975 329.318 36.9277 327.983 36.9277C324.728 36.9277 321.969 35.7477 319.707 33.3877C317.445 31.0114 316.313 27.6911 316.313 23.4268C316.313 19.2275 317.453 15.8177 319.731 13.1973C322.01 10.5768 324.989 9.2666 328.667 9.2666ZM335.674 20.8389C335.495 18.9346 335.08 17.4128 334.429 16.2734C333.224 14.1576 331.214 13.0996 328.398 13.0996C326.38 13.0996 324.688 13.832 323.32 15.2969C321.953 16.7454 321.229 18.5928 321.147 20.8389H335.674ZM345.732 9.85254H349.907V14.3691C350.249 13.4902 351.087 12.4242 352.422 11.1709C353.757 9.90137 355.295 9.2666 357.036 9.2666C357.118 9.2666 357.256 9.27474 357.451 9.29102C357.646 9.30729 357.98 9.33984 358.452 9.38867V14.0273C358.192 13.9785 357.948 13.946 357.72 13.9297C357.508 13.9134 357.272 13.9053 357.012 13.9053C354.798 13.9053 353.097 14.6214 351.909 16.0537C350.721 17.4697 350.127 19.1055 350.127 20.9609V36H345.732V9.85254ZM373.149 9.2666C375.005 9.2666 376.803 9.70605 378.545 10.585C380.286 11.4476 381.613 12.5706 382.524 13.9541C383.403 15.2725 383.989 16.8105 384.282 18.5684C384.543 19.7728 384.673 21.6934 384.673 24.3301H365.508C365.589 26.9831 366.216 29.1152 367.388 30.7266C368.56 32.3216 370.374 33.1191 372.832 33.1191C375.127 33.1191 376.958 32.3623 378.325 30.8486C379.106 29.9697 379.66 28.9525 379.985 27.7969H384.307C384.193 28.7572 383.81 29.8314 383.159 31.0195C382.524 32.1914 381.808 33.1517 381.011 33.9004C379.676 35.2025 378.024 36.0814 376.055 36.5371C374.997 36.7975 373.8 36.9277 372.466 36.9277C369.211 36.9277 366.452 35.7477 364.189 33.3877C361.927 31.0114 360.796 27.6911 360.796 23.4268C360.796 19.2275 361.935 15.8177 364.214 13.1973C366.493 10.5768 369.471 9.2666 373.149 9.2666ZM380.156 20.8389C379.977 18.9346 379.562 17.4128 378.911 16.2734C377.707 14.1576 375.697 13.0996 372.881 13.0996C370.863 13.0996 369.17 13.832 367.803 15.2969C366.436 16.7454 365.711 18.5928 365.63 20.8389H380.156ZM400.176 9.0957C403.122 9.0957 405.514 9.81185 407.354 11.2441C409.209 12.6764 410.324 15.1423 410.698 18.6416H406.426C406.165 17.0303 405.571 15.6956 404.644 14.6377C403.716 13.5635 402.227 13.0264 400.176 13.0264C397.376 13.0264 395.374 14.3936 394.17 17.1279C393.389 18.902 392.998 21.0911 392.998 23.6953C392.998 26.3158 393.551 28.5212 394.658 30.3115C395.765 32.1019 397.507 32.9971 399.883 32.9971C401.706 32.9971 403.146 32.4437 404.204 31.3369C405.278 30.2139 406.019 28.6839 406.426 26.7471H410.698C410.21 30.2139 408.989 32.7529 407.036 34.3643C405.083 35.9593 402.812 36.7568 400.225 36.7568L398.491 39.125C398.963 38.9785 399.574 38.9053 400.322 38.9053C401.462 38.9053 402.397 39.2308 403.13 39.8818C403.879 40.5492 404.253 41.4932 404.253 42.7139C404.253 43.9508 403.765 45.0169 402.788 45.9121C401.812 46.8073 400.314 47.2549 398.296 47.2549C397.433 47.2549 396.538 47.1328 395.61 46.8887C395.09 46.7585 394.39 46.5306 393.511 46.2051L394.365 44.2275C394.984 44.4554 395.464 44.6182 395.806 44.7158C396.473 44.8949 397.075 44.9844 397.612 44.9844C398.215 44.9844 398.735 44.8949 399.175 44.7158C400.021 44.374 400.444 43.7555 400.444 42.8604C400.444 42.3395 400.225 41.8838 399.785 41.4932C399.362 41.1188 398.792 40.9316 398.076 40.9316C397.718 40.9316 397.393 40.9642 397.1 41.0293C396.823 41.0944 396.489 41.2002 396.099 41.3467L395.244 40.3457L397.881 36.7568C395.57 36.7568 393.551 35.8291 391.826 33.9736C389.482 31.3206 388.311 27.8783 388.311 23.6465C388.311 19.0566 389.425 15.484 391.655 12.9287C393.885 10.3734 396.725 9.0957 400.176 9.0957ZM425.469 33.168C428.382 33.168 430.376 32.0693 431.45 29.8721C432.541 27.6585 433.086 25.2008 433.086 22.499C433.086 20.0576 432.695 18.0719 431.914 16.542C430.677 14.1331 428.545 12.9287 425.518 12.9287C422.832 12.9287 420.879 13.9541 419.658 16.0049C418.438 18.0557 417.827 20.5296 417.827 23.4268C417.827 26.21 418.438 28.5293 419.658 30.3848C420.879 32.2402 422.816 33.168 425.469 33.168ZM425.64 9.0957C429.009 9.0957 431.857 10.2188 434.185 12.4648C436.512 14.7109 437.676 18.015 437.676 22.377C437.676 26.5924 436.65 30.0755 434.6 32.8262C432.549 35.5768 429.367 36.9521 425.054 36.9521C421.457 36.9521 418.6 35.7396 416.484 33.3145C414.368 30.873 413.311 27.6016 413.311 23.5C413.311 19.1055 414.425 15.6061 416.655 13.002C418.885 10.3978 421.88 9.0957 425.64 9.0957Z" fill="#203A40"/>
                        <path d="M318.707 125.707C319.098 125.317 319.098 124.683 318.707 124.293L312.343 117.929C311.953 117.538 311.319 117.538 310.929 117.929C310.538 118.319 310.538 118.953 310.929 119.343L316.586 125L310.929 130.657C310.538 131.047 310.538 131.681 310.929 132.071C311.319 132.462 311.953 132.462 312.343 132.071L318.707 125.707ZM245 126L318 126L318 124L245 124L245 126Z" fill="#F2695C"/>
                        <path d="M194.707 125.707C195.098 125.317 195.098 124.683 194.707 124.293L188.343 117.929C187.953 117.538 187.319 117.538 186.929 117.929C186.538 118.319 186.538 118.953 186.929 119.343L192.586 125L186.929 130.657C186.538 131.047 186.538 131.681 186.929 132.071C187.319 132.462 187.953 132.462 188.343 132.071L194.707 125.707ZM121 126L194 126L194 124L121 124L121 126Z" fill="#F2695C"/>
                        <path d="M343.807 134.571C341.327 134.571 339.525 133.893 338.402 132.535C337.288 131.168 336.732 129.508 336.732 127.555H339.486C339.603 128.912 339.857 129.898 340.247 130.514C340.931 131.617 342.166 132.169 343.953 132.169C345.34 132.169 346.453 131.798 347.293 131.056C348.133 130.313 348.553 129.356 348.553 128.185C348.553 126.739 348.109 125.729 347.22 125.152C346.341 124.576 345.116 124.288 343.543 124.288C343.368 124.288 343.187 124.293 343.001 124.303C342.826 124.303 342.645 124.308 342.459 124.317V121.988C342.733 122.018 342.962 122.037 343.148 122.047C343.333 122.057 343.534 122.062 343.748 122.062C344.735 122.062 345.545 121.905 346.18 121.593C347.293 121.046 347.85 120.069 347.85 118.663C347.85 117.618 347.479 116.812 346.737 116.246C345.994 115.68 345.13 115.396 344.144 115.396C342.386 115.396 341.17 115.982 340.496 117.154C340.125 117.799 339.915 118.717 339.867 119.908H337.259C337.259 118.346 337.572 117.018 338.197 115.924C339.271 113.971 341.161 112.994 343.866 112.994C346.004 112.994 347.66 113.473 348.831 114.43C350.003 115.377 350.589 116.754 350.589 118.561C350.589 119.85 350.243 120.895 349.549 121.695C349.119 122.193 348.563 122.584 347.879 122.867C348.983 123.17 349.842 123.756 350.457 124.625C351.082 125.484 351.395 126.539 351.395 127.789C351.395 129.791 350.736 131.422 349.417 132.682C348.099 133.941 346.229 134.571 343.807 134.571Z" fill="#203A40"/>
                        <rect x="320" y="100" width="48" height="48" rx="5" stroke="#203A40" stroke-width="2"/>
                        <rect x="195" y="99" width="50" height="50" rx="6" fill="#203A40"/>
                        <rect x="72" y="100" width="48" height="48" rx="5" stroke="#203A40" stroke-width="2"/>
                        <path d="M90.7601 120.146V118.125C92.6644 117.939 93.9925 117.632 94.7445 117.202C95.4964 116.763 96.058 115.732 96.4291 114.111H98.5091V135H95.6966V120.146H90.7601Z" fill="#203A40"/>
                        <path d="M212.952 135C213.049 133.193 213.42 131.621 214.065 130.283C214.719 128.945 215.989 127.729 217.873 126.636L220.686 125.01C221.946 124.277 222.829 123.652 223.337 123.135C224.138 122.324 224.538 121.396 224.538 120.352C224.538 119.131 224.172 118.164 223.44 117.451C222.707 116.729 221.731 116.367 220.51 116.367C218.703 116.367 217.453 117.051 216.76 118.418C216.389 119.15 216.184 120.166 216.145 121.465H213.464C213.494 119.639 213.83 118.149 214.475 116.997C215.618 114.966 217.634 113.95 220.525 113.95C222.927 113.95 224.68 114.6 225.784 115.898C226.897 117.197 227.453 118.643 227.453 120.234C227.453 121.914 226.863 123.35 225.681 124.541C224.997 125.234 223.772 126.074 222.004 127.061L219.997 128.174C219.04 128.701 218.288 129.204 217.742 129.683C216.765 130.532 216.15 131.475 215.896 132.51H227.351V135H212.952Z" fill="white"/>
                    </svg>