<svg width="434" height="140" viewBox="0 0 434 140" fill="none" xmlns="http://www.w3.org/2000/svg">
<path d="M0.570312 0.135742H16.708C19.8981 0.135742 22.4697 1.03906 24.4229 2.8457C26.376 4.63607 27.3525 7.15885 27.3525 10.4141C27.3525 13.2135 26.4818 15.6549 24.7402 17.7383C22.9987 19.8053 20.3213 20.8389 16.708 20.8389H5.42871V36H0.570312V0.135742ZM22.4453 10.4385C22.4453 7.80176 21.4688 6.01139 19.5156 5.06738C18.4414 4.56283 16.9684 4.31055 15.0967 4.31055H5.42871V16.7373H15.0967C17.2777 16.7373 19.0436 16.2734 20.3945 15.3457C21.7617 14.418 22.4453 12.7822 22.4453 10.4385ZM36.2393 29.042C36.2393 30.3115 36.7031 31.3125 37.6309 32.0449C38.5586 32.7773 39.6572 33.1436 40.9268 33.1436C42.473 33.1436 43.9704 32.7855 45.4189 32.0693C47.8604 30.8812 49.0811 28.9362 49.0811 26.2344V22.6943C48.5439 23.0361 47.8522 23.321 47.0059 23.5488C46.1595 23.7767 45.3294 23.9395 44.5156 24.0371L41.8545 24.3789C40.2594 24.5905 39.0632 24.9242 38.2656 25.3799C36.9147 26.1449 36.2393 27.3656 36.2393 29.042ZM46.8838 20.1553C47.8929 20.0251 48.5684 19.6019 48.9102 18.8857C49.1055 18.4951 49.2031 17.9336 49.2031 17.2012C49.2031 15.7038 48.666 14.6214 47.5918 13.9541C46.5339 13.2705 45.012 12.9287 43.0264 12.9287C40.7314 12.9287 39.1038 13.5472 38.1436 14.7842C37.6064 15.4678 37.2565 16.485 37.0938 17.8359H32.9922C33.0736 14.6133 34.1152 12.3753 36.1172 11.1221C38.1354 9.85254 40.471 9.21777 43.124 9.21777C46.2002 9.21777 48.6986 9.80371 50.6191 10.9756C52.5234 12.1475 53.4756 13.9704 53.4756 16.4443V31.5078C53.4756 31.9635 53.5651 32.3298 53.7441 32.6064C53.9395 32.8831 54.3382 33.0215 54.9404 33.0215C55.1357 33.0215 55.3555 33.0133 55.5996 32.9971C55.8438 32.9645 56.1042 32.9238 56.3809 32.875V36.1221C55.6973 36.3174 55.1764 36.4395 54.8184 36.4883C54.4603 36.5371 53.972 36.5615 53.3535 36.5615C51.8398 36.5615 50.7412 36.0244 50.0576 34.9502C49.6995 34.3805 49.4473 33.5749 49.3008 32.5332C48.4056 33.7051 47.1198 34.7223 45.4434 35.585C43.7669 36.4476 41.9196 36.8789 39.9014 36.8789C37.4762 36.8789 35.4906 36.1465 33.9443 34.6816C32.4144 33.2005 31.6494 31.3532 31.6494 29.1396C31.6494 26.7145 32.4062 24.8346 33.9199 23.5C35.4336 22.1654 37.4193 21.3434 39.877 21.0342L46.8838 20.1553ZM63.3145 27.7969C63.4447 29.2617 63.8109 30.3848 64.4131 31.166C65.5199 32.582 67.4404 33.29 70.1748 33.29C71.8024 33.29 73.2347 32.9401 74.4717 32.2402C75.7087 31.5241 76.3271 30.4255 76.3271 28.9443C76.3271 27.8213 75.8307 26.9668 74.8379 26.3809C74.2031 26.0228 72.9499 25.6077 71.0781 25.1357L67.5869 24.2568C65.3571 23.7035 63.7132 23.085 62.6553 22.4014C60.7673 21.2132 59.8232 19.5693 59.8232 17.4697C59.8232 14.9958 60.7103 12.9938 62.4844 11.4639C64.2747 9.93392 66.6755 9.16895 69.6865 9.16895C73.6253 9.16895 76.4655 10.3245 78.207 12.6357C79.2975 14.1006 79.8265 15.6794 79.7939 17.3721H75.6436C75.5622 16.3792 75.2122 15.4759 74.5938 14.6621C73.5846 13.5065 71.835 12.9287 69.3447 12.9287C67.6846 12.9287 66.4232 13.2461 65.5605 13.8809C64.7142 14.5156 64.291 15.3538 64.291 16.3955C64.291 17.5348 64.8525 18.4463 65.9756 19.1299C66.6266 19.5368 67.5869 19.8949 68.8564 20.2041L71.7617 20.9121C74.9193 21.6771 77.0352 22.4176 78.1094 23.1338C79.8184 24.2568 80.6729 26.0228 80.6729 28.4316C80.6729 30.7591 79.7858 32.7692 78.0117 34.4619C76.2539 36.1546 73.5684 37.001 69.9551 37.001C66.0651 37.001 63.3063 36.1221 61.6787 34.3643C60.0674 32.5902 59.2048 30.401 59.0908 27.7969H63.3145ZM88.3145 27.7969C88.4447 29.2617 88.8109 30.3848 89.4131 31.166C90.5199 32.582 92.4404 33.29 95.1748 33.29C96.8024 33.29 98.2347 32.9401 99.4717 32.2402C100.709 31.5241 101.327 30.4255 101.327 28.9443C101.327 27.8213 100.831 26.9668 99.8379 26.3809C99.2031 26.0228 97.9499 25.6077 96.0781 25.1357L92.5869 24.2568C90.3571 23.7035 88.7132 23.085 87.6553 22.4014C85.7673 21.2132 84.8232 19.5693 84.8232 17.4697C84.8232 14.9958 85.7103 12.9938 87.4844 11.4639C89.2747 9.93392 91.6755 9.16895 94.6865 9.16895C98.6253 9.16895 101.465 10.3245 103.207 12.6357C104.298 14.1006 104.826 15.6794 104.794 17.3721H100.644C100.562 16.3792 100.212 15.4759 99.5938 14.6621C98.5846 13.5065 96.835 12.9287 94.3447 12.9287C92.6846 12.9287 91.4232 13.2461 90.5605 13.8809C89.7142 14.5156 89.291 15.3538 89.291 16.3955C89.291 17.5348 89.8525 18.4463 90.9756 19.1299C91.6266 19.5368 92.5869 19.8949 93.8564 20.2041L96.7617 20.9121C99.9193 21.6771 102.035 22.4176 103.109 23.1338C104.818 24.2568 105.673 26.0228 105.673 28.4316C105.673 30.7591 104.786 32.7692 103.012 34.4619C101.254 36.1546 98.5684 37.001 94.9551 37.001C91.0651 37.001 88.3063 36.1221 86.6787 34.3643C85.0674 32.5902 84.2048 30.401 84.0908 27.7969H88.3145ZM121.078 33.168C123.992 33.168 125.985 32.0693 127.06 29.8721C128.15 27.6585 128.695 25.2008 128.695 22.499C128.695 20.0576 128.305 18.0719 127.523 16.542C126.286 14.1331 124.154 12.9287 121.127 12.9287C118.441 12.9287 116.488 13.9541 115.268 16.0049C114.047 18.0557 113.437 20.5296 113.437 23.4268C113.437 26.21 114.047 28.5293 115.268 30.3848C116.488 32.2402 118.425 33.168 121.078 33.168ZM121.249 9.0957C124.618 9.0957 127.466 10.2188 129.794 12.4648C132.121 14.7109 133.285 18.015 133.285 22.377C133.285 26.5924 132.26 30.0755 130.209 32.8262C128.158 35.5768 124.976 36.9521 120.663 36.9521C117.066 36.9521 114.21 35.7396 112.094 33.3145C109.978 30.873 108.92 27.6016 108.92 23.5C108.92 19.1055 110.035 15.6061 112.265 13.002C114.494 10.3978 117.489 9.0957 121.249 9.0957ZM150.79 36C150.953 32.9889 151.571 30.3685 152.646 28.1387C153.736 25.9089 155.852 23.8825 158.993 22.0596L163.681 19.3496C165.78 18.1289 167.253 17.0872 168.1 16.2246C169.434 14.8737 170.102 13.3275 170.102 11.5859C170.102 9.55143 169.491 7.9401 168.271 6.75195C167.05 5.54753 165.422 4.94531 163.388 4.94531C160.377 4.94531 158.293 6.08464 157.138 8.36328C156.519 9.58398 156.177 11.2767 156.112 13.4414H151.645C151.693 10.3978 152.255 7.91569 153.329 5.99512C155.233 2.6097 158.594 0.916992 163.412 0.916992C167.416 0.916992 170.338 1.99935 172.177 4.16406C174.032 6.32878 174.96 8.73763 174.96 11.3906C174.96 14.1901 173.975 16.5827 172.006 18.5684C170.867 19.724 168.824 21.1237 165.878 22.7676L162.533 24.623C160.938 25.502 159.685 26.3402 158.773 27.1377C157.146 28.5537 156.12 30.1243 155.697 31.8496H174.789V36H150.79ZM193.051 19.8135H205.307V24.3301H193.051V19.8135ZM225.814 0.135742H251.962V4.53027H230.551V15.4189H250.351V19.5693H230.551V31.7275H252.328V36H225.814V0.135742ZM258.114 9.85254H262.289V13.5635C263.526 12.0335 264.836 10.9349 266.22 10.2676C267.603 9.60026 269.141 9.2666 270.834 9.2666C274.545 9.2666 277.051 10.5605 278.354 13.1484C279.07 14.5645 279.428 16.5908 279.428 19.2275V36H274.96V19.5205C274.96 17.9255 274.724 16.6396 274.252 15.6631C273.471 14.0355 272.055 13.2217 270.004 13.2217C268.962 13.2217 268.108 13.3275 267.44 13.5391C266.236 13.8971 265.178 14.6133 264.267 15.6875C263.534 16.5501 263.054 17.4453 262.826 18.373C262.615 19.2845 262.509 20.5947 262.509 22.3037V36H258.114V9.85254ZM288.729 23.2314C288.729 26.0309 289.324 28.3747 290.512 30.2627C291.7 32.1507 293.604 33.0947 296.225 33.0947C298.259 33.0947 299.927 32.224 301.229 30.4824C302.548 28.7246 303.207 26.21 303.207 22.9385C303.207 19.6344 302.532 17.193 301.181 15.6143C299.83 14.0192 298.161 13.2217 296.176 13.2217C293.962 13.2217 292.164 14.068 290.78 15.7607C289.413 17.4535 288.729 19.9437 288.729 23.2314ZM295.346 9.38867C297.348 9.38867 299.024 9.81185 300.375 10.6582C301.156 11.1465 302.043 12.001 303.036 13.2217V0.0136719H307.26V36H303.305V32.3623C302.279 33.9736 301.067 35.1374 299.667 35.8535C298.267 36.5697 296.664 36.9277 294.857 36.9277C291.944 36.9277 289.421 35.707 287.289 33.2656C285.157 30.8079 284.091 27.5446 284.091 23.4756C284.091 19.667 285.059 16.3711 286.996 13.5879C288.949 10.7884 291.732 9.38867 295.346 9.38867ZM324.667 9.2666C326.522 9.2666 328.321 9.70605 330.062 10.585C331.804 11.4476 333.131 12.5706 334.042 13.9541C334.921 15.2725 335.507 16.8105 335.8 18.5684C336.06 19.7728 336.19 21.6934 336.19 24.3301H317.025C317.107 26.9831 317.733 29.1152 318.905 30.7266C320.077 32.3216 321.892 33.1191 324.35 33.1191C326.645 33.1191 328.476 32.3623 329.843 30.8486C330.624 29.9697 331.177 28.9525 331.503 27.7969H335.824C335.71 28.7572 335.328 29.8314 334.677 31.0195C334.042 32.1914 333.326 33.1517 332.528 33.9004C331.194 35.2025 329.542 36.0814 327.572 36.5371C326.514 36.7975 325.318 36.9277 323.983 36.9277C320.728 36.9277 317.969 35.7477 315.707 33.3877C313.445 31.0114 312.313 27.6911 312.313 23.4268C312.313 19.2275 313.453 15.8177 315.731 13.1973C318.01 10.5768 320.989 9.2666 324.667 9.2666ZM331.674 20.8389C331.495 18.9346 331.08 17.4128 330.429 16.2734C329.224 14.1576 327.214 13.0996 324.398 13.0996C322.38 13.0996 320.688 13.832 319.32 15.2969C317.953 16.7454 317.229 18.5928 317.147 20.8389H331.674ZM341.732 9.85254H345.907V14.3691C346.249 13.4902 347.087 12.4242 348.422 11.1709C349.757 9.90137 351.295 9.2666 353.036 9.2666C353.118 9.2666 353.256 9.27474 353.451 9.29102C353.646 9.30729 353.98 9.33984 354.452 9.38867V14.0273C354.192 13.9785 353.948 13.946 353.72 13.9297C353.508 13.9134 353.272 13.9053 353.012 13.9053C350.798 13.9053 349.097 14.6214 347.909 16.0537C346.721 17.4697 346.127 19.1055 346.127 20.9609V36H341.732V9.85254ZM369.149 9.2666C371.005 9.2666 372.803 9.70605 374.545 10.585C376.286 11.4476 377.613 12.5706 378.524 13.9541C379.403 15.2725 379.989 16.8105 380.282 18.5684C380.543 19.7728 380.673 21.6934 380.673 24.3301H361.508C361.589 26.9831 362.216 29.1152 363.388 30.7266C364.56 32.3216 366.374 33.1191 368.832 33.1191C371.127 33.1191 372.958 32.3623 374.325 30.8486C375.106 29.9697 375.66 28.9525 375.985 27.7969H380.307C380.193 28.7572 379.81 29.8314 379.159 31.0195C378.524 32.1914 377.808 33.1517 377.011 33.9004C375.676 35.2025 374.024 36.0814 372.055 36.5371C370.997 36.7975 369.8 36.9277 368.466 36.9277C365.211 36.9277 362.452 35.7477 360.189 33.3877C357.927 31.0114 356.796 27.6911 356.796 23.4268C356.796 19.2275 357.935 15.8177 360.214 13.1973C362.493 10.5768 365.471 9.2666 369.149 9.2666ZM376.156 20.8389C375.977 18.9346 375.562 17.4128 374.911 16.2734C373.707 14.1576 371.697 13.0996 368.881 13.0996C366.863 13.0996 365.17 13.832 363.803 15.2969C362.436 16.7454 361.711 18.5928 361.63 20.8389H376.156ZM396.176 9.0957C399.122 9.0957 401.514 9.81185 403.354 11.2441C405.209 12.6764 406.324 15.1423 406.698 18.6416H402.426C402.165 17.0303 401.571 15.6956 400.644 14.6377C399.716 13.5635 398.227 13.0264 396.176 13.0264C393.376 13.0264 391.374 14.3936 390.17 17.1279C389.389 18.902 388.998 21.0911 388.998 23.6953C388.998 26.3158 389.551 28.5212 390.658 30.3115C391.765 32.1019 393.507 32.9971 395.883 32.9971C397.706 32.9971 399.146 32.4437 400.204 31.3369C401.278 30.2139 402.019 28.6839 402.426 26.7471H406.698C406.21 30.2139 404.989 32.7529 403.036 34.3643C401.083 35.9593 398.812 36.7568 396.225 36.7568L394.491 39.125C394.963 38.9785 395.574 38.9053 396.322 38.9053C397.462 38.9053 398.397 39.2308 399.13 39.8818C399.879 40.5492 400.253 41.4932 400.253 42.7139C400.253 43.9508 399.765 45.0169 398.788 45.9121C397.812 46.8073 396.314 47.2549 394.296 47.2549C393.433 47.2549 392.538 47.1328 391.61 46.8887C391.09 46.7585 390.39 46.5306 389.511 46.2051L390.365 44.2275C390.984 44.4554 391.464 44.6182 391.806 44.7158C392.473 44.8949 393.075 44.9844 393.612 44.9844C394.215 44.9844 394.735 44.8949 395.175 44.7158C396.021 44.374 396.444 43.7555 396.444 42.8604C396.444 42.3395 396.225 41.8838 395.785 41.4932C395.362 41.1188 394.792 40.9316 394.076 40.9316C393.718 40.9316 393.393 40.9642 393.1 41.0293C392.823 41.0944 392.489 41.2002 392.099 41.3467L391.244 40.3457L393.881 36.7568C391.57 36.7568 389.551 35.8291 387.826 33.9736C385.482 31.3206 384.311 27.8783 384.311 23.6465C384.311 19.0566 385.425 15.484 387.655 12.9287C389.885 10.3734 392.725 9.0957 396.176 9.0957ZM421.469 33.168C424.382 33.168 426.376 32.0693 427.45 29.8721C428.541 27.6585 429.086 25.2008 429.086 22.499C429.086 20.0576 428.695 18.0719 427.914 16.542C426.677 14.1331 424.545 12.9287 421.518 12.9287C418.832 12.9287 416.879 13.9541 415.658 16.0049C414.438 18.0557 413.827 20.5296 413.827 23.4268C413.827 26.21 414.438 28.5293 415.658 30.3848C416.879 32.2402 418.816 33.168 421.469 33.168ZM421.64 9.0957C425.009 9.0957 427.857 10.2188 430.185 12.4648C432.512 14.7109 433.676 18.015 433.676 22.377C433.676 26.5924 432.65 30.0755 430.6 32.8262C428.549 35.5768 425.367 36.9521 421.054 36.9521C417.457 36.9521 414.6 35.7396 412.484 33.3145C410.368 30.873 409.311 27.6016 409.311 23.5C409.311 19.1055 410.425 15.6061 412.655 13.002C414.885 10.3978 417.88 9.0957 421.64 9.0957Z" fill="#203A40"/>
<circle cx="164.862" cy="119.862" r="18.8623" stroke="#F2695C" stroke-width="2"/>
<circle cx="216" cy="119.862" r="18.8623" fill="#F2695C" stroke="#F2695C" stroke-width="2"/>
<circle cx="267.138" cy="119.862" r="18.8623" stroke="#F2695C" stroke-width="2"/>
</svg>
