<svg width="936" height="169" viewBox="0 0 936 169" fill="none" xmlns="http://www.w3.org/2000/svg">
<path d="M0.704102 1.13574H16.8418C20.0319 1.13574 22.6035 2.03906 24.5566 3.8457C26.5098 5.63607 27.4863 8.15885 27.4863 11.4141C27.4863 14.2135 26.6156 16.6549 24.874 18.7383C23.1325 20.8053 20.4551 21.8389 16.8418 21.8389H5.5625V37H0.704102V1.13574ZM22.5791 11.4385C22.5791 8.80176 21.6025 7.01139 19.6494 6.06738C18.5752 5.56283 17.1022 5.31055 15.2305 5.31055H5.5625V17.7373H15.2305C17.4115 17.7373 19.1774 17.2734 20.5283 16.3457C21.8955 15.418 22.5791 13.7822 22.5791 11.4385ZM36.373 30.042C36.373 31.3115 36.8369 32.3125 37.7646 33.0449C38.6924 33.7773 39.791 34.1436 41.0605 34.1436C42.6068 34.1436 44.1042 33.7855 45.5527 33.0693C47.9941 31.8812 49.2148 29.9362 49.2148 27.2344V23.6943C48.6777 24.0361 47.986 24.321 47.1396 24.5488C46.2933 24.7767 45.4632 24.9395 44.6494 25.0371L41.9883 25.3789C40.3932 25.5905 39.1969 25.9242 38.3994 26.3799C37.0485 27.1449 36.373 28.3656 36.373 30.042ZM47.0176 21.1553C48.0267 21.0251 48.7021 20.6019 49.0439 19.8857C49.2393 19.4951 49.3369 18.9336 49.3369 18.2012C49.3369 16.7038 48.7998 15.6214 47.7256 14.9541C46.6676 14.2705 45.1458 13.9287 43.1602 13.9287C40.8652 13.9287 39.2376 14.5472 38.2773 15.7842C37.7402 16.4678 37.3903 17.485 37.2275 18.8359H33.126C33.2074 15.6133 34.249 13.3753 36.251 12.1221C38.2692 10.8525 40.6048 10.2178 43.2578 10.2178C46.334 10.2178 48.8324 10.8037 50.7529 11.9756C52.6572 13.1475 53.6094 14.9704 53.6094 17.4443V32.5078C53.6094 32.9635 53.6989 33.3298 53.8779 33.6064C54.0732 33.8831 54.472 34.0215 55.0742 34.0215C55.2695 34.0215 55.4893 34.0133 55.7334 33.9971C55.9775 33.9645 56.238 33.9238 56.5146 33.875V37.1221C55.8311 37.3174 55.3102 37.4395 54.9521 37.4883C54.5941 37.5371 54.1058 37.5615 53.4873 37.5615C51.9736 37.5615 50.875 37.0244 50.1914 35.9502C49.8333 35.3805 49.5811 34.5749 49.4346 33.5332C48.5394 34.7051 47.2536 35.7223 45.5771 36.585C43.9007 37.4476 42.0534 37.8789 40.0352 37.8789C37.61 37.8789 35.6243 37.1465 34.0781 35.6816C32.5482 34.2005 31.7832 32.3532 31.7832 30.1396C31.7832 27.7145 32.54 25.8346 34.0537 24.5C35.5674 23.1654 37.5531 22.3434 40.0107 22.0342L47.0176 21.1553ZM63.4482 28.7969C63.5785 30.2617 63.9447 31.3848 64.5469 32.166C65.6536 33.582 67.5742 34.29 70.3086 34.29C71.9362 34.29 73.3685 33.9401 74.6055 33.2402C75.8424 32.5241 76.4609 31.4255 76.4609 29.9443C76.4609 28.8213 75.9645 27.9668 74.9717 27.3809C74.3369 27.0228 73.0837 26.6077 71.2119 26.1357L67.7207 25.2568C65.4909 24.7035 63.847 24.085 62.7891 23.4014C60.901 22.2132 59.957 20.5693 59.957 18.4697C59.957 15.9958 60.8441 13.9938 62.6182 12.4639C64.4085 10.9339 66.8092 10.1689 69.8203 10.1689C73.7591 10.1689 76.5993 11.3245 78.3408 13.6357C79.4313 15.1006 79.9603 16.6794 79.9277 18.3721H75.7773C75.696 17.3792 75.346 16.4759 74.7275 15.6621C73.7184 14.5065 71.9688 13.9287 69.4785 13.9287C67.8184 13.9287 66.557 14.2461 65.6943 14.8809C64.848 15.5156 64.4248 16.3538 64.4248 17.3955C64.4248 18.5348 64.9863 19.4463 66.1094 20.1299C66.7604 20.5368 67.7207 20.8949 68.9902 21.2041L71.8955 21.9121C75.0531 22.6771 77.1689 23.4176 78.2432 24.1338C79.9521 25.2568 80.8066 27.0228 80.8066 29.4316C80.8066 31.7591 79.9196 33.7692 78.1455 35.4619C76.3877 37.1546 73.7021 38.001 70.0889 38.001C66.1989 38.001 63.4401 37.1221 61.8125 35.3643C60.2012 33.5902 59.3385 31.401 59.2246 28.7969H63.4482ZM88.4482 28.7969C88.5785 30.2617 88.9447 31.3848 89.5469 32.166C90.6536 33.582 92.5742 34.29 95.3086 34.29C96.9362 34.29 98.3685 33.9401 99.6055 33.2402C100.842 32.5241 101.461 31.4255 101.461 29.9443C101.461 28.8213 100.965 27.9668 99.9717 27.3809C99.3369 27.0228 98.0837 26.6077 96.2119 26.1357L92.7207 25.2568C90.4909 24.7035 88.847 24.085 87.7891 23.4014C85.901 22.2132 84.957 20.5693 84.957 18.4697C84.957 15.9958 85.8441 13.9938 87.6182 12.4639C89.4085 10.9339 91.8092 10.1689 94.8203 10.1689C98.7591 10.1689 101.599 11.3245 103.341 13.6357C104.431 15.1006 104.96 16.6794 104.928 18.3721H100.777C100.696 17.3792 100.346 16.4759 99.7275 15.6621C98.7184 14.5065 96.9688 13.9287 94.4785 13.9287C92.8184 13.9287 91.557 14.2461 90.6943 14.8809C89.848 15.5156 89.4248 16.3538 89.4248 17.3955C89.4248 18.5348 89.9863 19.4463 91.1094 20.1299C91.7604 20.5368 92.7207 20.8949 93.9902 21.2041L96.8955 21.9121C100.053 22.6771 102.169 23.4176 103.243 24.1338C104.952 25.2568 105.807 27.0228 105.807 29.4316C105.807 31.7591 104.92 33.7692 103.146 35.4619C101.388 37.1546 98.7021 38.001 95.0889 38.001C91.1989 38.001 88.4401 37.1221 86.8125 35.3643C85.2012 33.5902 84.3385 31.401 84.2246 28.7969H88.4482ZM121.212 34.168C124.125 34.168 126.119 33.0693 127.193 30.8721C128.284 28.6585 128.829 26.2008 128.829 23.499C128.829 21.0576 128.438 19.0719 127.657 17.542C126.42 15.1331 124.288 13.9287 121.261 13.9287C118.575 13.9287 116.622 14.9541 115.401 17.0049C114.181 19.0557 113.57 21.5296 113.57 24.4268C113.57 27.21 114.181 29.5293 115.401 31.3848C116.622 33.2402 118.559 34.168 121.212 34.168ZM121.383 10.0957C124.752 10.0957 127.6 11.2188 129.928 13.4648C132.255 15.7109 133.419 19.015 133.419 23.377C133.419 27.5924 132.394 31.0755 130.343 33.8262C128.292 36.5768 125.11 37.9521 120.797 37.9521C117.2 37.9521 114.343 36.7396 112.228 34.3145C110.112 31.873 109.054 28.6016 109.054 24.5C109.054 20.1055 110.169 16.6061 112.398 14.002C114.628 11.3978 117.623 10.0957 121.383 10.0957ZM162.35 37.9521C158.215 37.9521 155.213 36.821 153.341 34.5586C151.485 32.2799 150.558 29.513 150.558 26.2578H155.147C155.343 28.5202 155.766 30.1641 156.417 31.1895C157.556 33.0286 159.615 33.9482 162.594 33.9482C164.905 33.9482 166.76 33.3298 168.16 32.0928C169.56 30.8558 170.26 29.2607 170.26 27.3076C170.26 24.8988 169.519 23.2142 168.038 22.2539C166.573 21.2936 164.531 20.8135 161.91 20.8135C161.617 20.8135 161.316 20.8216 161.007 20.8379C160.714 20.8379 160.413 20.846 160.104 20.8623V16.9805C160.559 17.0293 160.942 17.0618 161.251 17.0781C161.56 17.0944 161.894 17.1025 162.252 17.1025C163.896 17.1025 165.247 16.8421 166.305 16.3213C168.16 15.4098 169.088 13.7822 169.088 11.4385C169.088 9.69694 168.469 8.35417 167.232 7.41016C165.995 6.46615 164.555 5.99414 162.911 5.99414C159.981 5.99414 157.955 6.9707 156.832 8.92383C156.214 9.99805 155.864 11.528 155.782 13.5137H151.437C151.437 10.9095 151.957 8.69596 152.999 6.87305C154.789 3.61784 157.939 1.99023 162.447 1.99023C166.012 1.99023 168.771 2.78776 170.724 4.38281C172.677 5.96159 173.653 8.25651 173.653 11.2676C173.653 13.416 173.076 15.1576 171.92 16.4922C171.204 17.3223 170.276 17.9733 169.137 18.4453C170.976 18.9499 172.408 19.9264 173.434 21.375C174.475 22.8073 174.996 24.5651 174.996 26.6484C174.996 29.985 173.897 32.7031 171.7 34.8027C169.503 36.9023 166.386 37.9521 162.35 37.9521ZM193.185 20.8135H205.44V25.3301H193.185V20.8135ZM226.583 1.13574H231.49V37H226.583V1.13574ZM238.814 10.8525H242.989V14.5635C244.226 13.0335 245.536 11.9349 246.92 11.2676C248.303 10.6003 249.841 10.2666 251.534 10.2666C255.245 10.2666 257.752 11.5605 259.054 14.1484C259.77 15.5645 260.128 17.5908 260.128 20.2275V37H255.66V20.5205C255.66 18.9255 255.424 17.6396 254.952 16.6631C254.171 15.0355 252.755 14.2217 250.704 14.2217C249.662 14.2217 248.808 14.3275 248.141 14.5391C246.936 14.8971 245.878 15.6133 244.967 16.6875C244.234 17.5501 243.754 18.4453 243.526 19.373C243.315 20.2845 243.209 21.5947 243.209 23.3037V37H238.814V10.8525ZM267.745 6.87305C267.81 5.05013 268.128 3.71549 268.697 2.86914C269.723 1.37174 271.7 0.623047 274.63 0.623047C274.907 0.623047 275.191 0.631185 275.484 0.647461C275.777 0.663737 276.111 0.688151 276.485 0.720703V4.72461C276.03 4.69206 275.696 4.67578 275.484 4.67578C275.289 4.65951 275.102 4.65137 274.923 4.65137C273.588 4.65137 272.791 5.0013 272.53 5.70117C272.27 6.38477 272.14 8.14258 272.14 10.9746H276.485V14.4414H272.091V37H267.745V14.4414H264.107V10.9746H267.745V6.87305ZM290.938 34.168C293.852 34.168 295.846 33.0693 296.92 30.8721C298.01 28.6585 298.556 26.2008 298.556 23.499C298.556 21.0576 298.165 19.0719 297.384 17.542C296.147 15.1331 294.015 13.9287 290.987 13.9287C288.302 13.9287 286.349 14.9541 285.128 17.0049C283.907 19.0557 283.297 21.5296 283.297 24.4268C283.297 27.21 283.907 29.5293 285.128 31.3848C286.349 33.2402 288.285 34.168 290.938 34.168ZM291.109 10.0957C294.479 10.0957 297.327 11.2188 299.654 13.4648C301.982 15.7109 303.146 19.015 303.146 23.377C303.146 27.5924 302.12 31.0755 300.069 33.8262C298.019 36.5768 294.837 37.9521 290.523 37.9521C286.926 37.9521 284.07 36.7396 281.954 34.3145C279.838 31.873 278.78 28.6016 278.78 24.5C278.78 20.1055 279.895 16.6061 282.125 14.002C284.355 11.3978 287.35 10.0957 291.109 10.0957ZM308.517 10.8525H312.691V15.3691C313.033 14.4902 313.871 13.4242 315.206 12.1709C316.541 10.9014 318.079 10.2666 319.82 10.2666C319.902 10.2666 320.04 10.2747 320.235 10.291C320.431 10.3073 320.764 10.3398 321.236 10.3887V15.0273C320.976 14.9785 320.732 14.946 320.504 14.9297C320.292 14.9134 320.056 14.9053 319.796 14.9053C317.582 14.9053 315.882 15.6214 314.693 17.0537C313.505 18.4697 312.911 20.1055 312.911 21.9609V37H308.517V10.8525ZM325.045 10.8525H329.391V14.5635C330.432 13.2777 331.376 12.3418 332.223 11.7559C333.671 10.763 335.315 10.2666 337.154 10.2666C339.238 10.2666 340.914 10.7793 342.184 11.8047C342.9 12.3906 343.551 13.2533 344.137 14.3926C345.113 12.9928 346.261 11.9593 347.579 11.292C348.897 10.6084 350.379 10.2666 352.022 10.2666C355.538 10.2666 357.931 11.5361 359.2 14.0752C359.884 15.4424 360.226 17.2816 360.226 19.5928V37H355.66V18.8359C355.66 17.0944 355.221 15.8981 354.342 15.2471C353.479 14.596 352.421 14.2705 351.168 14.2705C349.443 14.2705 347.953 14.8483 346.7 16.0039C345.463 17.1595 344.845 19.0882 344.845 21.79V37H340.377V19.9346C340.377 18.1605 340.165 16.8665 339.742 16.0527C339.075 14.832 337.83 14.2217 336.007 14.2217C334.347 14.2217 332.833 14.8646 331.466 16.1504C330.115 17.4362 329.439 19.7637 329.439 23.1328V37H325.045V10.8525ZM370.064 30.042C370.064 31.3115 370.528 32.3125 371.456 33.0449C372.384 33.7773 373.482 34.1436 374.752 34.1436C376.298 34.1436 377.796 33.7855 379.244 33.0693C381.686 31.8812 382.906 29.9362 382.906 27.2344V23.6943C382.369 24.0361 381.677 24.321 380.831 24.5488C379.985 24.7767 379.155 24.9395 378.341 25.0371L375.68 25.3789C374.085 25.5905 372.888 25.9242 372.091 26.3799C370.74 27.1449 370.064 28.3656 370.064 30.042ZM380.709 21.1553C381.718 21.0251 382.394 20.6019 382.735 19.8857C382.931 19.4951 383.028 18.9336 383.028 18.2012C383.028 16.7038 382.491 15.6214 381.417 14.9541C380.359 14.2705 378.837 13.9287 376.852 13.9287C374.557 13.9287 372.929 14.5472 371.969 15.7842C371.432 16.4678 371.082 17.485 370.919 18.8359H366.817C366.899 15.6133 367.94 13.3753 369.942 12.1221C371.961 10.8525 374.296 10.2178 376.949 10.2178C380.025 10.2178 382.524 10.8037 384.444 11.9756C386.349 13.1475 387.301 14.9704 387.301 17.4443V32.5078C387.301 32.9635 387.39 33.3298 387.569 33.6064C387.765 33.8831 388.163 34.0215 388.766 34.0215C388.961 34.0215 389.181 34.0133 389.425 33.9971C389.669 33.9645 389.929 33.9238 390.206 33.875V37.1221C389.522 37.3174 389.002 37.4395 388.644 37.4883C388.285 37.5371 387.797 37.5615 387.179 37.5615C385.665 37.5615 384.566 37.0244 383.883 35.9502C383.525 35.3805 383.272 34.5749 383.126 33.5332C382.231 34.7051 380.945 35.7223 379.269 36.585C377.592 37.4476 375.745 37.8789 373.727 37.8789C371.301 37.8789 369.316 37.1465 367.77 35.6816C366.24 34.2005 365.475 32.3532 365.475 30.1396C365.475 27.7145 366.231 25.8346 367.745 24.5C369.259 23.1654 371.244 22.3434 373.702 22.0342L380.709 21.1553ZM404.61 10.0957C407.556 10.0957 409.949 10.8118 411.788 12.2441C413.644 13.6764 414.758 16.1423 415.133 19.6416H410.86C410.6 18.0303 410.006 16.6956 409.078 15.6377C408.15 14.5635 406.661 14.0264 404.61 14.0264C401.811 14.0264 399.809 15.3936 398.604 18.1279C397.823 19.902 397.433 22.0911 397.433 24.6953C397.433 27.3158 397.986 29.5212 399.093 31.3115C400.2 33.1019 401.941 33.9971 404.317 33.9971C406.14 33.9971 407.581 33.4437 408.639 32.3369C409.713 31.2139 410.453 29.6839 410.86 27.7471H415.133C414.645 31.2139 413.424 33.7529 411.471 35.3643C409.518 36.9593 407.247 37.7568 404.659 37.7568L402.926 40.125C403.398 39.9785 404.008 39.9053 404.757 39.9053C405.896 39.9053 406.832 40.2308 407.564 40.8818C408.313 41.5492 408.688 42.4932 408.688 43.7139C408.688 44.9508 408.199 46.0169 407.223 46.9121C406.246 47.8073 404.749 48.2549 402.73 48.2549C401.868 48.2549 400.973 48.1328 400.045 47.8887C399.524 47.7585 398.824 47.5306 397.945 47.2051L398.8 45.2275C399.418 45.4554 399.898 45.6182 400.24 45.7158C400.908 45.8949 401.51 45.9844 402.047 45.9844C402.649 45.9844 403.17 45.8949 403.609 45.7158C404.456 45.374 404.879 44.7555 404.879 43.8604C404.879 43.3395 404.659 42.8838 404.22 42.4932C403.797 42.1188 403.227 41.9316 402.511 41.9316C402.153 41.9316 401.827 41.9642 401.534 42.0293C401.257 42.0944 400.924 42.2002 400.533 42.3467L399.679 41.3457L402.315 37.7568C400.004 37.7568 397.986 36.8291 396.261 34.9736C393.917 32.3206 392.745 28.8783 392.745 24.6465C392.745 20.0566 393.86 16.484 396.09 13.9287C398.32 11.3734 401.16 10.0957 404.61 10.0957ZM429.903 34.168C432.817 34.168 434.811 33.0693 435.885 30.8721C436.975 28.6585 437.521 26.2008 437.521 23.499C437.521 21.0576 437.13 19.0719 436.349 17.542C435.112 15.1331 432.979 13.9287 429.952 13.9287C427.267 13.9287 425.313 14.9541 424.093 17.0049C422.872 19.0557 422.262 21.5296 422.262 24.4268C422.262 27.21 422.872 29.5293 424.093 31.3848C425.313 33.2402 427.25 34.168 429.903 34.168ZM430.074 10.0957C433.443 10.0957 436.292 11.2188 438.619 13.4648C440.947 15.7109 442.11 19.015 442.11 23.377C442.11 27.5924 441.085 31.0755 439.034 33.8262C436.983 36.5768 433.801 37.9521 429.488 37.9521C425.891 37.9521 423.035 36.7396 420.919 34.3145C418.803 31.873 417.745 28.6016 417.745 24.5C417.745 20.1055 418.86 16.6061 421.09 14.002C423.32 11.3978 426.314 10.0957 430.074 10.0957ZM431.539 2.74707C431.995 2.94238 432.41 3.09701 432.784 3.21094C433.159 3.32487 433.541 3.38184 433.932 3.38184C434.843 3.38184 435.494 3.09701 435.885 2.52734C436.096 2.2181 436.243 1.75423 436.324 1.13574H438.888C438.546 3.2028 437.887 4.62695 436.91 5.4082C435.95 6.18945 434.892 6.58008 433.736 6.58008C433.378 6.58008 432.923 6.51497 432.369 6.38477C431.816 6.25456 431.327 6.10807 430.904 5.94531L429.61 5.48145C428.845 5.20475 428.219 5.0013 427.73 4.87109C427.258 4.72461 426.795 4.65137 426.339 4.65137C425.769 4.65137 425.297 4.83854 424.923 5.21289C424.565 5.58724 424.321 6.1569 424.19 6.92188H421.798C422.009 5.63607 422.359 4.58626 422.848 3.77246C423.775 2.27507 425.151 1.52637 426.974 1.52637C427.527 1.52637 428.137 1.60775 428.805 1.77051C429.488 1.93327 430.4 2.25879 431.539 2.74707ZM458.248 10.2666C460.104 10.2666 461.902 10.7061 463.644 11.585C465.385 12.4476 466.712 13.5706 467.623 14.9541C468.502 16.2725 469.088 17.8105 469.381 19.5684C469.641 20.7728 469.771 22.6934 469.771 25.3301H450.606C450.688 27.9831 451.314 30.1152 452.486 31.7266C453.658 33.3216 455.473 34.1191 457.931 34.1191C460.226 34.1191 462.057 33.3623 463.424 31.8486C464.205 30.9697 464.758 29.9525 465.084 28.7969H469.405C469.291 29.7572 468.909 30.8314 468.258 32.0195C467.623 33.1914 466.907 34.1517 466.109 34.9004C464.775 36.2025 463.123 37.0814 461.153 37.5371C460.095 37.7975 458.899 37.9277 457.564 37.9277C454.309 37.9277 451.55 36.7477 449.288 34.3877C447.026 32.0114 445.895 28.6911 445.895 24.4268C445.895 20.2275 447.034 16.8177 449.312 14.1973C451.591 11.5768 454.57 10.2666 458.248 10.2666ZM465.255 21.8389C465.076 19.9346 464.661 18.4128 464.01 17.2734C462.805 15.1576 460.795 14.0996 457.979 14.0996C455.961 14.0996 454.269 14.832 452.901 16.2969C451.534 17.7454 450.81 19.5928 450.729 21.8389H465.255ZM477.804 28.7969C477.934 30.2617 478.3 31.3848 478.902 32.166C480.009 33.582 481.93 34.29 484.664 34.29C486.292 34.29 487.724 33.9401 488.961 33.2402C490.198 32.5241 490.816 31.4255 490.816 29.9443C490.816 28.8213 490.32 27.9668 489.327 27.3809C488.692 27.0228 487.439 26.6077 485.567 26.1357L482.076 25.2568C479.846 24.7035 478.202 24.085 477.145 23.4014C475.257 22.2132 474.312 20.5693 474.312 18.4697C474.312 15.9958 475.2 13.9938 476.974 12.4639C478.764 10.9339 481.165 10.1689 484.176 10.1689C488.115 10.1689 490.955 11.3245 492.696 13.6357C493.787 15.1006 494.316 16.6794 494.283 18.3721H490.133C490.051 17.3792 489.701 16.4759 489.083 15.6621C488.074 14.5065 486.324 13.9287 483.834 13.9287C482.174 13.9287 480.912 14.2461 480.05 14.8809C479.203 15.5156 478.78 16.3538 478.78 17.3955C478.78 18.5348 479.342 19.4463 480.465 20.1299C481.116 20.5368 482.076 20.8949 483.346 21.2041L486.251 21.9121C489.409 22.6771 491.524 23.4176 492.599 24.1338C494.308 25.2568 495.162 27.0228 495.162 29.4316C495.162 31.7591 494.275 33.7692 492.501 35.4619C490.743 37.1546 488.058 38.001 484.444 38.001C480.554 38.001 477.796 37.1221 476.168 35.3643C474.557 33.5902 473.694 31.401 473.58 28.7969H477.804ZM530.367 22.3027L524.923 6.45801L519.137 22.3027H530.367ZM522.384 1.13574H527.877L540.89 37H535.567L531.93 26.2578H517.745L513.863 37H508.883L522.384 1.13574ZM547.506 24.2314C547.506 27.0309 548.1 29.3747 549.288 31.2627C550.476 33.1507 552.381 34.0947 555.001 34.0947C557.035 34.0947 558.704 33.224 560.006 31.4824C561.324 29.7246 561.983 27.21 561.983 23.9385C561.983 20.6344 561.308 18.193 559.957 16.6143C558.606 15.0192 556.938 14.2217 554.952 14.2217C552.739 14.2217 550.94 15.068 549.557 16.7607C548.189 18.4535 547.506 20.9437 547.506 24.2314ZM554.122 10.3887C556.124 10.3887 557.8 10.8118 559.151 11.6582C559.933 12.1465 560.82 13.001 561.812 14.2217V1.01367H566.036V37H562.081V33.3623C561.056 34.9736 559.843 36.1374 558.443 36.8535C557.044 37.5697 555.44 37.9277 553.634 37.9277C550.72 37.9277 548.198 36.707 546.065 34.2656C543.933 31.8079 542.867 28.5446 542.867 24.4756C542.867 20.667 543.836 17.3711 545.772 14.5879C547.726 11.7884 550.509 10.3887 554.122 10.3887ZM572.555 10.9746H577.022V37H572.555V10.9746ZM572.555 1.13574H577.022V6.11621H572.555V1.13574ZM593.771 10.0957C596.716 10.0957 599.109 10.8118 600.948 12.2441C602.804 13.6764 603.919 16.1423 604.293 19.6416H600.021C599.76 18.0303 599.166 16.6956 598.238 15.6377C597.311 14.5635 595.821 14.0264 593.771 14.0264C590.971 14.0264 588.969 15.3936 587.765 18.1279C586.983 19.902 586.593 22.0911 586.593 24.6953C586.593 27.3158 587.146 29.5212 588.253 31.3115C589.36 33.1019 591.101 33.9971 593.478 33.9971C595.3 33.9971 596.741 33.4437 597.799 32.3369C598.873 31.2139 599.614 29.6839 600.021 27.7471H604.293C603.805 31.2139 602.584 33.7529 600.631 35.3643C598.678 36.9593 596.179 37.7568 593.136 37.7568C589.718 37.7568 586.992 36.5117 584.957 34.0215C582.923 31.515 581.905 28.39 581.905 24.6465C581.905 20.0566 583.02 16.484 585.25 13.9287C587.48 11.3734 590.32 10.0957 593.771 10.0957ZM608.688 10.9746H613.155V37H608.688V10.9746ZM608.688 1.13574H613.155V6.11621H608.688V1.13574ZM630.196 34.168C633.11 34.168 635.104 33.0693 636.178 30.8721C637.268 28.6585 637.813 26.2008 637.813 23.499C637.813 21.0576 637.423 19.0719 636.642 17.542C635.405 15.1331 633.272 13.9287 630.245 13.9287C627.56 13.9287 625.606 14.9541 624.386 17.0049C623.165 19.0557 622.555 21.5296 622.555 24.4268C622.555 27.21 623.165 29.5293 624.386 31.3848C625.606 33.2402 627.543 34.168 630.196 34.168ZM630.367 10.0957C633.736 10.0957 636.585 11.2188 638.912 13.4648C641.24 15.7109 642.403 19.015 642.403 23.377C642.403 27.5924 641.378 31.0755 639.327 33.8262C637.276 36.5768 634.094 37.9521 629.781 37.9521C626.184 37.9521 623.328 36.7396 621.212 34.3145C619.096 31.873 618.038 28.6016 618.038 24.5C618.038 20.1055 619.153 16.6061 621.383 14.002C623.613 11.3978 626.607 10.0957 630.367 10.0957ZM647.652 10.8525H651.827V14.5635C653.064 13.0335 654.374 11.9349 655.758 11.2676C657.141 10.6003 658.679 10.2666 660.372 10.2666C664.083 10.2666 666.59 11.5605 667.892 14.1484C668.608 15.5645 668.966 17.5908 668.966 20.2275V37H664.498V20.5205C664.498 18.9255 664.262 17.6396 663.79 16.6631C663.009 15.0355 661.593 14.2217 659.542 14.2217C658.5 14.2217 657.646 14.3275 656.979 14.5391C655.774 14.8971 654.716 15.6133 653.805 16.6875C653.072 17.5501 652.592 18.4453 652.364 19.373C652.153 20.2845 652.047 21.5947 652.047 23.3037V37H647.652V10.8525ZM678.854 30.042C678.854 31.3115 679.317 32.3125 680.245 33.0449C681.173 33.7773 682.271 34.1436 683.541 34.1436C685.087 34.1436 686.585 33.7855 688.033 33.0693C690.475 31.8812 691.695 29.9362 691.695 27.2344V23.6943C691.158 24.0361 690.466 24.321 689.62 24.5488C688.774 24.7767 687.944 24.9395 687.13 25.0371L684.469 25.3789C682.874 25.5905 681.677 25.9242 680.88 26.3799C679.529 27.1449 678.854 28.3656 678.854 30.042ZM689.498 21.1553C690.507 21.0251 691.183 20.6019 691.524 19.8857C691.72 19.4951 691.817 18.9336 691.817 18.2012C691.817 16.7038 691.28 15.6214 690.206 14.9541C689.148 14.2705 687.626 13.9287 685.641 13.9287C683.346 13.9287 681.718 14.5472 680.758 15.7842C680.221 16.4678 679.871 17.485 679.708 18.8359H675.606C675.688 15.6133 676.729 13.3753 678.731 12.1221C680.75 10.8525 683.085 10.2178 685.738 10.2178C688.814 10.2178 691.313 10.8037 693.233 11.9756C695.138 13.1475 696.09 14.9704 696.09 17.4443V32.5078C696.09 32.9635 696.179 33.3298 696.358 33.6064C696.554 33.8831 696.952 34.0215 697.555 34.0215C697.75 34.0215 697.97 34.0133 698.214 33.9971C698.458 33.9645 698.718 33.9238 698.995 33.875V37.1221C698.312 37.3174 697.791 37.4395 697.433 37.4883C697.075 37.5371 696.586 37.5615 695.968 37.5615C694.454 37.5615 693.355 37.0244 692.672 35.9502C692.314 35.3805 692.062 34.5749 691.915 33.5332C691.02 34.7051 689.734 35.7223 688.058 36.585C686.381 37.4476 684.534 37.8789 682.516 37.8789C680.09 37.8789 678.105 37.1465 676.559 35.6816C675.029 34.2005 674.264 32.3532 674.264 30.1396C674.264 27.7145 675.021 25.8346 676.534 24.5C678.048 23.1654 680.034 22.3434 682.491 22.0342L689.498 21.1553ZM703.316 10.9746H707.784V37H703.316V10.9746ZM703.316 1.13574H707.784V6.11621H703.316V1.13574ZM717.062 28.7969C717.192 30.2617 717.558 31.3848 718.16 32.166C719.267 33.582 721.188 34.29 723.922 34.29C725.549 34.29 726.982 33.9401 728.219 33.2402C729.456 32.5241 730.074 31.4255 730.074 29.9443C730.074 28.8213 729.578 27.9668 728.585 27.3809C727.95 27.0228 726.697 26.6077 724.825 26.1357L721.334 25.2568C719.104 24.7035 717.46 24.085 716.402 23.4014C714.514 22.2132 713.57 20.5693 713.57 18.4697C713.57 15.9958 714.457 13.9938 716.231 12.4639C718.022 10.9339 720.423 10.1689 723.434 10.1689C727.372 10.1689 730.213 11.3245 731.954 13.6357C733.045 15.1006 733.574 16.6794 733.541 18.3721H729.391C729.309 17.3792 728.959 16.4759 728.341 15.6621C727.332 14.5065 725.582 13.9287 723.092 13.9287C721.432 13.9287 720.17 14.2461 719.308 14.8809C718.461 15.5156 718.038 16.3538 718.038 17.3955C718.038 18.5348 718.6 19.4463 719.723 20.1299C720.374 20.5368 721.334 20.8949 722.604 21.2041L725.509 21.9121C728.666 22.6771 730.782 23.4176 731.856 24.1338C733.565 25.2568 734.42 27.0228 734.42 29.4316C734.42 31.7591 733.533 33.7692 731.759 35.4619C730.001 37.1546 727.315 38.001 723.702 38.001C719.812 38.001 717.053 37.1221 715.426 35.3643C713.814 33.5902 712.952 31.401 712.838 28.7969H717.062ZM764.254 10.2666C766.109 10.2666 767.908 10.7061 769.649 11.585C771.391 12.4476 772.717 13.5706 773.629 14.9541C774.508 16.2725 775.094 17.8105 775.387 19.5684C775.647 20.7728 775.777 22.6934 775.777 25.3301H756.612C756.694 27.9831 757.32 30.1152 758.492 31.7266C759.664 33.3216 761.479 34.1191 763.937 34.1191C766.231 34.1191 768.062 33.3623 769.43 31.8486C770.211 30.9697 770.764 29.9525 771.09 28.7969H775.411C775.297 29.7572 774.915 30.8314 774.264 32.0195C773.629 33.1914 772.913 34.1517 772.115 34.9004C770.781 36.2025 769.129 37.0814 767.159 37.5371C766.101 37.7975 764.905 37.9277 763.57 37.9277C760.315 37.9277 757.556 36.7477 755.294 34.3877C753.032 32.0114 751.9 28.6911 751.9 24.4268C751.9 20.2275 753.04 16.8177 755.318 14.1973C757.597 11.5768 760.576 10.2666 764.254 10.2666ZM771.261 21.8389C771.082 19.9346 770.667 18.4128 770.016 17.2734C768.811 15.1576 766.801 14.0996 763.985 14.0996C761.967 14.0996 760.274 14.832 758.907 16.2969C757.54 17.7454 756.816 19.5928 756.734 21.8389H771.261ZM798.873 25.4277C798.987 27.4622 799.467 29.1143 800.313 30.3838C801.925 32.7601 804.765 33.9482 808.834 33.9482C810.657 33.9482 812.317 33.6878 813.814 33.167C816.712 32.1579 818.16 30.3512 818.16 27.7471C818.16 25.7939 817.55 24.4023 816.329 23.5723C815.092 22.7585 813.155 22.0505 810.519 21.4482L805.66 20.3496C802.486 19.6335 800.24 18.8441 798.922 17.9814C796.643 16.484 795.504 14.2461 795.504 11.2676C795.504 8.04492 796.619 5.40007 798.849 3.33301C801.078 1.26595 804.236 0.232422 808.321 0.232422C812.081 0.232422 815.271 1.14388 817.892 2.9668C820.528 4.77344 821.847 7.67057 821.847 11.6582H817.281C817.037 9.73763 816.516 8.26465 815.719 7.23926C814.238 5.36751 811.723 4.43164 808.175 4.43164C805.31 4.43164 803.251 5.03385 801.998 6.23828C800.745 7.44271 800.118 8.84245 800.118 10.4375C800.118 12.1953 800.851 13.4811 802.315 14.2949C803.276 14.8158 805.449 15.4668 808.834 16.248L813.863 17.3955C816.288 17.9489 818.16 18.7057 819.479 19.666C821.757 21.3424 822.896 23.7757 822.896 26.9658C822.896 30.9372 821.448 33.7773 818.551 35.4863C815.67 37.1953 812.317 38.0498 808.492 38.0498C804.033 38.0498 800.541 36.9105 798.019 34.6318C795.496 32.3695 794.259 29.3014 794.308 25.4277H798.873ZM839.352 10.2666C841.207 10.2666 843.006 10.7061 844.747 11.585C846.489 12.4476 847.815 13.5706 848.727 14.9541C849.605 16.2725 850.191 17.8105 850.484 19.5684C850.745 20.7728 850.875 22.6934 850.875 25.3301H831.71C831.791 27.9831 832.418 30.1152 833.59 31.7266C834.762 33.3216 836.576 34.1191 839.034 34.1191C841.329 34.1191 843.16 33.3623 844.527 31.8486C845.309 30.9697 845.862 29.9525 846.188 28.7969H850.509C850.395 29.7572 850.012 30.8314 849.361 32.0195C848.727 33.1914 848.01 34.1517 847.213 34.9004C845.878 36.2025 844.226 37.0814 842.257 37.5371C841.199 37.7975 840.003 37.9277 838.668 37.9277C835.413 37.9277 832.654 36.7477 830.392 34.3877C828.129 32.0114 826.998 28.6911 826.998 24.4268C826.998 20.2275 828.137 16.8177 830.416 14.1973C832.695 11.5768 835.673 10.2666 839.352 10.2666ZM846.358 21.8389C846.179 19.9346 845.764 18.4128 845.113 17.2734C843.909 15.1576 841.899 14.0996 839.083 14.0996C837.065 14.0996 835.372 14.832 834.005 16.2969C832.638 17.7454 831.913 19.5928 831.832 21.8389H846.358ZM856.295 10.8525H860.47V14.5635C861.707 13.0335 863.017 11.9349 864.4 11.2676C865.784 10.6003 867.322 10.2666 869.015 10.2666C872.726 10.2666 875.232 11.5605 876.534 14.1484C877.25 15.5645 877.608 17.5908 877.608 20.2275V37H873.141V20.5205C873.141 18.9255 872.905 17.6396 872.433 16.6631C871.651 15.0355 870.235 14.2217 868.185 14.2217C867.143 14.2217 866.288 14.3275 865.621 14.5391C864.417 14.8971 863.359 15.6133 862.447 16.6875C861.715 17.5501 861.235 18.4453 861.007 19.373C860.795 20.2845 860.689 21.5947 860.689 23.3037V37H856.295V10.8525ZM884.127 1.01367H888.521V14.3926C889.563 13.0742 890.499 12.1465 891.329 11.6094C892.745 10.6816 894.511 10.2178 896.627 10.2178C900.419 10.2178 902.991 11.5443 904.342 14.1973C905.074 15.6458 905.44 17.6559 905.44 20.2275V37H900.924V20.5205C900.924 18.5999 900.68 17.1921 900.191 16.2969C899.394 14.8646 897.896 14.1484 895.699 14.1484C893.876 14.1484 892.224 14.7751 890.743 16.0283C889.262 17.2816 888.521 19.6497 888.521 23.1328V37H884.127V1.01367ZM915.328 30.042C915.328 31.3115 915.792 32.3125 916.72 33.0449C917.647 33.7773 918.746 34.1436 920.016 34.1436C921.562 34.1436 923.059 33.7855 924.508 33.0693C926.949 31.8812 928.17 29.9362 928.17 27.2344V23.6943C927.633 24.0361 926.941 24.321 926.095 24.5488C925.248 24.7767 924.418 24.9395 923.604 25.0371L920.943 25.3789C919.348 25.5905 918.152 25.9242 917.354 26.3799C916.004 27.1449 915.328 28.3656 915.328 30.042ZM925.973 21.1553C926.982 21.0251 927.657 20.6019 927.999 19.8857C928.194 19.4951 928.292 18.9336 928.292 18.2012C928.292 16.7038 927.755 15.6214 926.681 14.9541C925.623 14.2705 924.101 13.9287 922.115 13.9287C919.82 13.9287 918.193 14.5472 917.232 15.7842C916.695 16.4678 916.345 17.485 916.183 18.8359H912.081C912.162 15.6133 913.204 13.3753 915.206 12.1221C917.224 10.8525 919.56 10.2178 922.213 10.2178C925.289 10.2178 927.787 10.8037 929.708 11.9756C931.612 13.1475 932.564 14.9704 932.564 17.4443V32.5078C932.564 32.9635 932.654 33.3298 932.833 33.6064C933.028 33.8831 933.427 34.0215 934.029 34.0215C934.225 34.0215 934.444 34.0133 934.688 33.9971C934.933 33.9645 935.193 33.9238 935.47 33.875V37.1221C934.786 37.3174 934.265 37.4395 933.907 37.4883C933.549 37.5371 933.061 37.5615 932.442 37.5615C930.929 37.5615 929.83 37.0244 929.146 35.9502C928.788 35.3805 928.536 34.5749 928.39 33.5332C927.494 34.7051 926.209 35.7223 924.532 36.585C922.856 37.4476 921.008 37.8789 918.99 37.8789C916.565 37.8789 914.579 37.1465 913.033 35.6816C911.503 34.2005 910.738 32.3532 910.738 30.1396C910.738 27.7145 911.495 25.8346 913.009 24.5C914.522 23.1654 916.508 22.3434 918.966 22.0342L925.973 21.1553Z" fill="#203A40"/>
<circle cx="415.862" cy="148.862" r="18.8623" stroke="#F2695C" stroke-width="2"/>
<circle cx="467" cy="148.862" r="18.8623" stroke="#F2695C" stroke-width="2"/>
<circle cx="518.138" cy="148.862" r="18.8623" fill="#F2695C" stroke="#F2695C" stroke-width="2"/>
</svg>
