 <svg width="700" height="150" viewBox="0 0 700 150" fill="none" xmlns="http://www.w3.org/2000/svg">
                        <path d="M9.47266 1.13574H25.6104C28.8005 1.13574 31.3721 2.03906 33.3252 3.8457C35.2783 5.63607 36.2549 8.15885 36.2549 11.4141C36.2549 14.2135 35.3841 16.6549 33.6426 18.7383C31.901 20.8053 29.2236 21.8389 25.6104 21.8389H14.3311V37H9.47266V1.13574ZM31.3477 11.4385C31.3477 8.80176 30.3711 7.01139 28.418 6.06738C27.3438 5.56283 25.8708 5.31055 23.999 5.31055H14.3311V17.7373H23.999C26.18 17.7373 27.946 17.2734 29.2969 16.3457C30.6641 15.418 31.3477 13.7822 31.3477 11.4385ZM45.1416 30.042C45.1416 31.3115 45.6055 32.3125 46.5332 33.0449C47.4609 33.7773 48.5596 34.1436 49.8291 34.1436C51.3753 34.1436 52.8727 33.7855 54.3213 33.0693C56.7627 31.8812 57.9834 29.9362 57.9834 27.2344V23.6943C57.4463 24.0361 56.7546 24.321 55.9082 24.5488C55.0618 24.7767 54.2318 24.9395 53.418 25.0371L50.7568 25.3789C49.1618 25.5905 47.9655 25.9242 47.168 26.3799C45.8171 27.1449 45.1416 28.3656 45.1416 30.042ZM55.7861 21.1553C56.7952 21.0251 57.4707 20.6019 57.8125 19.8857C58.0078 19.4951 58.1055 18.9336 58.1055 18.2012C58.1055 16.7038 57.5684 15.6214 56.4941 14.9541C55.4362 14.2705 53.9144 13.9287 51.9287 13.9287C49.6338 13.9287 48.0062 14.5472 47.0459 15.7842C46.5088 16.4678 46.1589 17.485 45.9961 18.8359H41.8945C41.9759 15.6133 43.0176 13.3753 45.0195 12.1221C47.0378 10.8525 49.3734 10.2178 52.0264 10.2178C55.1025 10.2178 57.6009 10.8037 59.5215 11.9756C61.4258 13.1475 62.3779 14.9704 62.3779 17.4443V32.5078C62.3779 32.9635 62.4674 33.3298 62.6465 33.6064C62.8418 33.8831 63.2406 34.0215 63.8428 34.0215C64.0381 34.0215 64.2578 34.0133 64.502 33.9971C64.7461 33.9645 65.0065 33.9238 65.2832 33.875V37.1221C64.5996 37.3174 64.0788 37.4395 63.7207 37.4883C63.3626 37.5371 62.8743 37.5615 62.2559 37.5615C60.7422 37.5615 59.6436 37.0244 58.96 35.9502C58.6019 35.3805 58.3496 34.5749 58.2031 33.5332C57.3079 34.7051 56.0221 35.7223 54.3457 36.585C52.6693 37.4476 50.8219 37.8789 48.8037 37.8789C46.3786 37.8789 44.3929 37.1465 42.8467 35.6816C41.3167 34.2005 40.5518 32.3532 40.5518 30.1396C40.5518 27.7145 41.3086 25.8346 42.8223 24.5C44.3359 23.1654 46.3216 22.3434 48.7793 22.0342L55.7861 21.1553ZM72.2168 28.7969C72.347 30.2617 72.7132 31.3848 73.3154 32.166C74.4222 33.582 76.3428 34.29 79.0771 34.29C80.7048 34.29 82.137 33.9401 83.374 33.2402C84.611 32.5241 85.2295 31.4255 85.2295 29.9443C85.2295 28.8213 84.7331 27.9668 83.7402 27.3809C83.1055 27.0228 81.8522 26.6077 79.9805 26.1357L76.4893 25.2568C74.2594 24.7035 72.6156 24.085 71.5576 23.4014C69.6696 22.2132 68.7256 20.5693 68.7256 18.4697C68.7256 15.9958 69.6126 13.9938 71.3867 12.4639C73.1771 10.9339 75.5778 10.1689 78.5889 10.1689C82.5277 10.1689 85.3678 11.3245 87.1094 13.6357C88.1999 15.1006 88.7288 16.6794 88.6963 18.3721H84.5459C84.4645 17.3792 84.1146 16.4759 83.4961 15.6621C82.487 14.5065 80.7373 13.9287 78.2471 13.9287C76.5869 13.9287 75.3255 14.2461 74.4629 14.8809C73.6165 15.5156 73.1934 16.3538 73.1934 17.3955C73.1934 18.5348 73.7549 19.4463 74.8779 20.1299C75.529 20.5368 76.4893 20.8949 77.7588 21.2041L80.6641 21.9121C83.8216 22.6771 85.9375 23.4176 87.0117 24.1338C88.7207 25.2568 89.5752 27.0228 89.5752 29.4316C89.5752 31.7591 88.6882 33.7692 86.9141 35.4619C85.1562 37.1546 82.4707 38.001 78.8574 38.001C74.9674 38.001 72.2087 37.1221 70.5811 35.3643C68.9697 33.5902 68.1071 31.401 67.9932 28.7969H72.2168ZM97.2168 28.7969C97.347 30.2617 97.7132 31.3848 98.3154 32.166C99.4222 33.582 101.343 34.29 104.077 34.29C105.705 34.29 107.137 33.9401 108.374 33.2402C109.611 32.5241 110.229 31.4255 110.229 29.9443C110.229 28.8213 109.733 27.9668 108.74 27.3809C108.105 27.0228 106.852 26.6077 104.98 26.1357L101.489 25.2568C99.2594 24.7035 97.6156 24.085 96.5576 23.4014C94.6696 22.2132 93.7256 20.5693 93.7256 18.4697C93.7256 15.9958 94.6126 13.9938 96.3867 12.4639C98.1771 10.9339 100.578 10.1689 103.589 10.1689C107.528 10.1689 110.368 11.3245 112.109 13.6357C113.2 15.1006 113.729 16.6794 113.696 18.3721H109.546C109.465 17.3792 109.115 16.4759 108.496 15.6621C107.487 14.5065 105.737 13.9287 103.247 13.9287C101.587 13.9287 100.326 14.2461 99.4629 14.8809C98.6165 15.5156 98.1934 16.3538 98.1934 17.3955C98.1934 18.5348 98.7549 19.4463 99.8779 20.1299C100.529 20.5368 101.489 20.8949 102.759 21.2041L105.664 21.9121C108.822 22.6771 110.938 23.4176 112.012 24.1338C113.721 25.2568 114.575 27.0228 114.575 29.4316C114.575 31.7591 113.688 33.7692 111.914 35.4619C110.156 37.1546 107.471 38.001 103.857 38.001C99.9674 38.001 97.2087 37.1221 95.5811 35.3643C93.9697 33.5902 93.1071 31.401 92.9932 28.7969H97.2168ZM129.98 34.168C132.894 34.168 134.888 33.0693 135.962 30.8721C137.052 28.6585 137.598 26.2008 137.598 23.499C137.598 21.0576 137.207 19.0719 136.426 17.542C135.189 15.1331 133.057 13.9287 130.029 13.9287C127.344 13.9287 125.391 14.9541 124.17 17.0049C122.949 19.0557 122.339 21.5296 122.339 24.4268C122.339 27.21 122.949 29.5293 124.17 31.3848C125.391 33.2402 127.327 34.168 129.98 34.168ZM130.151 10.0957C133.521 10.0957 136.369 11.2188 138.696 13.4648C141.024 15.7109 142.188 19.015 142.188 23.377C142.188 27.5924 141.162 31.0755 139.111 33.8262C137.061 36.5768 133.879 37.9521 129.565 37.9521C125.968 37.9521 123.112 36.7396 120.996 34.3145C118.88 31.873 117.822 28.6016 117.822 24.5C117.822 20.1055 118.937 16.6061 121.167 14.002C123.397 11.3978 126.392 10.0957 130.151 10.0957ZM162.915 12.2441V8.875C166.089 8.56576 168.302 8.05306 169.556 7.33691C170.809 6.60449 171.745 4.88737 172.363 2.18555H175.83V37H171.143V12.2441H162.915ZM201.953 20.8135H214.209V25.3301H201.953V20.8135ZM235.352 1.13574H240.259V37H235.352V1.13574ZM247.583 10.8525H251.758V14.5635C252.995 13.0335 254.305 11.9349 255.688 11.2676C257.072 10.6003 258.61 10.2666 260.303 10.2666C264.014 10.2666 266.52 11.5605 267.822 14.1484C268.538 15.5645 268.896 17.5908 268.896 20.2275V37H264.429V20.5205C264.429 18.9255 264.193 17.6396 263.721 16.6631C262.939 15.0355 261.523 14.2217 259.473 14.2217C258.431 14.2217 257.576 14.3275 256.909 14.5391C255.705 14.8971 254.647 15.6133 253.735 16.6875C253.003 17.5501 252.523 18.4453 252.295 19.373C252.083 20.2845 251.978 21.5947 251.978 23.3037V37H247.583V10.8525ZM276.514 6.87305C276.579 5.05013 276.896 3.71549 277.466 2.86914C278.491 1.37174 280.469 0.623047 283.398 0.623047C283.675 0.623047 283.96 0.631185 284.253 0.647461C284.546 0.663737 284.88 0.688151 285.254 0.720703V4.72461C284.798 4.69206 284.465 4.67578 284.253 4.67578C284.058 4.65951 283.87 4.65137 283.691 4.65137C282.357 4.65137 281.559 5.0013 281.299 5.70117C281.038 6.38477 280.908 8.14258 280.908 10.9746H285.254V14.4414H280.859V37H276.514V14.4414H272.876V10.9746H276.514V6.87305ZM299.707 34.168C302.62 34.168 304.614 33.0693 305.688 30.8721C306.779 28.6585 307.324 26.2008 307.324 23.499C307.324 21.0576 306.934 19.0719 306.152 17.542C304.915 15.1331 302.783 13.9287 299.756 13.9287C297.07 13.9287 295.117 14.9541 293.896 17.0049C292.676 19.0557 292.065 21.5296 292.065 24.4268C292.065 27.21 292.676 29.5293 293.896 31.3848C295.117 33.2402 297.054 34.168 299.707 34.168ZM299.878 10.0957C303.247 10.0957 306.095 11.2188 308.423 13.4648C310.75 15.7109 311.914 19.015 311.914 23.377C311.914 27.5924 310.889 31.0755 308.838 33.8262C306.787 36.5768 303.605 37.9521 299.292 37.9521C295.695 37.9521 292.839 36.7396 290.723 34.3145C288.607 31.873 287.549 28.6016 287.549 24.5C287.549 20.1055 288.664 16.6061 290.894 14.002C293.123 11.3978 296.118 10.0957 299.878 10.0957ZM317.285 10.8525H321.46V15.3691C321.802 14.4902 322.64 13.4242 323.975 12.1709C325.309 10.9014 326.847 10.2666 328.589 10.2666C328.67 10.2666 328.809 10.2747 329.004 10.291C329.199 10.3073 329.533 10.3398 330.005 10.3887V15.0273C329.744 14.9785 329.5 14.946 329.272 14.9297C329.061 14.9134 328.825 14.9053 328.564 14.9053C326.351 14.9053 324.65 15.6214 323.462 17.0537C322.274 18.4697 321.68 20.1055 321.68 21.9609V37H317.285V10.8525ZM333.813 10.8525H338.159V14.5635C339.201 13.2777 340.145 12.3418 340.991 11.7559C342.44 10.763 344.084 10.2666 345.923 10.2666C348.006 10.2666 349.683 10.7793 350.952 11.8047C351.668 12.3906 352.319 13.2533 352.905 14.3926C353.882 12.9928 355.029 11.9593 356.348 11.292C357.666 10.6084 359.147 10.2666 360.791 10.2666C364.307 10.2666 366.699 11.5361 367.969 14.0752C368.652 15.4424 368.994 17.2816 368.994 19.5928V37H364.429V18.8359C364.429 17.0944 363.989 15.8981 363.11 15.2471C362.248 14.596 361.19 14.2705 359.937 14.2705C358.211 14.2705 356.722 14.8483 355.469 16.0039C354.232 17.1595 353.613 19.0882 353.613 21.79V37H349.146V19.9346C349.146 18.1605 348.934 16.8665 348.511 16.0527C347.843 14.832 346.598 14.2217 344.775 14.2217C343.115 14.2217 341.602 14.8646 340.234 16.1504C338.883 17.4362 338.208 19.7637 338.208 23.1328V37H333.813V10.8525ZM378.833 30.042C378.833 31.3115 379.297 32.3125 380.225 33.0449C381.152 33.7773 382.251 34.1436 383.521 34.1436C385.067 34.1436 386.564 33.7855 388.013 33.0693C390.454 31.8812 391.675 29.9362 391.675 27.2344V23.6943C391.138 24.0361 390.446 24.321 389.6 24.5488C388.753 24.7767 387.923 24.9395 387.109 25.0371L384.448 25.3789C382.853 25.5905 381.657 25.9242 380.859 26.3799C379.508 27.1449 378.833 28.3656 378.833 30.042ZM389.478 21.1553C390.487 21.0251 391.162 20.6019 391.504 19.8857C391.699 19.4951 391.797 18.9336 391.797 18.2012C391.797 16.7038 391.26 15.6214 390.186 14.9541C389.128 14.2705 387.606 13.9287 385.62 13.9287C383.325 13.9287 381.698 14.5472 380.737 15.7842C380.2 16.4678 379.85 17.485 379.688 18.8359H375.586C375.667 15.6133 376.709 13.3753 378.711 12.1221C380.729 10.8525 383.065 10.2178 385.718 10.2178C388.794 10.2178 391.292 10.8037 393.213 11.9756C395.117 13.1475 396.069 14.9704 396.069 17.4443V32.5078C396.069 32.9635 396.159 33.3298 396.338 33.6064C396.533 33.8831 396.932 34.0215 397.534 34.0215C397.729 34.0215 397.949 34.0133 398.193 33.9971C398.438 33.9645 398.698 33.9238 398.975 33.875V37.1221C398.291 37.3174 397.77 37.4395 397.412 37.4883C397.054 37.5371 396.566 37.5615 395.947 37.5615C394.434 37.5615 393.335 37.0244 392.651 35.9502C392.293 35.3805 392.041 34.5749 391.895 33.5332C390.999 34.7051 389.714 35.7223 388.037 36.585C386.361 37.4476 384.513 37.8789 382.495 37.8789C380.07 37.8789 378.084 37.1465 376.538 35.6816C375.008 34.2005 374.243 32.3532 374.243 30.1396C374.243 27.7145 375 25.8346 376.514 24.5C378.027 23.1654 380.013 22.3434 382.471 22.0342L389.478 21.1553ZM413.379 10.0957C416.325 10.0957 418.717 10.8118 420.557 12.2441C422.412 13.6764 423.527 16.1423 423.901 19.6416H419.629C419.368 18.0303 418.774 16.6956 417.847 15.6377C416.919 14.5635 415.43 14.0264 413.379 14.0264C410.579 14.0264 408.577 15.3936 407.373 18.1279C406.592 19.902 406.201 22.0911 406.201 24.6953C406.201 27.3158 406.755 29.5212 407.861 31.3115C408.968 33.1019 410.71 33.9971 413.086 33.9971C414.909 33.9971 416.349 33.4437 417.407 32.3369C418.481 31.2139 419.222 29.6839 419.629 27.7471H423.901C423.413 31.2139 422.192 33.7529 420.239 35.3643C418.286 36.9593 416.016 37.7568 413.428 37.7568L411.694 40.125C412.166 39.9785 412.777 39.9053 413.525 39.9053C414.665 39.9053 415.601 40.2308 416.333 40.8818C417.082 41.5492 417.456 42.4932 417.456 43.7139C417.456 44.9508 416.968 46.0169 415.991 46.9121C415.015 47.8073 413.517 48.2549 411.499 48.2549C410.636 48.2549 409.741 48.1328 408.813 47.8887C408.293 47.7585 407.593 47.5306 406.714 47.2051L407.568 45.2275C408.187 45.4554 408.667 45.6182 409.009 45.7158C409.676 45.8949 410.278 45.9844 410.815 45.9844C411.418 45.9844 411.938 45.8949 412.378 45.7158C413.224 45.374 413.647 44.7555 413.647 43.8604C413.647 43.3395 413.428 42.8838 412.988 42.4932C412.565 42.1188 411.995 41.9316 411.279 41.9316C410.921 41.9316 410.596 41.9642 410.303 42.0293C410.026 42.0944 409.692 42.2002 409.302 42.3467L408.447 41.3457L411.084 37.7568C408.773 37.7568 406.755 36.8291 405.029 34.9736C402.686 32.3206 401.514 28.8783 401.514 24.6465C401.514 20.0566 402.629 16.484 404.858 13.9287C407.088 11.3734 409.928 10.0957 413.379 10.0957ZM438.672 34.168C441.585 34.168 443.579 33.0693 444.653 30.8721C445.744 28.6585 446.289 26.2008 446.289 23.499C446.289 21.0576 445.898 19.0719 445.117 17.542C443.88 15.1331 441.748 13.9287 438.721 13.9287C436.035 13.9287 434.082 14.9541 432.861 17.0049C431.641 19.0557 431.03 21.5296 431.03 24.4268C431.03 27.21 431.641 29.5293 432.861 31.3848C434.082 33.2402 436.019 34.168 438.672 34.168ZM438.843 10.0957C442.212 10.0957 445.06 11.2188 447.388 13.4648C449.715 15.7109 450.879 19.015 450.879 23.377C450.879 27.5924 449.854 31.0755 447.803 33.8262C445.752 36.5768 442.57 37.9521 438.257 37.9521C434.66 37.9521 431.803 36.7396 429.688 34.3145C427.572 31.873 426.514 28.6016 426.514 24.5C426.514 20.1055 427.629 16.6061 429.858 14.002C432.088 11.3978 435.083 10.0957 438.843 10.0957ZM440.308 2.74707C440.763 2.94238 441.178 3.09701 441.553 3.21094C441.927 3.32487 442.31 3.38184 442.7 3.38184C443.612 3.38184 444.263 3.09701 444.653 2.52734C444.865 2.2181 445.011 1.75423 445.093 1.13574H447.656C447.314 3.2028 446.655 4.62695 445.679 5.4082C444.718 6.18945 443.66 6.58008 442.505 6.58008C442.147 6.58008 441.691 6.51497 441.138 6.38477C440.584 6.25456 440.096 6.10807 439.673 5.94531L438.379 5.48145C437.614 5.20475 436.987 5.0013 436.499 4.87109C436.027 4.72461 435.563 4.65137 435.107 4.65137C434.538 4.65137 434.066 4.83854 433.691 5.21289C433.333 5.58724 433.089 6.1569 432.959 6.92188H430.566C430.778 5.63607 431.128 4.58626 431.616 3.77246C432.544 2.27507 433.919 1.52637 435.742 1.52637C436.296 1.52637 436.906 1.60775 437.573 1.77051C438.257 1.93327 439.168 2.25879 440.308 2.74707ZM467.017 10.2666C468.872 10.2666 470.671 10.7061 472.412 11.585C474.154 12.4476 475.48 13.5706 476.392 14.9541C477.271 16.2725 477.856 17.8105 478.149 19.5684C478.41 20.7728 478.54 22.6934 478.54 25.3301H459.375C459.456 27.9831 460.083 30.1152 461.255 31.7266C462.427 33.3216 464.242 34.1191 466.699 34.1191C468.994 34.1191 470.825 33.3623 472.192 31.8486C472.974 30.9697 473.527 29.9525 473.853 28.7969H478.174C478.06 29.7572 477.677 30.8314 477.026 32.0195C476.392 33.1914 475.675 34.1517 474.878 34.9004C473.543 36.2025 471.891 37.0814 469.922 37.5371C468.864 37.7975 467.668 37.9277 466.333 37.9277C463.078 37.9277 460.319 36.7477 458.057 34.3877C455.794 32.0114 454.663 28.6911 454.663 24.4268C454.663 20.2275 455.802 16.8177 458.081 14.1973C460.36 11.5768 463.338 10.2666 467.017 10.2666ZM474.023 21.8389C473.844 19.9346 473.429 18.4128 472.778 17.2734C471.574 15.1576 469.564 14.0996 466.748 14.0996C464.73 14.0996 463.037 14.832 461.67 16.2969C460.303 17.7454 459.578 19.5928 459.497 21.8389H474.023ZM486.572 28.7969C486.702 30.2617 487.069 31.3848 487.671 32.166C488.778 33.582 490.698 34.29 493.433 34.29C495.06 34.29 496.493 33.9401 497.729 33.2402C498.966 32.5241 499.585 31.4255 499.585 29.9443C499.585 28.8213 499.089 27.9668 498.096 27.3809C497.461 27.0228 496.208 26.6077 494.336 26.1357L490.845 25.2568C488.615 24.7035 486.971 24.085 485.913 23.4014C484.025 22.2132 483.081 20.5693 483.081 18.4697C483.081 15.9958 483.968 13.9938 485.742 12.4639C487.533 10.9339 489.933 10.1689 492.944 10.1689C496.883 10.1689 499.723 11.3245 501.465 13.6357C502.555 15.1006 503.084 16.6794 503.052 18.3721H498.901C498.82 17.3792 498.47 16.4759 497.852 15.6621C496.842 14.5065 495.093 13.9287 492.603 13.9287C490.942 13.9287 489.681 14.2461 488.818 14.8809C487.972 15.5156 487.549 16.3538 487.549 17.3955C487.549 18.5348 488.11 19.4463 489.233 20.1299C489.884 20.5368 490.845 20.8949 492.114 21.2041L495.02 21.9121C498.177 22.6771 500.293 23.4176 501.367 24.1338C503.076 25.2568 503.931 27.0228 503.931 29.4316C503.931 31.7591 503.044 33.7692 501.27 35.4619C499.512 37.1546 496.826 38.001 493.213 38.001C489.323 38.001 486.564 37.1221 484.937 35.3643C483.325 33.5902 482.463 31.401 482.349 28.7969H486.572ZM536.938 16.2969C538.989 16.2969 540.584 16.012 541.724 15.4424C543.514 14.5472 544.409 12.9359 544.409 10.6084C544.409 8.26465 543.457 6.68587 541.553 5.87207C540.479 5.41634 538.883 5.18848 536.768 5.18848H528.101V16.2969H536.938ZM538.574 32.8496C541.553 32.8496 543.677 31.987 544.946 30.2617C545.744 29.1712 546.143 27.8529 546.143 26.3066C546.143 23.7025 544.979 21.9284 542.651 20.9844C541.414 20.4798 539.779 20.2275 537.744 20.2275H528.101V32.8496H538.574ZM523.34 1.13574H538.745C542.944 1.13574 545.931 2.389 547.705 4.89551C548.747 6.37663 549.268 8.08561 549.268 10.0225C549.268 12.2848 548.625 14.1403 547.339 15.5889C546.672 16.3538 545.711 17.0537 544.458 17.6885C546.297 18.3883 547.673 19.1777 548.584 20.0566C550.195 21.6191 551.001 23.7757 551.001 26.5264C551.001 28.8376 550.277 30.929 548.828 32.8008C546.663 35.6003 543.221 37 538.501 37H523.34V1.13574ZM559.595 30.042C559.595 31.3115 560.059 32.3125 560.986 33.0449C561.914 33.7773 563.013 34.1436 564.282 34.1436C565.828 34.1436 567.326 33.7855 568.774 33.0693C571.216 31.8812 572.437 29.9362 572.437 27.2344V23.6943C571.899 24.0361 571.208 24.321 570.361 24.5488C569.515 24.7767 568.685 24.9395 567.871 25.0371L565.21 25.3789C563.615 25.5905 562.419 25.9242 561.621 26.3799C560.27 27.1449 559.595 28.3656 559.595 30.042ZM570.239 21.1553C571.248 21.0251 571.924 20.6019 572.266 19.8857C572.461 19.4951 572.559 18.9336 572.559 18.2012C572.559 16.7038 572.021 15.6214 570.947 14.9541C569.889 14.2705 568.368 13.9287 566.382 13.9287C564.087 13.9287 562.459 14.5472 561.499 15.7842C560.962 16.4678 560.612 17.485 560.449 18.8359H556.348C556.429 15.6133 557.471 13.3753 559.473 12.1221C561.491 10.8525 563.826 10.2178 566.479 10.2178C569.556 10.2178 572.054 10.8037 573.975 11.9756C575.879 13.1475 576.831 14.9704 576.831 17.4443V32.5078C576.831 32.9635 576.921 33.3298 577.1 33.6064C577.295 33.8831 577.694 34.0215 578.296 34.0215C578.491 34.0215 578.711 34.0133 578.955 33.9971C579.199 33.9645 579.46 33.9238 579.736 33.875V37.1221C579.053 37.3174 578.532 37.4395 578.174 37.4883C577.816 37.5371 577.327 37.5615 576.709 37.5615C575.195 37.5615 574.097 37.0244 573.413 35.9502C573.055 35.3805 572.803 34.5749 572.656 33.5332C571.761 34.7051 570.475 35.7223 568.799 36.585C567.122 37.4476 565.275 37.8789 563.257 37.8789C560.832 37.8789 558.846 37.1465 557.3 35.6816C555.77 34.2005 555.005 32.3532 555.005 30.1396C555.005 27.7145 555.762 25.8346 557.275 24.5C558.789 23.1654 560.775 22.3434 563.232 22.0342L570.239 21.1553ZM572.095 0.330078L565.576 7.38574H562.207L566.675 0.330078H572.095ZM586.67 28.7969C586.8 30.2617 587.166 31.3848 587.769 32.166C588.875 33.582 590.796 34.29 593.53 34.29C595.158 34.29 596.59 33.9401 597.827 33.2402C599.064 32.5241 599.683 31.4255 599.683 29.9443C599.683 28.8213 599.186 27.9668 598.193 27.3809C597.559 27.0228 596.305 26.6077 594.434 26.1357L590.942 25.2568C588.713 24.7035 587.069 24.085 586.011 23.4014C584.123 22.2132 583.179 20.5693 583.179 18.4697C583.179 15.9958 584.066 13.9938 585.84 12.4639C587.63 10.9339 590.031 10.1689 593.042 10.1689C596.981 10.1689 599.821 11.3245 601.562 13.6357C602.653 15.1006 603.182 16.6794 603.149 18.3721H598.999C598.918 17.3792 598.568 16.4759 597.949 15.6621C596.94 14.5065 595.19 13.9287 592.7 13.9287C591.04 13.9287 589.779 14.2461 588.916 14.8809C588.07 15.5156 587.646 16.3538 587.646 17.3955C587.646 18.5348 588.208 19.4463 589.331 20.1299C589.982 20.5368 590.942 20.8949 592.212 21.2041L595.117 21.9121C598.275 22.6771 600.391 23.4176 601.465 24.1338C603.174 25.2568 604.028 27.0228 604.028 29.4316C604.028 31.7591 603.141 33.7692 601.367 35.4619C599.609 37.1546 596.924 38.001 593.311 38.001C589.421 38.001 586.662 37.1221 585.034 35.3643C583.423 33.5902 582.56 31.401 582.446 28.7969H586.67ZM609.058 10.9746H613.525V37H609.058V10.9746ZM609.058 1.13574H613.525V6.11621H609.058V1.13574ZM630.273 10.0957C633.219 10.0957 635.612 10.8118 637.451 12.2441C639.307 13.6764 640.422 16.1423 640.796 19.6416H636.523C636.263 18.0303 635.669 16.6956 634.741 15.6377C633.813 14.5635 632.324 14.0264 630.273 14.0264C627.474 14.0264 625.472 15.3936 624.268 18.1279C623.486 19.902 623.096 22.0911 623.096 24.6953C623.096 27.3158 623.649 29.5212 624.756 31.3115C625.863 33.1019 627.604 33.9971 629.98 33.9971C631.803 33.9971 633.244 33.4437 634.302 32.3369C635.376 31.2139 636.117 29.6839 636.523 27.7471H640.796C640.308 31.2139 639.087 33.7529 637.134 35.3643C635.181 36.9593 632.682 37.7568 629.639 37.7568C626.221 37.7568 623.494 36.5117 621.46 34.0215C619.425 31.515 618.408 28.39 618.408 24.6465C618.408 20.0566 619.523 16.484 621.753 13.9287C623.983 11.3734 626.823 10.0957 630.273 10.0957ZM648.56 30.042C648.56 31.3115 649.023 32.3125 649.951 33.0449C650.879 33.7773 651.978 34.1436 653.247 34.1436C654.793 34.1436 656.291 33.7855 657.739 33.0693C660.181 31.8812 661.401 29.9362 661.401 27.2344V23.6943C660.864 24.0361 660.173 24.321 659.326 24.5488C658.48 24.7767 657.65 24.9395 656.836 25.0371L654.175 25.3789C652.58 25.5905 651.383 25.9242 650.586 26.3799C649.235 27.1449 648.56 28.3656 648.56 30.042ZM659.204 21.1553C660.213 21.0251 660.889 20.6019 661.23 19.8857C661.426 19.4951 661.523 18.9336 661.523 18.2012C661.523 16.7038 660.986 15.6214 659.912 14.9541C658.854 14.2705 657.332 13.9287 655.347 13.9287C653.052 13.9287 651.424 14.5472 650.464 15.7842C649.927 16.4678 649.577 17.485 649.414 18.8359H645.312C645.394 15.6133 646.436 13.3753 648.438 12.1221C650.456 10.8525 652.791 10.2178 655.444 10.2178C658.521 10.2178 661.019 10.8037 662.939 11.9756C664.844 13.1475 665.796 14.9704 665.796 17.4443V32.5078C665.796 32.9635 665.885 33.3298 666.064 33.6064C666.26 33.8831 666.659 34.0215 667.261 34.0215C667.456 34.0215 667.676 34.0133 667.92 33.9971C668.164 33.9645 668.424 33.9238 668.701 33.875V37.1221C668.018 37.3174 667.497 37.4395 667.139 37.4883C666.781 37.5371 666.292 37.5615 665.674 37.5615C664.16 37.5615 663.062 37.0244 662.378 35.9502C662.02 35.3805 661.768 34.5749 661.621 33.5332C660.726 34.7051 659.44 35.7223 657.764 36.585C656.087 37.4476 654.24 37.8789 652.222 37.8789C649.797 37.8789 647.811 37.1465 646.265 35.6816C644.735 34.2005 643.97 32.3532 643.97 30.1396C643.97 27.7145 644.727 25.8346 646.24 24.5C647.754 23.1654 649.74 22.3434 652.197 22.0342L659.204 21.1553ZM675.635 28.7969C675.765 30.2617 676.131 31.3848 676.733 32.166C677.84 33.582 679.761 34.29 682.495 34.29C684.123 34.29 685.555 33.9401 686.792 33.2402C688.029 32.5241 688.647 31.4255 688.647 29.9443C688.647 28.8213 688.151 27.9668 687.158 27.3809C686.523 27.0228 685.27 26.6077 683.398 26.1357L679.907 25.2568C677.677 24.7035 676.034 24.085 674.976 23.4014C673.088 22.2132 672.144 20.5693 672.144 18.4697C672.144 15.9958 673.031 13.9938 674.805 12.4639C676.595 10.9339 678.996 10.1689 682.007 10.1689C685.946 10.1689 688.786 11.3245 690.527 13.6357C691.618 15.1006 692.147 16.6794 692.114 18.3721H687.964C687.882 17.3792 687.533 16.4759 686.914 15.6621C685.905 14.5065 684.155 13.9287 681.665 13.9287C680.005 13.9287 678.743 14.2461 677.881 14.8809C677.035 15.5156 676.611 16.3538 676.611 17.3955C676.611 18.5348 677.173 19.4463 678.296 20.1299C678.947 20.5368 679.907 20.8949 681.177 21.2041L684.082 21.9121C687.24 22.6771 689.355 23.4176 690.43 24.1338C692.139 25.2568 692.993 27.0228 692.993 29.4316C692.993 31.7591 692.106 33.7692 690.332 35.4619C688.574 37.1546 685.889 38.001 682.275 38.001C678.385 38.001 675.627 37.1221 673.999 35.3643C672.388 33.5902 671.525 31.401 671.411 28.7969H675.635Z" fill="#203A40"/>
                        <path d="M448.707 126.707C449.098 126.317 449.098 125.683 448.707 125.293L442.343 118.929C441.953 118.538 441.319 118.538 440.929 118.929C440.538 119.319 440.538 119.953 440.929 120.343L446.586 126L440.929 131.657C440.538 132.047 440.538 132.681 440.929 133.071C441.319 133.462 441.953 133.462 442.343 133.071L448.707 126.707ZM375 127L448 127L448 125L375 125L375 127Z" fill="#F2695C"/>
                        <path d="M324.707 126.707C325.098 126.317 325.098 125.683 324.707 125.293L318.343 118.929C317.953 118.538 317.319 118.538 316.929 118.929C316.538 119.319 316.538 119.953 316.929 120.343L322.586 126L316.929 131.657C316.538 132.047 316.538 132.681 316.929 133.071C317.319 133.462 317.953 133.462 318.343 133.071L324.707 126.707ZM251 127L324 127L324 125L251 125L251 127Z" fill="#F2695C"/>
                        <path d="M473.807 135.571C471.327 135.571 469.525 134.893 468.402 133.535C467.288 132.168 466.732 130.508 466.732 128.555H469.486C469.603 129.912 469.857 130.898 470.247 131.514C470.931 132.617 472.166 133.169 473.953 133.169C475.34 133.169 476.453 132.798 477.293 132.056C478.133 131.313 478.553 130.356 478.553 129.185C478.553 127.739 478.109 126.729 477.22 126.152C476.341 125.576 475.116 125.288 473.543 125.288C473.368 125.288 473.187 125.293 473.001 125.303C472.826 125.303 472.645 125.308 472.459 125.317V122.988C472.733 123.018 472.962 123.037 473.148 123.047C473.333 123.057 473.534 123.062 473.748 123.062C474.735 123.062 475.545 122.905 476.18 122.593C477.293 122.046 477.85 121.069 477.85 119.663C477.85 118.618 477.479 117.812 476.737 117.246C475.994 116.68 475.13 116.396 474.144 116.396C472.386 116.396 471.17 116.982 470.496 118.154C470.125 118.799 469.915 119.717 469.867 120.908H467.259C467.259 119.346 467.572 118.018 468.197 116.924C469.271 114.971 471.161 113.994 473.866 113.994C476.004 113.994 477.66 114.473 478.831 115.43C480.003 116.377 480.589 117.754 480.589 119.561C480.589 120.85 480.243 121.895 479.549 122.695C479.119 123.193 478.563 123.584 477.879 123.867C478.983 124.17 479.842 124.756 480.457 125.625C481.082 126.484 481.395 127.539 481.395 128.789C481.395 130.791 480.736 132.422 479.417 133.682C478.099 134.941 476.229 135.571 473.807 135.571Z" fill="#203A40"/>
                        <rect x="450" y="101" width="48" height="48" rx="5" stroke="#203A40" stroke-width="2"/>
                        <path d="M343.179 135.18C343.276 133.373 343.647 131.801 344.292 130.463C344.946 129.125 346.216 127.909 348.101 126.815L350.913 125.189C352.173 124.457 353.057 123.832 353.564 123.314C354.365 122.504 354.766 121.576 354.766 120.531C354.766 119.311 354.399 118.344 353.667 117.631C352.935 116.908 351.958 116.547 350.737 116.547C348.931 116.547 347.681 117.23 346.987 118.598C346.616 119.33 346.411 120.346 346.372 121.645H343.691C343.721 119.818 344.058 118.329 344.702 117.177C345.845 115.146 347.861 114.13 350.752 114.13C353.154 114.13 354.907 114.779 356.011 116.078C357.124 117.377 357.681 118.822 357.681 120.414C357.681 122.094 357.09 123.529 355.908 124.721C355.225 125.414 353.999 126.254 352.231 127.24L350.225 128.354C349.268 128.881 348.516 129.384 347.969 129.862C346.992 130.712 346.377 131.654 346.123 132.689H357.578V135.18H343.179Z" fill="#203A40"/>
                        <rect x="326" y="101" width="48" height="48" rx="5" stroke="#203A40" stroke-width="2"/>
                        <rect x="201" y="100" width="50" height="50" rx="6" fill="#203A40"/>
                        <path d="M220.76 121.146V119.125C222.664 118.939 223.993 118.632 224.744 118.202C225.496 117.763 226.058 116.732 226.429 115.111H228.509V136H225.697V121.146H220.76Z" fill="white"/>
</svg>             