<svg width="941" height="151" viewBox="0 0 941 151" fill="none" xmlns="http://www.w3.org/2000/svg">
<path d="M4.7041 1.13574H20.8418C24.0319 1.13574 26.6035 2.03906 28.5566 3.8457C30.5098 5.63607 31.4863 8.15885 31.4863 11.4141C31.4863 14.2135 30.6156 16.6549 28.874 18.7383C27.1325 20.8053 24.4551 21.8389 20.8418 21.8389H9.5625V37H4.7041V1.13574ZM26.5791 11.4385C26.5791 8.80176 25.6025 7.01139 23.6494 6.06738C22.5752 5.56283 21.1022 5.31055 19.2305 5.31055H9.5625V17.7373H19.2305C21.4115 17.7373 23.1774 17.2734 24.5283 16.3457C25.8955 15.418 26.5791 13.7822 26.5791 11.4385ZM40.373 30.042C40.373 31.3115 40.8369 32.3125 41.7646 33.0449C42.6924 33.7773 43.791 34.1436 45.0605 34.1436C46.6068 34.1436 48.1042 33.7855 49.5527 33.0693C51.9941 31.8812 53.2148 29.9362 53.2148 27.2344V23.6943C52.6777 24.0361 51.986 24.321 51.1396 24.5488C50.2933 24.7767 49.4632 24.9395 48.6494 25.0371L45.9883 25.3789C44.3932 25.5905 43.1969 25.9242 42.3994 26.3799C41.0485 27.1449 40.373 28.3656 40.373 30.042ZM51.0176 21.1553C52.0267 21.0251 52.7021 20.6019 53.0439 19.8857C53.2393 19.4951 53.3369 18.9336 53.3369 18.2012C53.3369 16.7038 52.7998 15.6214 51.7256 14.9541C50.6676 14.2705 49.1458 13.9287 47.1602 13.9287C44.8652 13.9287 43.2376 14.5472 42.2773 15.7842C41.7402 16.4678 41.3903 17.485 41.2275 18.8359H37.126C37.2074 15.6133 38.249 13.3753 40.251 12.1221C42.2692 10.8525 44.6048 10.2178 47.2578 10.2178C50.334 10.2178 52.8324 10.8037 54.7529 11.9756C56.6572 13.1475 57.6094 14.9704 57.6094 17.4443V32.5078C57.6094 32.9635 57.6989 33.3298 57.8779 33.6064C58.0732 33.8831 58.472 34.0215 59.0742 34.0215C59.2695 34.0215 59.4893 34.0133 59.7334 33.9971C59.9775 33.9645 60.238 33.9238 60.5146 33.875V37.1221C59.8311 37.3174 59.3102 37.4395 58.9521 37.4883C58.5941 37.5371 58.1058 37.5615 57.4873 37.5615C55.9736 37.5615 54.875 37.0244 54.1914 35.9502C53.8333 35.3805 53.5811 34.5749 53.4346 33.5332C52.5394 34.7051 51.2536 35.7223 49.5771 36.585C47.9007 37.4476 46.0534 37.8789 44.0352 37.8789C41.61 37.8789 39.6243 37.1465 38.0781 35.6816C36.5482 34.2005 35.7832 32.3532 35.7832 30.1396C35.7832 27.7145 36.54 25.8346 38.0537 24.5C39.5674 23.1654 41.5531 22.3434 44.0107 22.0342L51.0176 21.1553ZM67.4482 28.7969C67.5785 30.2617 67.9447 31.3848 68.5469 32.166C69.6536 33.582 71.5742 34.29 74.3086 34.29C75.9362 34.29 77.3685 33.9401 78.6055 33.2402C79.8424 32.5241 80.4609 31.4255 80.4609 29.9443C80.4609 28.8213 79.9645 27.9668 78.9717 27.3809C78.3369 27.0228 77.0837 26.6077 75.2119 26.1357L71.7207 25.2568C69.4909 24.7035 67.847 24.085 66.7891 23.4014C64.901 22.2132 63.957 20.5693 63.957 18.4697C63.957 15.9958 64.8441 13.9938 66.6182 12.4639C68.4085 10.9339 70.8092 10.1689 73.8203 10.1689C77.7591 10.1689 80.5993 11.3245 82.3408 13.6357C83.4313 15.1006 83.9603 16.6794 83.9277 18.3721H79.7773C79.696 17.3792 79.346 16.4759 78.7275 15.6621C77.7184 14.5065 75.9688 13.9287 73.4785 13.9287C71.8184 13.9287 70.557 14.2461 69.6943 14.8809C68.848 15.5156 68.4248 16.3538 68.4248 17.3955C68.4248 18.5348 68.9863 19.4463 70.1094 20.1299C70.7604 20.5368 71.7207 20.8949 72.9902 21.2041L75.8955 21.9121C79.0531 22.6771 81.1689 23.4176 82.2432 24.1338C83.9521 25.2568 84.8066 27.0228 84.8066 29.4316C84.8066 31.7591 83.9196 33.7692 82.1455 35.4619C80.3877 37.1546 77.7021 38.001 74.0889 38.001C70.1989 38.001 67.4401 37.1221 65.8125 35.3643C64.2012 33.5902 63.3385 31.401 63.2246 28.7969H67.4482ZM92.4482 28.7969C92.5785 30.2617 92.9447 31.3848 93.5469 32.166C94.6536 33.582 96.5742 34.29 99.3086 34.29C100.936 34.29 102.368 33.9401 103.605 33.2402C104.842 32.5241 105.461 31.4255 105.461 29.9443C105.461 28.8213 104.965 27.9668 103.972 27.3809C103.337 27.0228 102.084 26.6077 100.212 26.1357L96.7207 25.2568C94.4909 24.7035 92.847 24.085 91.7891 23.4014C89.901 22.2132 88.957 20.5693 88.957 18.4697C88.957 15.9958 89.8441 13.9938 91.6182 12.4639C93.4085 10.9339 95.8092 10.1689 98.8203 10.1689C102.759 10.1689 105.599 11.3245 107.341 13.6357C108.431 15.1006 108.96 16.6794 108.928 18.3721H104.777C104.696 17.3792 104.346 16.4759 103.728 15.6621C102.718 14.5065 100.969 13.9287 98.4785 13.9287C96.8184 13.9287 95.557 14.2461 94.6943 14.8809C93.848 15.5156 93.4248 16.3538 93.4248 17.3955C93.4248 18.5348 93.9863 19.4463 95.1094 20.1299C95.7604 20.5368 96.7207 20.8949 97.9902 21.2041L100.896 21.9121C104.053 22.6771 106.169 23.4176 107.243 24.1338C108.952 25.2568 109.807 27.0228 109.807 29.4316C109.807 31.7591 108.92 33.7692 107.146 35.4619C105.388 37.1546 102.702 38.001 99.0889 38.001C95.1989 38.001 92.4401 37.1221 90.8125 35.3643C89.2012 33.5902 88.3385 31.401 88.2246 28.7969H92.4482ZM125.212 34.168C128.125 34.168 130.119 33.0693 131.193 30.8721C132.284 28.6585 132.829 26.2008 132.829 23.499C132.829 21.0576 132.438 19.0719 131.657 17.542C130.42 15.1331 128.288 13.9287 125.261 13.9287C122.575 13.9287 120.622 14.9541 119.401 17.0049C118.181 19.0557 117.57 21.5296 117.57 24.4268C117.57 27.21 118.181 29.5293 119.401 31.3848C120.622 33.2402 122.559 34.168 125.212 34.168ZM125.383 10.0957C128.752 10.0957 131.6 11.2188 133.928 13.4648C136.255 15.7109 137.419 19.015 137.419 23.377C137.419 27.5924 136.394 31.0755 134.343 33.8262C132.292 36.5768 129.11 37.9521 124.797 37.9521C121.2 37.9521 118.343 36.7396 116.228 34.3145C114.112 31.873 113.054 28.6016 113.054 24.5C113.054 20.1055 114.169 16.6061 116.398 14.002C118.628 11.3978 121.623 10.0957 125.383 10.0957ZM166.35 37.9521C162.215 37.9521 159.213 36.821 157.341 34.5586C155.485 32.2799 154.558 29.513 154.558 26.2578H159.147C159.343 28.5202 159.766 30.1641 160.417 31.1895C161.556 33.0286 163.615 33.9482 166.594 33.9482C168.905 33.9482 170.76 33.3298 172.16 32.0928C173.56 30.8558 174.26 29.2607 174.26 27.3076C174.26 24.8988 173.519 23.2142 172.038 22.2539C170.573 21.2936 168.531 20.8135 165.91 20.8135C165.617 20.8135 165.316 20.8216 165.007 20.8379C164.714 20.8379 164.413 20.846 164.104 20.8623V16.9805C164.559 17.0293 164.942 17.0618 165.251 17.0781C165.56 17.0944 165.894 17.1025 166.252 17.1025C167.896 17.1025 169.247 16.8421 170.305 16.3213C172.16 15.4098 173.088 13.7822 173.088 11.4385C173.088 9.69694 172.469 8.35417 171.232 7.41016C169.995 6.46615 168.555 5.99414 166.911 5.99414C163.981 5.99414 161.955 6.9707 160.832 8.92383C160.214 9.99805 159.864 11.528 159.782 13.5137H155.437C155.437 10.9095 155.957 8.69596 156.999 6.87305C158.789 3.61784 161.939 1.99023 166.447 1.99023C170.012 1.99023 172.771 2.78776 174.724 4.38281C176.677 5.96159 177.653 8.25651 177.653 11.2676C177.653 13.416 177.076 15.1576 175.92 16.4922C175.204 17.3223 174.276 17.9733 173.137 18.4453C174.976 18.9499 176.408 19.9264 177.434 21.375C178.475 22.8073 178.996 24.5651 178.996 26.6484C178.996 29.985 177.897 32.7031 175.7 34.8027C173.503 36.9023 170.386 37.9521 166.35 37.9521ZM197.185 20.8135H209.44V25.3301H197.185V20.8135ZM230.583 1.13574H235.49V37H230.583V1.13574ZM242.814 10.8525H246.989V14.5635C248.226 13.0335 249.536 11.9349 250.92 11.2676C252.303 10.6003 253.841 10.2666 255.534 10.2666C259.245 10.2666 261.752 11.5605 263.054 14.1484C263.77 15.5645 264.128 17.5908 264.128 20.2275V37H259.66V20.5205C259.66 18.9255 259.424 17.6396 258.952 16.6631C258.171 15.0355 256.755 14.2217 254.704 14.2217C253.662 14.2217 252.808 14.3275 252.141 14.5391C250.936 14.8971 249.878 15.6133 248.967 16.6875C248.234 17.5501 247.754 18.4453 247.526 19.373C247.315 20.2845 247.209 21.5947 247.209 23.3037V37H242.814V10.8525ZM271.745 6.87305C271.81 5.05013 272.128 3.71549 272.697 2.86914C273.723 1.37174 275.7 0.623047 278.63 0.623047C278.907 0.623047 279.191 0.631185 279.484 0.647461C279.777 0.663737 280.111 0.688151 280.485 0.720703V4.72461C280.03 4.69206 279.696 4.67578 279.484 4.67578C279.289 4.65951 279.102 4.65137 278.923 4.65137C277.588 4.65137 276.791 5.0013 276.53 5.70117C276.27 6.38477 276.14 8.14258 276.14 10.9746H280.485V14.4414H276.091V37H271.745V14.4414H268.107V10.9746H271.745V6.87305ZM294.938 34.168C297.852 34.168 299.846 33.0693 300.92 30.8721C302.01 28.6585 302.556 26.2008 302.556 23.499C302.556 21.0576 302.165 19.0719 301.384 17.542C300.147 15.1331 298.015 13.9287 294.987 13.9287C292.302 13.9287 290.349 14.9541 289.128 17.0049C287.907 19.0557 287.297 21.5296 287.297 24.4268C287.297 27.21 287.907 29.5293 289.128 31.3848C290.349 33.2402 292.285 34.168 294.938 34.168ZM295.109 10.0957C298.479 10.0957 301.327 11.2188 303.654 13.4648C305.982 15.7109 307.146 19.015 307.146 23.377C307.146 27.5924 306.12 31.0755 304.069 33.8262C302.019 36.5768 298.837 37.9521 294.523 37.9521C290.926 37.9521 288.07 36.7396 285.954 34.3145C283.838 31.873 282.78 28.6016 282.78 24.5C282.78 20.1055 283.895 16.6061 286.125 14.002C288.355 11.3978 291.35 10.0957 295.109 10.0957ZM312.517 10.8525H316.691V15.3691C317.033 14.4902 317.871 13.4242 319.206 12.1709C320.541 10.9014 322.079 10.2666 323.82 10.2666C323.902 10.2666 324.04 10.2747 324.235 10.291C324.431 10.3073 324.764 10.3398 325.236 10.3887V15.0273C324.976 14.9785 324.732 14.946 324.504 14.9297C324.292 14.9134 324.056 14.9053 323.796 14.9053C321.582 14.9053 319.882 15.6214 318.693 17.0537C317.505 18.4697 316.911 20.1055 316.911 21.9609V37H312.517V10.8525ZM329.045 10.8525H333.391V14.5635C334.432 13.2777 335.376 12.3418 336.223 11.7559C337.671 10.763 339.315 10.2666 341.154 10.2666C343.238 10.2666 344.914 10.7793 346.184 11.8047C346.9 12.3906 347.551 13.2533 348.137 14.3926C349.113 12.9928 350.261 11.9593 351.579 11.292C352.897 10.6084 354.379 10.2666 356.022 10.2666C359.538 10.2666 361.931 11.5361 363.2 14.0752C363.884 15.4424 364.226 17.2816 364.226 19.5928V37H359.66V18.8359C359.66 17.0944 359.221 15.8981 358.342 15.2471C357.479 14.596 356.421 14.2705 355.168 14.2705C353.443 14.2705 351.953 14.8483 350.7 16.0039C349.463 17.1595 348.845 19.0882 348.845 21.79V37H344.377V19.9346C344.377 18.1605 344.165 16.8665 343.742 16.0527C343.075 14.832 341.83 14.2217 340.007 14.2217C338.347 14.2217 336.833 14.8646 335.466 16.1504C334.115 17.4362 333.439 19.7637 333.439 23.1328V37H329.045V10.8525ZM374.064 30.042C374.064 31.3115 374.528 32.3125 375.456 33.0449C376.384 33.7773 377.482 34.1436 378.752 34.1436C380.298 34.1436 381.796 33.7855 383.244 33.0693C385.686 31.8812 386.906 29.9362 386.906 27.2344V23.6943C386.369 24.0361 385.677 24.321 384.831 24.5488C383.985 24.7767 383.155 24.9395 382.341 25.0371L379.68 25.3789C378.085 25.5905 376.888 25.9242 376.091 26.3799C374.74 27.1449 374.064 28.3656 374.064 30.042ZM384.709 21.1553C385.718 21.0251 386.394 20.6019 386.735 19.8857C386.931 19.4951 387.028 18.9336 387.028 18.2012C387.028 16.7038 386.491 15.6214 385.417 14.9541C384.359 14.2705 382.837 13.9287 380.852 13.9287C378.557 13.9287 376.929 14.5472 375.969 15.7842C375.432 16.4678 375.082 17.485 374.919 18.8359H370.817C370.899 15.6133 371.94 13.3753 373.942 12.1221C375.961 10.8525 378.296 10.2178 380.949 10.2178C384.025 10.2178 386.524 10.8037 388.444 11.9756C390.349 13.1475 391.301 14.9704 391.301 17.4443V32.5078C391.301 32.9635 391.39 33.3298 391.569 33.6064C391.765 33.8831 392.163 34.0215 392.766 34.0215C392.961 34.0215 393.181 34.0133 393.425 33.9971C393.669 33.9645 393.929 33.9238 394.206 33.875V37.1221C393.522 37.3174 393.002 37.4395 392.644 37.4883C392.285 37.5371 391.797 37.5615 391.179 37.5615C389.665 37.5615 388.566 37.0244 387.883 35.9502C387.525 35.3805 387.272 34.5749 387.126 33.5332C386.231 34.7051 384.945 35.7223 383.269 36.585C381.592 37.4476 379.745 37.8789 377.727 37.8789C375.301 37.8789 373.316 37.1465 371.77 35.6816C370.24 34.2005 369.475 32.3532 369.475 30.1396C369.475 27.7145 370.231 25.8346 371.745 24.5C373.259 23.1654 375.244 22.3434 377.702 22.0342L384.709 21.1553ZM408.61 10.0957C411.556 10.0957 413.949 10.8118 415.788 12.2441C417.644 13.6764 418.758 16.1423 419.133 19.6416H414.86C414.6 18.0303 414.006 16.6956 413.078 15.6377C412.15 14.5635 410.661 14.0264 408.61 14.0264C405.811 14.0264 403.809 15.3936 402.604 18.1279C401.823 19.902 401.433 22.0911 401.433 24.6953C401.433 27.3158 401.986 29.5212 403.093 31.3115C404.2 33.1019 405.941 33.9971 408.317 33.9971C410.14 33.9971 411.581 33.4437 412.639 32.3369C413.713 31.2139 414.453 29.6839 414.86 27.7471H419.133C418.645 31.2139 417.424 33.7529 415.471 35.3643C413.518 36.9593 411.247 37.7568 408.659 37.7568L406.926 40.125C407.398 39.9785 408.008 39.9053 408.757 39.9053C409.896 39.9053 410.832 40.2308 411.564 40.8818C412.313 41.5492 412.688 42.4932 412.688 43.7139C412.688 44.9508 412.199 46.0169 411.223 46.9121C410.246 47.8073 408.749 48.2549 406.73 48.2549C405.868 48.2549 404.973 48.1328 404.045 47.8887C403.524 47.7585 402.824 47.5306 401.945 47.2051L402.8 45.2275C403.418 45.4554 403.898 45.6182 404.24 45.7158C404.908 45.8949 405.51 45.9844 406.047 45.9844C406.649 45.9844 407.17 45.8949 407.609 45.7158C408.456 45.374 408.879 44.7555 408.879 43.8604C408.879 43.3395 408.659 42.8838 408.22 42.4932C407.797 42.1188 407.227 41.9316 406.511 41.9316C406.153 41.9316 405.827 41.9642 405.534 42.0293C405.257 42.0944 404.924 42.2002 404.533 42.3467L403.679 41.3457L406.315 37.7568C404.004 37.7568 401.986 36.8291 400.261 34.9736C397.917 32.3206 396.745 28.8783 396.745 24.6465C396.745 20.0566 397.86 16.484 400.09 13.9287C402.32 11.3734 405.16 10.0957 408.61 10.0957ZM433.903 34.168C436.817 34.168 438.811 33.0693 439.885 30.8721C440.975 28.6585 441.521 26.2008 441.521 23.499C441.521 21.0576 441.13 19.0719 440.349 17.542C439.112 15.1331 436.979 13.9287 433.952 13.9287C431.267 13.9287 429.313 14.9541 428.093 17.0049C426.872 19.0557 426.262 21.5296 426.262 24.4268C426.262 27.21 426.872 29.5293 428.093 31.3848C429.313 33.2402 431.25 34.168 433.903 34.168ZM434.074 10.0957C437.443 10.0957 440.292 11.2188 442.619 13.4648C444.947 15.7109 446.11 19.015 446.11 23.377C446.11 27.5924 445.085 31.0755 443.034 33.8262C440.983 36.5768 437.801 37.9521 433.488 37.9521C429.891 37.9521 427.035 36.7396 424.919 34.3145C422.803 31.873 421.745 28.6016 421.745 24.5C421.745 20.1055 422.86 16.6061 425.09 14.002C427.32 11.3978 430.314 10.0957 434.074 10.0957ZM435.539 2.74707C435.995 2.94238 436.41 3.09701 436.784 3.21094C437.159 3.32487 437.541 3.38184 437.932 3.38184C438.843 3.38184 439.494 3.09701 439.885 2.52734C440.096 2.2181 440.243 1.75423 440.324 1.13574H442.888C442.546 3.2028 441.887 4.62695 440.91 5.4082C439.95 6.18945 438.892 6.58008 437.736 6.58008C437.378 6.58008 436.923 6.51497 436.369 6.38477C435.816 6.25456 435.327 6.10807 434.904 5.94531L433.61 5.48145C432.845 5.20475 432.219 5.0013 431.73 4.87109C431.258 4.72461 430.795 4.65137 430.339 4.65137C429.769 4.65137 429.297 4.83854 428.923 5.21289C428.565 5.58724 428.321 6.1569 428.19 6.92188H425.798C426.009 5.63607 426.359 4.58626 426.848 3.77246C427.775 2.27507 429.151 1.52637 430.974 1.52637C431.527 1.52637 432.137 1.60775 432.805 1.77051C433.488 1.93327 434.4 2.25879 435.539 2.74707ZM462.248 10.2666C464.104 10.2666 465.902 10.7061 467.644 11.585C469.385 12.4476 470.712 13.5706 471.623 14.9541C472.502 16.2725 473.088 17.8105 473.381 19.5684C473.641 20.7728 473.771 22.6934 473.771 25.3301H454.606C454.688 27.9831 455.314 30.1152 456.486 31.7266C457.658 33.3216 459.473 34.1191 461.931 34.1191C464.226 34.1191 466.057 33.3623 467.424 31.8486C468.205 30.9697 468.758 29.9525 469.084 28.7969H473.405C473.291 29.7572 472.909 30.8314 472.258 32.0195C471.623 33.1914 470.907 34.1517 470.109 34.9004C468.775 36.2025 467.123 37.0814 465.153 37.5371C464.095 37.7975 462.899 37.9277 461.564 37.9277C458.309 37.9277 455.55 36.7477 453.288 34.3877C451.026 32.0114 449.895 28.6911 449.895 24.4268C449.895 20.2275 451.034 16.8177 453.312 14.1973C455.591 11.5768 458.57 10.2666 462.248 10.2666ZM469.255 21.8389C469.076 19.9346 468.661 18.4128 468.01 17.2734C466.805 15.1576 464.795 14.0996 461.979 14.0996C459.961 14.0996 458.269 14.832 456.901 16.2969C455.534 17.7454 454.81 19.5928 454.729 21.8389H469.255ZM481.804 28.7969C481.934 30.2617 482.3 31.3848 482.902 32.166C484.009 33.582 485.93 34.29 488.664 34.29C490.292 34.29 491.724 33.9401 492.961 33.2402C494.198 32.5241 494.816 31.4255 494.816 29.9443C494.816 28.8213 494.32 27.9668 493.327 27.3809C492.692 27.0228 491.439 26.6077 489.567 26.1357L486.076 25.2568C483.846 24.7035 482.202 24.085 481.145 23.4014C479.257 22.2132 478.312 20.5693 478.312 18.4697C478.312 15.9958 479.2 13.9938 480.974 12.4639C482.764 10.9339 485.165 10.1689 488.176 10.1689C492.115 10.1689 494.955 11.3245 496.696 13.6357C497.787 15.1006 498.316 16.6794 498.283 18.3721H494.133C494.051 17.3792 493.701 16.4759 493.083 15.6621C492.074 14.5065 490.324 13.9287 487.834 13.9287C486.174 13.9287 484.912 14.2461 484.05 14.8809C483.203 15.5156 482.78 16.3538 482.78 17.3955C482.78 18.5348 483.342 19.4463 484.465 20.1299C485.116 20.5368 486.076 20.8949 487.346 21.2041L490.251 21.9121C493.409 22.6771 495.524 23.4176 496.599 24.1338C498.308 25.2568 499.162 27.0228 499.162 29.4316C499.162 31.7591 498.275 33.7692 496.501 35.4619C494.743 37.1546 492.058 38.001 488.444 38.001C484.554 38.001 481.796 37.1221 480.168 35.3643C478.557 33.5902 477.694 31.401 477.58 28.7969H481.804ZM534.367 22.3027L528.923 6.45801L523.137 22.3027H534.367ZM526.384 1.13574H531.877L544.89 37H539.567L535.93 26.2578H521.745L517.863 37H512.883L526.384 1.13574ZM551.506 24.2314C551.506 27.0309 552.1 29.3747 553.288 31.2627C554.476 33.1507 556.381 34.0947 559.001 34.0947C561.035 34.0947 562.704 33.224 564.006 31.4824C565.324 29.7246 565.983 27.21 565.983 23.9385C565.983 20.6344 565.308 18.193 563.957 16.6143C562.606 15.0192 560.938 14.2217 558.952 14.2217C556.739 14.2217 554.94 15.068 553.557 16.7607C552.189 18.4535 551.506 20.9437 551.506 24.2314ZM558.122 10.3887C560.124 10.3887 561.8 10.8118 563.151 11.6582C563.933 12.1465 564.82 13.001 565.812 14.2217V1.01367H570.036V37H566.081V33.3623C565.056 34.9736 563.843 36.1374 562.443 36.8535C561.044 37.5697 559.44 37.9277 557.634 37.9277C554.72 37.9277 552.198 36.707 550.065 34.2656C547.933 31.8079 546.867 28.5446 546.867 24.4756C546.867 20.667 547.836 17.3711 549.772 14.5879C551.726 11.7884 554.509 10.3887 558.122 10.3887ZM576.555 10.9746H581.022V37H576.555V10.9746ZM576.555 1.13574H581.022V6.11621H576.555V1.13574ZM597.771 10.0957C600.716 10.0957 603.109 10.8118 604.948 12.2441C606.804 13.6764 607.919 16.1423 608.293 19.6416H604.021C603.76 18.0303 603.166 16.6956 602.238 15.6377C601.311 14.5635 599.821 14.0264 597.771 14.0264C594.971 14.0264 592.969 15.3936 591.765 18.1279C590.983 19.902 590.593 22.0911 590.593 24.6953C590.593 27.3158 591.146 29.5212 592.253 31.3115C593.36 33.1019 595.101 33.9971 597.478 33.9971C599.3 33.9971 600.741 33.4437 601.799 32.3369C602.873 31.2139 603.614 29.6839 604.021 27.7471H608.293C607.805 31.2139 606.584 33.7529 604.631 35.3643C602.678 36.9593 600.179 37.7568 597.136 37.7568C593.718 37.7568 590.992 36.5117 588.957 34.0215C586.923 31.515 585.905 28.39 585.905 24.6465C585.905 20.0566 587.02 16.484 589.25 13.9287C591.48 11.3734 594.32 10.0957 597.771 10.0957ZM612.688 10.9746H617.155V37H612.688V10.9746ZM612.688 1.13574H617.155V6.11621H612.688V1.13574ZM634.196 34.168C637.11 34.168 639.104 33.0693 640.178 30.8721C641.268 28.6585 641.813 26.2008 641.813 23.499C641.813 21.0576 641.423 19.0719 640.642 17.542C639.405 15.1331 637.272 13.9287 634.245 13.9287C631.56 13.9287 629.606 14.9541 628.386 17.0049C627.165 19.0557 626.555 21.5296 626.555 24.4268C626.555 27.21 627.165 29.5293 628.386 31.3848C629.606 33.2402 631.543 34.168 634.196 34.168ZM634.367 10.0957C637.736 10.0957 640.585 11.2188 642.912 13.4648C645.24 15.7109 646.403 19.015 646.403 23.377C646.403 27.5924 645.378 31.0755 643.327 33.8262C641.276 36.5768 638.094 37.9521 633.781 37.9521C630.184 37.9521 627.328 36.7396 625.212 34.3145C623.096 31.873 622.038 28.6016 622.038 24.5C622.038 20.1055 623.153 16.6061 625.383 14.002C627.613 11.3978 630.607 10.0957 634.367 10.0957ZM651.652 10.8525H655.827V14.5635C657.064 13.0335 658.374 11.9349 659.758 11.2676C661.141 10.6003 662.679 10.2666 664.372 10.2666C668.083 10.2666 670.59 11.5605 671.892 14.1484C672.608 15.5645 672.966 17.5908 672.966 20.2275V37H668.498V20.5205C668.498 18.9255 668.262 17.6396 667.79 16.6631C667.009 15.0355 665.593 14.2217 663.542 14.2217C662.5 14.2217 661.646 14.3275 660.979 14.5391C659.774 14.8971 658.716 15.6133 657.805 16.6875C657.072 17.5501 656.592 18.4453 656.364 19.373C656.153 20.2845 656.047 21.5947 656.047 23.3037V37H651.652V10.8525ZM682.854 30.042C682.854 31.3115 683.317 32.3125 684.245 33.0449C685.173 33.7773 686.271 34.1436 687.541 34.1436C689.087 34.1436 690.585 33.7855 692.033 33.0693C694.475 31.8812 695.695 29.9362 695.695 27.2344V23.6943C695.158 24.0361 694.466 24.321 693.62 24.5488C692.774 24.7767 691.944 24.9395 691.13 25.0371L688.469 25.3789C686.874 25.5905 685.677 25.9242 684.88 26.3799C683.529 27.1449 682.854 28.3656 682.854 30.042ZM693.498 21.1553C694.507 21.0251 695.183 20.6019 695.524 19.8857C695.72 19.4951 695.817 18.9336 695.817 18.2012C695.817 16.7038 695.28 15.6214 694.206 14.9541C693.148 14.2705 691.626 13.9287 689.641 13.9287C687.346 13.9287 685.718 14.5472 684.758 15.7842C684.221 16.4678 683.871 17.485 683.708 18.8359H679.606C679.688 15.6133 680.729 13.3753 682.731 12.1221C684.75 10.8525 687.085 10.2178 689.738 10.2178C692.814 10.2178 695.313 10.8037 697.233 11.9756C699.138 13.1475 700.09 14.9704 700.09 17.4443V32.5078C700.09 32.9635 700.179 33.3298 700.358 33.6064C700.554 33.8831 700.952 34.0215 701.555 34.0215C701.75 34.0215 701.97 34.0133 702.214 33.9971C702.458 33.9645 702.718 33.9238 702.995 33.875V37.1221C702.312 37.3174 701.791 37.4395 701.433 37.4883C701.075 37.5371 700.586 37.5615 699.968 37.5615C698.454 37.5615 697.355 37.0244 696.672 35.9502C696.314 35.3805 696.062 34.5749 695.915 33.5332C695.02 34.7051 693.734 35.7223 692.058 36.585C690.381 37.4476 688.534 37.8789 686.516 37.8789C684.09 37.8789 682.105 37.1465 680.559 35.6816C679.029 34.2005 678.264 32.3532 678.264 30.1396C678.264 27.7145 679.021 25.8346 680.534 24.5C682.048 23.1654 684.034 22.3434 686.491 22.0342L693.498 21.1553ZM707.316 10.9746H711.784V37H707.316V10.9746ZM707.316 1.13574H711.784V6.11621H707.316V1.13574ZM721.062 28.7969C721.192 30.2617 721.558 31.3848 722.16 32.166C723.267 33.582 725.188 34.29 727.922 34.29C729.549 34.29 730.982 33.9401 732.219 33.2402C733.456 32.5241 734.074 31.4255 734.074 29.9443C734.074 28.8213 733.578 27.9668 732.585 27.3809C731.95 27.0228 730.697 26.6077 728.825 26.1357L725.334 25.2568C723.104 24.7035 721.46 24.085 720.402 23.4014C718.514 22.2132 717.57 20.5693 717.57 18.4697C717.57 15.9958 718.457 13.9938 720.231 12.4639C722.022 10.9339 724.423 10.1689 727.434 10.1689C731.372 10.1689 734.213 11.3245 735.954 13.6357C737.045 15.1006 737.574 16.6794 737.541 18.3721H733.391C733.309 17.3792 732.959 16.4759 732.341 15.6621C731.332 14.5065 729.582 13.9287 727.092 13.9287C725.432 13.9287 724.17 14.2461 723.308 14.8809C722.461 15.5156 722.038 16.3538 722.038 17.3955C722.038 18.5348 722.6 19.4463 723.723 20.1299C724.374 20.5368 725.334 20.8949 726.604 21.2041L729.509 21.9121C732.666 22.6771 734.782 23.4176 735.856 24.1338C737.565 25.2568 738.42 27.0228 738.42 29.4316C738.42 31.7591 737.533 33.7692 735.759 35.4619C734.001 37.1546 731.315 38.001 727.702 38.001C723.812 38.001 721.053 37.1221 719.426 35.3643C717.814 33.5902 716.952 31.401 716.838 28.7969H721.062ZM768.254 10.2666C770.109 10.2666 771.908 10.7061 773.649 11.585C775.391 12.4476 776.717 13.5706 777.629 14.9541C778.508 16.2725 779.094 17.8105 779.387 19.5684C779.647 20.7728 779.777 22.6934 779.777 25.3301H760.612C760.694 27.9831 761.32 30.1152 762.492 31.7266C763.664 33.3216 765.479 34.1191 767.937 34.1191C770.231 34.1191 772.062 33.3623 773.43 31.8486C774.211 30.9697 774.764 29.9525 775.09 28.7969H779.411C779.297 29.7572 778.915 30.8314 778.264 32.0195C777.629 33.1914 776.913 34.1517 776.115 34.9004C774.781 36.2025 773.129 37.0814 771.159 37.5371C770.101 37.7975 768.905 37.9277 767.57 37.9277C764.315 37.9277 761.556 36.7477 759.294 34.3877C757.032 32.0114 755.9 28.6911 755.9 24.4268C755.9 20.2275 757.04 16.8177 759.318 14.1973C761.597 11.5768 764.576 10.2666 768.254 10.2666ZM775.261 21.8389C775.082 19.9346 774.667 18.4128 774.016 17.2734C772.811 15.1576 770.801 14.0996 767.985 14.0996C765.967 14.0996 764.274 14.832 762.907 16.2969C761.54 17.7454 760.816 19.5928 760.734 21.8389H775.261ZM802.873 25.4277C802.987 27.4622 803.467 29.1143 804.313 30.3838C805.925 32.7601 808.765 33.9482 812.834 33.9482C814.657 33.9482 816.317 33.6878 817.814 33.167C820.712 32.1579 822.16 30.3512 822.16 27.7471C822.16 25.7939 821.55 24.4023 820.329 23.5723C819.092 22.7585 817.155 22.0505 814.519 21.4482L809.66 20.3496C806.486 19.6335 804.24 18.8441 802.922 17.9814C800.643 16.484 799.504 14.2461 799.504 11.2676C799.504 8.04492 800.619 5.40007 802.849 3.33301C805.078 1.26595 808.236 0.232422 812.321 0.232422C816.081 0.232422 819.271 1.14388 821.892 2.9668C824.528 4.77344 825.847 7.67057 825.847 11.6582H821.281C821.037 9.73763 820.516 8.26465 819.719 7.23926C818.238 5.36751 815.723 4.43164 812.175 4.43164C809.31 4.43164 807.251 5.03385 805.998 6.23828C804.745 7.44271 804.118 8.84245 804.118 10.4375C804.118 12.1953 804.851 13.4811 806.315 14.2949C807.276 14.8158 809.449 15.4668 812.834 16.248L817.863 17.3955C820.288 17.9489 822.16 18.7057 823.479 19.666C825.757 21.3424 826.896 23.7757 826.896 26.9658C826.896 30.9372 825.448 33.7773 822.551 35.4863C819.67 37.1953 816.317 38.0498 812.492 38.0498C808.033 38.0498 804.541 36.9105 802.019 34.6318C799.496 32.3695 798.259 29.3014 798.308 25.4277H802.873ZM843.352 10.2666C845.207 10.2666 847.006 10.7061 848.747 11.585C850.489 12.4476 851.815 13.5706 852.727 14.9541C853.605 16.2725 854.191 17.8105 854.484 19.5684C854.745 20.7728 854.875 22.6934 854.875 25.3301H835.71C835.791 27.9831 836.418 30.1152 837.59 31.7266C838.762 33.3216 840.576 34.1191 843.034 34.1191C845.329 34.1191 847.16 33.3623 848.527 31.8486C849.309 30.9697 849.862 29.9525 850.188 28.7969H854.509C854.395 29.7572 854.012 30.8314 853.361 32.0195C852.727 33.1914 852.01 34.1517 851.213 34.9004C849.878 36.2025 848.226 37.0814 846.257 37.5371C845.199 37.7975 844.003 37.9277 842.668 37.9277C839.413 37.9277 836.654 36.7477 834.392 34.3877C832.129 32.0114 830.998 28.6911 830.998 24.4268C830.998 20.2275 832.137 16.8177 834.416 14.1973C836.695 11.5768 839.673 10.2666 843.352 10.2666ZM850.358 21.8389C850.179 19.9346 849.764 18.4128 849.113 17.2734C847.909 15.1576 845.899 14.0996 843.083 14.0996C841.065 14.0996 839.372 14.832 838.005 16.2969C836.638 17.7454 835.913 19.5928 835.832 21.8389H850.358ZM860.295 10.8525H864.47V14.5635C865.707 13.0335 867.017 11.9349 868.4 11.2676C869.784 10.6003 871.322 10.2666 873.015 10.2666C876.726 10.2666 879.232 11.5605 880.534 14.1484C881.25 15.5645 881.608 17.5908 881.608 20.2275V37H877.141V20.5205C877.141 18.9255 876.905 17.6396 876.433 16.6631C875.651 15.0355 874.235 14.2217 872.185 14.2217C871.143 14.2217 870.288 14.3275 869.621 14.5391C868.417 14.8971 867.359 15.6133 866.447 16.6875C865.715 17.5501 865.235 18.4453 865.007 19.373C864.795 20.2845 864.689 21.5947 864.689 23.3037V37H860.295V10.8525ZM888.127 1.01367H892.521V14.3926C893.563 13.0742 894.499 12.1465 895.329 11.6094C896.745 10.6816 898.511 10.2178 900.627 10.2178C904.419 10.2178 906.991 11.5443 908.342 14.1973C909.074 15.6458 909.44 17.6559 909.44 20.2275V37H904.924V20.5205C904.924 18.5999 904.68 17.1921 904.191 16.2969C903.394 14.8646 901.896 14.1484 899.699 14.1484C897.876 14.1484 896.224 14.7751 894.743 16.0283C893.262 17.2816 892.521 19.6497 892.521 23.1328V37H888.127V1.01367ZM919.328 30.042C919.328 31.3115 919.792 32.3125 920.72 33.0449C921.647 33.7773 922.746 34.1436 924.016 34.1436C925.562 34.1436 927.059 33.7855 928.508 33.0693C930.949 31.8812 932.17 29.9362 932.17 27.2344V23.6943C931.633 24.0361 930.941 24.321 930.095 24.5488C929.248 24.7767 928.418 24.9395 927.604 25.0371L924.943 25.3789C923.348 25.5905 922.152 25.9242 921.354 26.3799C920.004 27.1449 919.328 28.3656 919.328 30.042ZM929.973 21.1553C930.982 21.0251 931.657 20.6019 931.999 19.8857C932.194 19.4951 932.292 18.9336 932.292 18.2012C932.292 16.7038 931.755 15.6214 930.681 14.9541C929.623 14.2705 928.101 13.9287 926.115 13.9287C923.82 13.9287 922.193 14.5472 921.232 15.7842C920.695 16.4678 920.345 17.485 920.183 18.8359H916.081C916.162 15.6133 917.204 13.3753 919.206 12.1221C921.224 10.8525 923.56 10.2178 926.213 10.2178C929.289 10.2178 931.787 10.8037 933.708 11.9756C935.612 13.1475 936.564 14.9704 936.564 17.4443V32.5078C936.564 32.9635 936.654 33.3298 936.833 33.6064C937.028 33.8831 937.427 34.0215 938.029 34.0215C938.225 34.0215 938.444 34.0133 938.688 33.9971C938.933 33.9645 939.193 33.9238 939.47 33.875V37.1221C938.786 37.3174 938.265 37.4395 937.907 37.4883C937.549 37.5371 937.061 37.5615 936.442 37.5615C934.929 37.5615 933.83 37.0244 933.146 35.9502C932.788 35.3805 932.536 34.5749 932.39 33.5332C931.494 34.7051 930.209 35.7223 928.532 36.585C926.856 37.4476 925.008 37.8789 922.99 37.8789C920.565 37.8789 918.579 37.1465 917.033 35.6816C915.503 34.2005 914.738 32.3532 914.738 30.1396C914.738 27.7145 915.495 25.8346 917.009 24.5C918.522 23.1654 920.508 22.3434 922.966 22.0342L929.973 21.1553Z" fill="#203A40"/>
<path d="M569.707 127.707C570.098 127.317 570.098 126.683 569.707 126.293L563.343 119.929C562.953 119.538 562.319 119.538 561.929 119.929C561.538 120.319 561.538 120.953 561.929 121.343L567.586 127L561.929 132.657C561.538 133.047 561.538 133.681 561.929 134.071C562.319 134.462 562.953 134.462 563.343 134.071L569.707 127.707ZM496 128L569 128L569 126L496 126L496 128Z" fill="#F2695C"/>
<path d="M445.707 127.707C446.098 127.317 446.098 126.683 445.707 126.293L439.343 119.929C438.953 119.538 438.319 119.538 437.929 119.929C437.538 120.319 437.538 120.953 437.929 121.343L443.586 127L437.929 132.657C437.538 133.047 437.538 133.681 437.929 134.071C438.319 134.462 438.953 134.462 439.343 134.071L445.707 127.707ZM372 128L445 128L445 126L372 126L372 128Z" fill="#F2695C"/>
<rect x="570" y="101" width="50" height="50" rx="6" fill="#203A40"/>
<path d="M464.042 136.18C464.14 134.373 464.511 132.801 465.156 131.463C465.81 130.125 467.079 128.909 468.964 127.815L471.777 126.189C473.036 125.457 473.92 124.832 474.428 124.314C475.229 123.504 475.629 122.576 475.629 121.531C475.629 120.311 475.263 119.344 474.531 118.631C473.798 117.908 472.822 117.547 471.601 117.547C469.794 117.547 468.544 118.23 467.851 119.598C467.48 120.33 467.275 121.346 467.236 122.645H464.555C464.584 120.818 464.921 119.329 465.566 118.177C466.708 116.146 468.725 115.13 471.616 115.13C474.018 115.13 475.771 115.779 476.874 117.078C477.988 118.377 478.544 119.822 478.544 121.414C478.544 123.094 477.953 124.529 476.772 125.721C476.088 126.414 474.863 127.254 473.095 128.24L471.088 129.354C470.131 129.881 469.379 130.384 468.832 130.862C467.856 131.712 467.241 132.654 466.987 133.689H478.442V136.18H464.042Z" fill="#203A40"/>
<rect x="447" y="102" width="48" height="48" rx="5" stroke="#203A40" stroke-width="2"/>
<rect x="323" y="102" width="48" height="48" rx="5" stroke="#203A40" stroke-width="2"/>
<path d="M341.76 122.146V120.125C343.664 119.939 344.993 119.632 345.744 119.202C346.496 118.763 347.058 117.732 347.429 116.111H349.509V137H346.697V122.146H341.76Z" fill="#203A40"/>
<path d="M593.807 136.571C591.327 136.571 589.525 135.893 588.402 134.535C587.288 133.168 586.732 131.508 586.732 129.555H589.486C589.603 130.912 589.857 131.898 590.247 132.514C590.931 133.617 592.166 134.169 593.953 134.169C595.34 134.169 596.453 133.798 597.293 133.056C598.133 132.313 598.553 131.356 598.553 130.185C598.553 128.739 598.109 127.729 597.22 127.152C596.341 126.576 595.116 126.288 593.543 126.288C593.368 126.288 593.187 126.293 593.001 126.303C592.826 126.303 592.645 126.308 592.459 126.317V123.988C592.733 124.018 592.962 124.037 593.148 124.047C593.333 124.057 593.534 124.062 593.748 124.062C594.735 124.062 595.545 123.905 596.18 123.593C597.293 123.046 597.85 122.069 597.85 120.663C597.85 119.618 597.479 118.812 596.737 118.246C595.994 117.68 595.13 117.396 594.144 117.396C592.386 117.396 591.17 117.982 590.496 119.154C590.125 119.799 589.915 120.717 589.867 121.908H587.259C587.259 120.346 587.572 119.018 588.197 117.924C589.271 115.971 591.161 114.994 593.866 114.994C596.004 114.994 597.66 115.473 598.831 116.43C600.003 117.377 600.589 118.754 600.589 120.561C600.589 121.85 600.243 122.895 599.549 123.695C599.119 124.193 598.563 124.584 597.879 124.867C598.983 125.17 599.842 125.756 600.457 126.625C601.082 127.484 601.395 128.539 601.395 129.789C601.395 131.791 600.736 133.422 599.417 134.682C598.099 135.941 596.229 136.571 593.807 136.571Z" fill="white"/>
</svg>
