<svg width="6" height="12" viewBox="0 0 6 12" fill="none" xmlns="http://www.w3.org/2000/svg">
<path d="M0.134531 0.832927L4.91646 6.00053L0.134531 11.1681C0.0489143 11.2605 0.000981441 11.3844 0.000981441 11.5135C0.000981441 11.6425 0.0489143 11.7665 0.134531 11.8588C0.176112 11.9035 0.225743 11.939 0.280518 11.9633C0.335292 11.9875 0.394109 12 0.453523 12C0.512936 12 0.571753 11.9875 0.626527 11.9633C0.681302 11.939 0.730933 11.9035 0.772514 11.8588L5.86067 6.36137C5.95 6.26483 6 6.13535 6 6.00053C6 5.86571 5.95 5.73623 5.86067 5.63969L0.773496 0.142259C0.731884 0.0972376 0.682131 0.0614548 0.627174 0.0370216C0.572218 0.0125885 0.513173 0 0.453523 0C0.393872 0 0.334826 0.0125885 0.27987 0.0370216C0.224914 0.0614548 0.175162 0.0972376 0.133549 0.142259C0.0479324 0.234583 0 0.358527 0 0.487593C0 0.616658 0.0479324 0.740602 0.133549 0.832927H0.134531Z" fill="#203A40"/>
</svg>