                        <svg width="31" height="30" viewBox="0 0 31 30" fill="none" xmlns="http://www.w3.org/2000/svg">
                            <path d="M30.3753 27.6407C28.174 23.8351 24.7819 21.1064 20.8232 19.8128C22.7813 18.6471 24.3027 16.8709 25.1537 14.7568C26.0046 12.6428 26.1381 10.3079 25.5335 8.11066C24.929 5.91343 23.62 3.97538 21.8074 2.59414C19.9948 1.2129 17.779 0.464844 15.5001 0.464844C13.2212 0.464844 11.0054 1.2129 9.19279 2.59414C7.38022 3.97538 6.07117 5.91343 5.46666 8.11066C4.86215 10.3079 4.99561 12.6428 5.84655 14.7568C6.69749 16.8709 8.21886 18.6471 10.177 19.8128C6.2183 21.1049 2.82616 23.8337 0.624945 27.6407C0.544223 27.7723 0.49068 27.9187 0.467477 28.0714C0.444273 28.224 0.451878 28.3798 0.489844 28.5294C0.527809 28.6791 0.595365 28.8197 0.688527 28.9428C0.781689 29.0659 0.898568 29.1691 1.03227 29.2464C1.16597 29.3236 1.31379 29.3733 1.467 29.3924C1.6202 29.4116 1.7757 29.3999 1.92431 29.358C2.07292 29.3161 2.21164 29.2449 2.33227 29.1485C2.45291 29.0521 2.55302 28.9326 2.6267 28.7969C5.34967 24.091 10.1626 21.2813 15.5001 21.2813C20.8376 21.2813 25.6505 24.091 28.3735 28.7969C28.4472 28.9326 28.5473 29.0521 28.6679 29.1485C28.7886 29.2449 28.9273 29.3161 29.0759 29.358C29.2245 29.3999 29.38 29.4116 29.5332 29.3924C29.6864 29.3733 29.8342 29.3236 29.9679 29.2464C30.1016 29.1691 30.2185 29.0659 30.3117 28.9428C30.4048 28.8197 30.4724 28.6791 30.5104 28.5294C30.5483 28.3798 30.5559 28.224 30.5327 28.0714C30.5095 27.9187 30.456 27.7723 30.3753 27.6407ZM7.40635 10.875C7.40635 9.27423 7.88104 7.70939 8.77039 6.37838C9.65975 5.04737 10.9238 4.00997 12.4028 3.39738C13.8817 2.78478 15.5091 2.6245 17.0791 2.93679C18.6491 3.24909 20.0913 4.01995 21.2232 5.15188C22.3552 6.28381 23.126 7.72598 23.4383 9.29601C23.7506 10.866 23.5903 12.4934 22.9778 13.9724C22.3652 15.4513 21.3278 16.7154 19.9967 17.6047C18.6657 18.4941 17.1009 18.9688 15.5001 18.9688C13.3542 18.9665 11.2969 18.113 9.77949 16.5956C8.26212 15.0783 7.40865 13.0209 7.40635 10.875Z" fill="#F2695C"/>
                        </svg>