<svg width="25" height="47" viewBox="0 0 25 47" fill="none" xmlns="http://www.w3.org/2000/svg">
<path d="M1.13837 3.23596L20.1499 23.228L1.13837 43.22C0.797984 43.5771 0.607418 44.0566 0.607418 44.556C0.607418 45.0553 0.797984 45.5348 1.13837 45.892C1.30369 46.0649 1.501 46.2023 1.71877 46.2961C1.93654 46.3899 2.17038 46.4382 2.40659 46.4382C2.6428 46.4382 2.87663 46.3899 3.0944 46.2961C3.31217 46.2023 3.50949 46.0649 3.6748 45.892L23.9038 24.624C24.259 24.2505 24.4577 23.7495 24.4577 23.228C24.4577 22.7064 24.259 22.2055 23.9038 21.832L3.6787 0.563961C3.51327 0.389786 3.31546 0.25135 3.09697 0.156826C2.87849 0.0622978 2.64374 0.0136032 2.40659 0.0136032C2.16944 0.0136032 1.93469 0.0622978 1.7162 0.156826C1.49771 0.25135 1.29991 0.389786 1.13447 0.563961C0.794081 0.921135 0.603516 1.40064 0.603516 1.89996C0.603516 2.39928 0.794081 2.87878 1.13447 3.23596H1.13837Z" fill="#203A40"/>
</svg>
