<svg width="52" height="52" viewBox="0 0 52 52" fill="none" xmlns="http://www.w3.org/2000/svg">
<path d="M25.7276 0C20.711 0 15.8071 1.52487 11.6359 4.38179C7.46481 7.23871 4.2138 11.2994 2.29404 16.0502C0.374271 20.8011 -0.128027 26.0288 0.850661 31.0723C1.82935 36.1159 4.24506 40.7486 7.79233 44.3848C11.3396 48.0209 15.8591 50.4972 20.7793 51.5004C25.6995 52.5036 30.7994 51.9887 35.4341 50.0209C40.0688 48.053 44.0302 44.7205 46.8172 40.4448C49.6043 36.1691 51.0919 31.1423 51.0919 26C51.0848 19.1066 48.4102 12.4976 43.655 7.62326C38.8998 2.74889 32.4524 0.00727955 25.7276 0ZM25.7276 48C21.4828 48 17.3333 46.7097 13.8039 44.2923C10.2745 41.8749 7.52361 38.439 5.8992 34.419C4.27478 30.3991 3.84976 25.9756 4.67788 21.708C5.506 17.4404 7.55007 13.5204 10.5516 10.4437C13.5531 7.3669 17.3773 5.2716 21.5405 4.42272C25.7038 3.57385 30.0191 4.00952 33.9408 5.67465C37.8625 7.33978 41.2144 10.1596 43.5727 13.7775C45.931 17.3953 47.1897 21.6488 47.1897 26C47.1832 31.8327 44.92 37.4247 40.8965 41.549C36.8729 45.6734 31.4177 47.9934 25.7276 48ZM41.3364 26C41.3364 26.5304 41.1308 27.0391 40.7649 27.4142C40.399 27.7893 39.9028 28 39.3853 28H25.7276C25.2101 28 24.7139 27.7893 24.348 27.4142C23.9821 27.0391 23.7765 26.5304 23.7765 26V12C23.7765 11.4696 23.9821 10.9609 24.348 10.5858C24.7139 10.2107 25.2101 10 25.7276 10C26.2451 10 26.7413 10.2107 27.1072 10.5858C27.4731 10.9609 27.6787 11.4696 27.6787 12V24H39.3853C39.9028 24 40.399 24.2107 40.7649 24.5858C41.1308 24.9609 41.3364 25.4696 41.3364 26Z" fill="#203A40"/>
</svg>
