<svg width="63" height="63" viewBox="0 0 63 63" fill="none" xmlns="http://www.w3.org/2000/svg">
<path d="M31.6244 0C14.6529 0 0.894531 14.1031 0.894531 31.5C0.894531 48.8978 14.6529 63 31.6244 63C48.5968 63 62.3542 48.8978 62.3542 31.5C62.3542 14.1031 48.5968 0 31.6244 0ZM31.6244 59.1245C16.7982 59.1245 4.73576 46.6978 4.73576 31.4999C4.73576 16.3021 16.7982 3.93738 31.6244 3.93738C46.4505 3.93738 58.513 16.3022 58.513 31.4999C58.513 46.6976 46.4505 59.1245 31.6244 59.1245ZM43.8884 19.974L25.8586 38.5717L17.7392 30.2489C16.9892 29.4801 15.7735 29.4801 15.0225 30.2489C14.2725 31.0177 14.2725 32.2639 15.0225 33.0327L24.5286 42.778C25.2786 43.5458 26.4943 43.5458 27.2453 42.778C27.3317 42.6894 27.4057 42.5929 27.473 42.4925L46.6061 22.7587C47.3552 21.9899 47.3552 20.7437 46.6061 19.974C45.8552 19.2052 44.6394 19.2052 43.8884 19.974Z" fill="#F2695C"/>
</svg>
