<svg width="60" height="59" viewBox="0 0 60 59" fill="none" xmlns="http://www.w3.org/2000/svg">
<path d="M26.7292 8.31494e-07C26.1009 0.000334338 25.5653 0.45516 25.4634 1.07478L24.2151 8.71346C22.714 9.14988 21.2827 9.73874 19.9338 10.4722L13.6271 5.97014C13.1173 5.60625 12.4191 5.66343 11.9753 6.10543L6.9821 11.091C6.54164 11.5315 6.48138 12.2246 6.83922 12.7345L11.2759 19.0779C10.5308 20.434 9.92856 21.8727 9.48118 23.387L1.8711 24.6522C1.25315 24.7563 0.800706 25.2911 0.800783 25.9174V32.9724C0.799654 33.5947 1.2456 34.1281 1.85858 34.2375L9.47366 35.5854C9.91861 37.0971 10.517 38.5368 11.2634 39.8945L6.77153 46.1753C6.40745 46.6849 6.46466 47.3827 6.90689 47.8263L11.8976 52.8169C12.3373 53.2565 13.0292 53.3178 13.5394 52.9622L19.8987 48.5128C21.2516 49.2506 22.6864 49.8437 24.1925 50.284L25.4633 57.9327C25.5663 58.5514 26.1017 59.0049 26.7292 59.005H33.7878C34.4113 59.0059 34.9452 58.5589 35.0537 57.9453L36.4147 50.2665C37.9146 49.8195 39.3427 49.2175 40.6885 48.4752L47.0904 52.9647C47.6005 53.3224 48.294 53.2621 48.7348 52.8219L53.7254 47.8288C54.1696 47.3839 54.2259 46.6828 53.8583 46.1728L49.2937 39.8394C50.0236 38.5007 50.6115 37.0819 51.0484 35.5929L58.7712 34.24C59.3852 34.1317 59.8325 33.598 59.8315 32.9748V25.9199C59.8312 25.292 59.3761 24.7566 58.7562 24.6547L51.0459 23.3945C50.6061 21.9073 50.0165 20.491 49.2862 19.1531L53.7881 12.742C54.1459 12.2321 54.0857 11.539 53.6452 11.0985L48.6521 6.11043C48.2069 5.66646 47.5054 5.61023 46.9952 5.97764L40.676 10.5198C39.3296 9.78047 37.9006 9.18167 36.3972 8.7385L35.0537 1.06224C34.9463 0.447605 34.4121 -0.000704663 33.7878 8.31494e-07H26.7292ZM27.8221 2.56544H32.71L33.9883 9.85839C34.0752 10.3581 34.4486 10.7597 34.9409 10.8831C36.8178 11.3506 38.5807 12.0916 40.1897 13.0652C40.6295 13.3315 41.1858 13.3098 41.6034 13.0101L47.6093 8.69593L51.0659 12.1507L46.7896 18.2412C46.4978 18.6562 46.4782 19.2042 46.7395 19.6391C47.7039 21.2437 48.4354 22.9945 48.9027 24.8602C49.0271 25.3568 49.435 25.732 49.9404 25.8147L57.2648 27.0122V31.8976L49.9254 33.1853C49.425 33.2738 49.024 33.6491 48.9027 34.1423C48.4408 36.0056 47.7089 37.7564 46.7445 39.3609C46.4799 39.8003 46.5026 40.355 46.8022 40.7714L51.1386 46.7866L47.682 50.2439L41.5984 45.9774C41.181 45.6851 40.6301 45.6674 40.1947 45.9323C38.5937 46.9059 36.829 47.6504 34.9584 48.1244C34.4686 48.2479 34.0967 48.647 34.0084 49.1441L32.7125 56.4395H27.8171L26.6089 49.1767C26.5248 48.6717 26.1485 48.265 25.6514 48.142C23.7733 47.6793 22.0025 46.9394 20.3825 45.9674C19.9479 45.7073 19.401 45.7269 18.9863 46.0175L12.9504 50.2439L9.49123 46.7816L13.7575 40.8215C14.0555 40.4041 14.0762 39.8494 13.8101 39.411C12.827 37.7874 12.0835 36.0177 11.6143 34.1323C11.4917 33.6417 11.0922 33.2689 10.5941 33.1803L3.36758 31.8976V27.0047L10.5891 25.8046C11.0937 25.721 11.5004 25.346 11.6244 24.8501C12.0976 22.9582 12.8407 21.1888 13.8202 19.5689C14.084 19.1344 14.0663 18.5851 13.775 18.1685L9.55891 12.1457L13.0205 8.68839L19.0038 12.9624C19.4198 13.2589 19.9721 13.2806 20.41 13.0176C22.0215 12.0502 23.7964 11.3162 25.6764 10.8555C26.176 10.7325 26.5539 10.3233 26.6365 9.81577L27.8221 2.56544ZM30.3162 19.2408C24.661 19.2408 20.0491 23.8503 20.0491 29.5025C20.0491 35.1547 24.661 39.7642 30.3162 39.7642C35.9713 39.7642 40.5832 35.1547 40.5832 29.5025C40.5832 23.8503 35.9713 19.2408 30.3162 19.2408ZM30.3162 21.8062C34.5841 21.8062 38.0165 25.2368 38.0165 29.5025C38.0165 33.7682 34.5841 37.1988 30.3162 37.1988C26.0482 37.1988 22.6158 33.7682 22.6158 29.5025C22.6158 25.2368 26.0482 21.8062 30.3162 21.8062Z" fill="#203A40"/>
</svg>
