<svg width="53" height="36" viewBox="0 0 53 36" fill="none" xmlns="http://www.w3.org/2000/svg">
<path d="M1.23041 0.000110064C1.08063 -0.00195239 0.931917 0.0249897 0.792923 0.0793713C0.653929 0.133753 0.527422 0.21449 0.420753 0.316888C0.314085 0.419287 0.229383 0.541306 0.17157 0.675855C0.113756 0.810403 0.0839844 0.954798 0.0839844 1.10065C0.0839844 1.2465 0.113756 1.39089 0.17157 1.52544C0.229383 1.65999 0.314085 1.78201 0.420753 1.88441C0.527422 1.9868 0.653929 2.06754 0.792923 2.12192C0.931917 2.1763 1.08063 2.20325 1.23041 2.20118H50.9646C51.1144 2.20325 51.2631 2.1763 51.4021 2.12192C51.5411 2.06754 51.6676 1.9868 51.7743 1.88441C51.881 1.78201 51.9657 1.65999 52.0235 1.52544C52.0813 1.39089 52.1111 1.2465 52.1111 1.10065C52.1111 0.954798 52.0813 0.810403 52.0235 0.675855C51.9657 0.541306 51.881 0.419287 51.7743 0.316888C51.6676 0.21449 51.5411 0.133753 51.4021 0.0793713C51.2631 0.0249897 51.1144 -0.00195239 50.9646 0.000110064H1.23041ZM1.23041 16.5082C1.08063 16.5061 0.931917 16.533 0.792923 16.5874C0.653929 16.6418 0.527422 16.7225 0.420753 16.8249C0.314085 16.9273 0.229383 17.0494 0.17157 17.1839C0.113756 17.3185 0.0839844 17.4628 0.0839844 17.6087C0.0839844 17.7545 0.113756 17.8989 0.17157 18.0335C0.229383 18.168 0.314085 18.2901 0.420753 18.3925C0.527422 18.4949 0.653929 18.5756 0.792923 18.63C0.931917 18.6844 1.08063 18.7113 1.23041 18.7092H50.9646C51.1144 18.7113 51.2631 18.6844 51.4021 18.63C51.5411 18.5756 51.6676 18.4949 51.7743 18.3925C51.881 18.2901 51.9657 18.168 52.0235 18.0335C52.0813 17.8989 52.1111 17.7545 52.1111 17.6087C52.1111 17.4628 52.0813 17.3185 52.0235 17.1839C51.9657 17.0494 51.881 16.9273 51.7743 16.8249C51.6676 16.7225 51.5411 16.6418 51.4021 16.5874C51.2631 16.533 51.1144 16.5061 50.9646 16.5082H1.23041ZM1.23041 33.0162C1.08063 33.0142 0.931917 33.0411 0.792923 33.0955C0.653929 33.1499 0.527422 33.2306 0.420753 33.333C0.314085 33.4354 0.229383 33.5574 0.17157 33.692C0.113756 33.8265 0.0839844 33.9709 0.0839844 34.1167C0.0839844 34.2626 0.113756 34.407 0.17157 34.5415C0.229383 34.6761 0.314085 34.7981 0.420753 34.9005C0.527422 35.0029 0.653929 35.0836 0.792923 35.138C0.931917 35.1924 1.08063 35.2193 1.23041 35.2173H50.9646C51.1144 35.2193 51.2631 35.1924 51.4021 35.138C51.5411 35.0836 51.6676 35.0029 51.7743 34.9005C51.881 34.7981 51.9657 34.6761 52.0235 34.5415C52.0813 34.407 52.1111 34.2626 52.1111 34.1167C52.1111 33.9709 52.0813 33.8265 52.0235 33.692C51.9657 33.5574 51.881 33.4354 51.7743 33.333C51.6676 33.2306 51.5411 33.1499 51.4021 33.0955C51.2631 33.0411 51.1144 33.0142 50.9646 33.0162H1.23041Z" fill="#203A40"/>
</svg>
