<svg width="53" height="49" viewBox="0 0 53 49" fill="none" xmlns="http://www.w3.org/2000/svg">
<path d="M26.123 0.00082771C25.8955 0.00850071 25.6763 0.0859937 25.4964 0.222306L0.566156 19.2429C0.093794 19.603 0.00944318 20.2694 0.377738 20.7312C0.746033 21.1931 1.42753 21.2755 1.89989 20.9154L3.40087 19.7708V47.6342C3.40094 48.2194 3.88619 48.6939 4.48479 48.694H19.4776C19.5947 48.7129 19.7141 48.7129 19.8312 48.694H32.4847C32.6017 48.7129 32.7212 48.7129 32.8382 48.694H47.8417C48.4403 48.6939 48.9255 48.2194 48.9256 47.6342V19.7708L50.4266 20.9154C50.7321 21.1484 51.1416 21.2043 51.5007 21.062C51.8599 20.9198 52.1141 20.601 52.1676 20.2258C52.2212 19.8505 52.0659 19.4759 51.7603 19.2429L43.506 12.9462V5.2419H37.0024V7.98249L26.8301 0.222306C26.6284 0.0693971 26.378 -0.00902849 26.123 0.00082771ZM26.1632 2.40402L46.7577 18.1169V46.5743H33.7507V26.438H18.5758V46.5743H5.5687V18.1169L26.1632 2.40402ZM39.1703 7.36151H41.3381V11.2923L39.1703 9.63636V7.36151ZM20.7436 28.5576H31.5828V46.5743H20.7436V28.5576Z" fill="#203A40"/>
</svg>
