<svg width="28" height="27" viewBox="0 0 28 27" fill="none" xmlns="http://www.w3.org/2000/svg">
<path d="M11.2152 5.59762e-06C5.38664 5.59762e-06 0.644531 4.73965 0.644531 10.5652C0.644531 16.3907 5.38664 21.1303 11.2152 21.1303C13.6401 21.1303 15.87 20.3012 17.6555 18.9235L25.3381 26.602C25.8689 27.1327 26.7295 27.1327 27.2604 26.602C27.7913 26.0714 27.7913 25.2113 27.2604 24.6807L19.5779 17.0022C20.9562 15.2175 21.7858 12.9888 21.7858 10.5652C21.7858 4.73965 17.0437 5.59762e-06 11.2152 5.59762e-06ZM11.2152 2.34782C15.7482 2.34782 19.4368 6.03447 19.4368 10.5652C19.4368 15.0959 15.7482 18.7825 11.2152 18.7825C6.68213 18.7825 2.99356 15.0959 2.99356 10.5652C2.99356 6.03447 6.68213 2.34782 11.2152 2.34782Z" fill="#203A40"/>
</svg>
