<svg width="55" height="61" viewBox="0 0 55 61" fill="none" xmlns="http://www.w3.org/2000/svg">
<path d="M27.7328 0C24.9038 0 22.5873 2.18795 22.5873 4.86C22.5873 5.48649 22.718 6.09399 22.9491 6.64453C15.7132 8.41957 11.0098 14.3569 11.0098 21.87C11.0098 31.3859 8.53757 35.7191 6.18589 38.1586C5.01006 39.3783 3.84929 40.1187 2.84933 40.8164C2.34684 41.1629 1.88957 41.5093 1.48254 41.9555C1.07552 42.4016 0.71875 43.0376 0.71875 43.74C0.71875 45.4106 1.80414 46.8297 3.33172 47.7647C4.8593 48.6997 6.86425 49.3024 9.28125 49.777C12.4168 50.3893 16.286 50.712 20.5371 50.8781C20.2155 51.685 20.0145 52.5535 20.0145 53.46C20.0145 57.4704 23.4868 60.75 27.7328 60.75C31.9789 60.75 35.4512 57.4704 35.4512 53.46C35.4512 52.5488 35.2552 51.6802 34.9286 50.8781C39.1797 50.712 43.0489 50.3893 46.1844 49.777C48.6014 49.3024 50.6064 48.6997 52.134 47.7647C53.6616 46.8297 54.7469 45.4106 54.7469 43.74C54.7469 43.0376 54.3902 42.4016 53.9832 41.9555C53.5761 41.5093 53.1189 41.1629 52.6164 40.8164C51.6164 40.1187 50.4556 39.3783 49.2798 38.1586C46.9281 35.7191 44.4559 31.3859 44.4559 21.87C44.4559 14.3617 39.7425 8.42906 32.5166 6.64453C32.7477 6.09399 32.8784 5.48649 32.8784 4.86C32.8784 2.18795 30.5619 0 27.7328 0ZM27.7328 2.43C29.17 2.43 30.3056 3.50261 30.3056 4.86C30.3056 6.21739 29.17 7.29 27.7328 7.29C26.2957 7.29 25.1601 6.21739 25.1601 4.86C25.1601 3.50261 26.2957 2.43 27.7328 2.43ZM30.7478 8.73281C37.6069 9.88612 41.8831 14.8932 41.8831 21.87C41.8831 31.7941 44.5564 36.8914 47.3502 39.7913C48.7472 41.2388 50.1592 42.1453 51.0888 42.7908C51.5511 43.1135 51.8978 43.384 52.0536 43.5502C52.2093 43.7163 52.1742 43.702 52.1742 43.74C52.1742 44.4994 51.8023 45.0547 50.727 45.7144C49.6517 46.3741 47.903 46.9863 45.6618 47.423C41.1796 48.301 34.7979 48.6 27.7328 48.6C20.6678 48.6 14.2861 48.301 9.80385 47.423C7.56272 46.9863 5.81405 46.3741 4.73871 45.7144C3.66336 45.0547 3.29152 44.4994 3.29152 43.74C3.29152 43.702 3.25635 43.7163 3.41212 43.5502C3.56789 43.384 3.91462 43.1135 4.37691 42.7908C5.30653 42.1453 6.71853 41.2388 8.11547 39.7913C10.9093 36.8914 13.5826 31.7941 13.5826 21.87C13.5826 14.898 17.8639 9.92883 24.7179 8.77078C25.5721 9.36404 26.6022 9.72 27.7328 9.72C28.8735 9.72 29.8936 9.33556 30.7478 8.73281ZM23.3109 50.9541C24.7531 50.9825 26.2203 51.03 27.7328 51.03C29.2454 51.03 30.7126 50.9825 32.1548 50.9541C32.6121 51.685 32.8784 52.5488 32.8784 53.46C32.8784 56.1605 30.592 58.32 27.7328 58.32C24.8737 58.32 22.5873 56.1605 22.5873 53.46C22.5873 52.5393 22.8436 51.685 23.3109 50.9541Z" fill="#203A40"/>
</svg>
