<svg width="10" height="10" viewBox="0 0 10 10" fill="none" xmlns="http://www.w3.org/2000/svg">
<path d="M9.54202 8.90885C8.76765 7.5701 7.5264 6.65603 6.08827 6.3265C6.77164 6.04652 7.33659 5.53794 7.6866 4.88765C8.03661 4.23736 8.14996 3.48572 8.00728 2.76113C7.8646 2.03655 7.47476 1.38398 6.90434 0.914933C6.33392 0.445883 5.61834 0.189453 4.87984 0.189453C4.14134 0.189453 3.42575 0.445883 2.85533 0.914933C2.28492 1.38398 1.89507 2.03655 1.75239 2.76113C1.60971 3.48572 1.72306 4.23736 2.07307 4.88765C2.42308 5.53794 2.98803 6.04652 3.6714 6.3265C2.23515 6.65463 0.992024 7.5701 0.217649 8.90885C0.195232 8.9517 0.19024 9.00155 0.203714 9.048C0.217188 9.09444 0.248087 9.13389 0.289956 9.15809C0.331825 9.18229 0.381426 9.18938 0.428398 9.17787C0.475369 9.16637 0.516079 9.13716 0.542024 9.09635C1.45796 7.5115 3.08077 6.5651 4.87984 6.5651C6.6789 6.5651 8.30171 7.5115 9.21765 9.09635C9.23409 9.12482 9.25773 9.14847 9.28619 9.16493C9.31466 9.18138 9.34696 9.19006 9.37984 9.1901C9.41279 9.19019 9.44516 9.18145 9.47359 9.16478C9.51657 9.13989 9.54791 9.09896 9.56075 9.05097C9.57358 9.00299 9.56684 8.95187 9.54202 8.90885ZM2.06734 3.37759C2.06734 2.82134 2.23229 2.27757 2.54133 1.81505C2.85037 1.35254 3.28962 0.992055 3.80354 0.779184C4.31746 0.566312 4.88296 0.510616 5.42853 0.619136C5.9741 0.727657 6.47524 0.995522 6.86857 1.38886C7.26191 1.78219 7.52977 2.28333 7.63829 2.8289C7.74682 3.37448 7.69112 3.93998 7.47825 4.45389C7.26538 4.96781 6.90489 5.40706 6.44238 5.7161C5.97986 6.02515 5.4361 6.1901 4.87984 6.1901C4.13418 6.18923 3.41932 5.89263 2.89206 5.36537C2.3648 4.83812 2.0682 4.12325 2.06734 3.37759Z" fill="black"/>
</svg>
